<?xml version="1.0" encoding="UTF-8"?>
<svg xmlns="http://www.w3.org/2000/svg" xmlns:xlink="http://www.w3.org/1999/xlink" width="857.14pt" height="701.74pt" viewBox="0 0 857.14 701.74" version="1.1">
<defs>
<clipPath id="clip1">
  <path d="M 0 0 L 857.140625 0 L 857.140625 701.738281 L 0 701.738281 Z M 0 0 "/>
</clipPath>
</defs>
<g id="surface1">
<g clip-path="url(#clip1)" clip-rule="nonzero">
<path style=" stroke:none;fill-rule:nonzero;fill:rgb(13.699341%,12.199402%,12.5%);fill-opacity:1;" d="M 317.035156 235.234375 C 314.472656 229.765625 305.84375 223.371094 300.335938 223.691406 C 275.148438 225.148438 250.09375 228.84375 219.257813 232.394531 C 233.957031 248.476563 243.378906 268.007813 257.070313 271.691406 C 279.335938 277.6875 304.386719 273.308594 329.40625 273.308594 C 325.664063 261.207031 322.800781 247.542969 317.035156 235.234375 Z M 201.414063 432.429688 C 251.394531 446.542969 298.148438 459.75 346.277344 473.34375 C 358.648438 414.527344 352.769531 359.609375 337.3125 305.414063 C 335.871094 300.363281 327.542969 294.835938 321.714844 293.914063 C 300.136719 290.5 278.269531 288.921875 254.078125 286.40625 C 265.035156 347.34375 241.191406 392.378906 201.414063 432.429688 Z M 690.09375 679.945313 C 665.472656 655.472656 652.699219 628.101563 662.964844 596.6875 C 674.722656 560.714844 689.269531 525.527344 704.59375 490.886719 C 712.492188 473.023438 724.707031 457.066406 734.972656 440.25 C 733.871094 438.136719 732.777344 436.015625 731.679688 433.902344 C 692.9375 448.785156 654.1875 463.664063 620.6875 476.535156 C 626.714844 504.316406 633.378906 525.773438 635.34375 547.652344 C 636.457031 560.066406 631.515625 576.144531 613.871094 575.359375 C 595.585938 574.542969 595.722656 558.386719 595.742188 545.4375 C 595.769531 528.164063 597.894531 510.902344 598.984375 495.359375 C 566.714844 504.4375 535.234375 513.285156 504.535156 521.921875 C 597.820313 571.523438 619.136719 639.652344 557.621094 701.59375 C 603.3125 702.671875 646.019531 698.015625 690.09375 679.945313 Z M 201.914063 679.277344 C 269.570313 679.277344 333.757813 679.277344 400.035156 679.277344 C 363.484375 641.871094 362.472656 600.378906 382.34375 552.101563 C 354.269531 572.085938 343.441406 597.808594 330.941406 622.515625 C 328.042969 628.25 322.113281 632.464844 317.578125 637.371094 C 312.914063 630.757813 304.09375 623.9375 304.414063 617.566406 C 305.191406 601.828125 307.808594 585.308594 313.914063 570.894531 C 328.277344 536.988281 358.34375 520.078125 392.628906 507.859375 C 347.542969 492.992188 304.601563 478.835938 257.828125 463.414063 C 265.335938 543.785156 234.386719 611 201.914063 679.277344 Z M 491.355469 590.535156 C 491.671875 606.9375 468.121094 625.34375 448.515625 624.265625 C 434.363281 623.492188 424.5625 616.265625 423.914063 601.351563 C 423.1875 584.601563 444.035156 568.257813 464.34375 568.566406 C 478.949219 569.023438 491.035156 573.300781 491.355469 590.535156 Z M 440.128906 519.421875 C 435.269531 519.820313 430.257813 522.328125 425.964844 524.921875 C 398.09375 541.777344 379.558594 588.136719 386.894531 621.851563 C 394.878906 658.515625 423.644531 684.371094 461.480469 689.09375 C 476.007813 690.902344 490.578125 692.558594 504.984375 695.113281 C 545.09375 702.238281 577.386719 675.152344 577.570313 633.851563 C 577.542969 560.484375 494.242188 514.992188 440.128906 519.421875 Z M 780.34375 487.964844 C 783.742188 475.007813 792.636719 474.464844 799.5625 481.75 C 806.449219 488.992188 814.765625 500.828125 813.3125 509.035156 C 806.628906 546.949219 783.605469 575.242188 750.878906 597.285156 C 760.734375 560.859375 770.757813 524.472656 780.34375 487.964844 Z M 754.25 647.828125 C 818.808594 604.523438 863.984375 549.816406 856.285156 465.765625 C 854.984375 451.566406 858 434.320313 835.851563 433.863281 C 806.421875 433.257813 775.070313 418.1875 749.085938 444.808594 C 748.121094 445.792969 747.878906 447.472656 747.230469 448.785156 C 734.851563 473.800781 722.027344 498.613281 710.164063 523.871094 C 687.441406 572.242188 685.371094 622.273438 698.855469 678.195313 C 719.035156 667.242188 737.613281 658.984375 754.25 647.828125 Z M 182.421875 309.015625 C 181.9375 324.179688 166.464844 333.863281 142.136719 333.136719 C 110.136719 332.179688 124.179688 304.863281 119.527344 289.664063 C 114.015625 271.636719 130.464844 273.628906 141.9375 273.292969 C 167.164063 273.335938 183.113281 287.414063 182.421875 309.015625 Z M 173.199219 384.4375 C 210.128906 378.292969 241.292969 345.328125 241.707031 311.9375 C 242.214844 271.058594 212.800781 234.035156 174.386719 226.179688 C 157.929688 222.8125 141.300781 219.234375 125.601563 213.449219 C 107.113281 206.636719 95.800781 214.714844 87.144531 228.84375 C 81.84375 237.492188 78.507813 247.421875 74.828125 256.984375 C 65.835938 280.371094 50.972656 295.144531 21.800781 291.449219 C 51.542969 339.972656 39.128906 390.230469 32.433594 438.792969 C 76.335938 433.871094 117.128906 429.300781 158.4375 424.679688 C 153.378906 413.285156 148.484375 402.257813 142.898438 389.671875 C 154.808594 387.609375 164 385.964844 173.199219 384.4375 Z M 412.394531 329.949219 C 422.984375 348.863281 435.234375 367.058594 443.808594 386.851563 C 458.664063 421.144531 472.144531 456.113281 484.386719 491.429688 C 490.3125 508.515625 502.835938 503.609375 513.015625 502.222656 C 517.941406 501.550781 525.628906 492.242188 525.429688 487.101563 C 522.019531 400.078125 523.191406 313.769531 557.300781 232.136719 C 520.421875 194.386719 472.636719 209.128906 427.722656 201.734375 C 463.101563 255.898438 478.484375 315.535156 488.164063 377.34375 C 446.136719 322.671875 420.101563 259.648438 395.222656 196.035156 C 372 203.6875 351.285156 210.5 330.179688 217.449219 C 330.179688 220.285156 329.734375 222.515625 330.265625 224.476563 C 331.785156 230.136719 333.742188 235.679688 335.441406 241.285156 C 357.65625 314.558594 378.707031 387.914063 364.441406 466.042969 C 363.484375 471.292969 368.386719 481.84375 372.605469 483.109375 C 399.285156 491.128906 426.535156 497.222656 455.980469 504.542969 C 443.664063 472.238281 431.792969 445.40625 423.277344 417.550781 C 414.835938 389.921875 409.769531 361.257813 403.230469 333.042969 C 406.285156 332.015625 409.34375 330.976563 412.394531 329.949219 Z M 564.964844 251.9375 C 535.964844 326.664063 539.492188 404.851563 540.769531 482.757813 C 540.992188 496.316406 550.671875 496.550781 559.492188 492.765625 C 580.179688 483.894531 600.328125 473.765625 620.429688 464.273438 C 594.507813 395.371094 590.835938 372.871094 602.371094 347.5625 C 644.085938 369.773438 650.605469 405.765625 643.242188 446.550781 C 678.550781 435.9375 712.519531 425.730469 746.84375 415.40625 C 733.519531 397.085938 721.25 376.945313 705.714844 359.742188 C 690.015625 342.363281 671.085938 327.914063 652.777344 311.472656 C 666 302.34375 681.621094 293.742188 694.570313 282.148438 C 718.5625 260.671875 743.386719 239.378906 763.5625 214.515625 C 799.835938 169.820313 808.871094 118.257813 789.898438 63.1875 C 774.40625 18.230469 725.394531 -8.507813 680.398438 2.449219 C 643.230469 11.507813 614.820313 57.9375 619.992188 101.519531 C 622.613281 123.601563 636.535156 137.199219 655.894531 145.050781 C 672.105469 151.628906 688.207031 149.371094 700.300781 135.808594 C 712.691406 121.898438 710.472656 106.519531 699.199219 95.015625 C 693.90625 91.714844 688.621094 88.414063 683.328125 85.113281 C 688.886719 81.507813 694.605469 74.792969 699.957031 75.070313 C 707.09375 75.441406 716.429688 79.507813 720.386719 85.113281 C 728.234375 96.230469 735.75 108.894531 738.628906 121.964844 C 747.441406 161.929688 729.457031 195.265625 707.09375 226 C 682.035156 260.4375 650.558594 287.894531 612.765625 307.265625 C 611.113281 305.898438 609.472656 304.535156 607.820313 303.171875 C 618.257813 287.25 628.691406 271.328125 637.835938 257.386719 C 616.601563 252.421875 594.84375 247.335938 570.105469 241.550781 C 568.742188 244.277344 566.5 247.972656 564.964844 251.9375 Z M 0 579.550781 C 4.851563 550.820313 10.914063 522.230469 14.199219 493.320313 C 17.335938 465.75 31.683594 453.5 58.226563 447.480469 C 116.515625 434.265625 173.363281 440.050781 230.265625 454 C 241.777344 456.820313 247.871094 462.472656 246.230469 475.59375 C 241.800781 510.914063 238.15625 546.335938 234.207031 581.722656 C 232.300781 581.492188 230.394531 581.257813 228.484375 581.027344 C 219.742188 564.664063 213.828125 545.621094 201.519531 532.628906 C 186.414063 516.671875 166.984375 503.800781 147.351563 493.59375 C 138.992188 489.25 120.851563 490.9375 115.1875 497.179688 C 106.585938 506.65625 101.820313 522.566406 102.144531 535.570313 C 102.25 540.066406 122.429688 547.464844 133.386719 547.371094 C 144.984375 547.277344 156.519531 539.84375 170.113281 534.871094 C 174.679688 569.578125 179.222656 604.085938 183.992188 640.328125 C 166.707031 628.300781 150.957031 616.222656 134.007813 606.15625 C 128.070313 602.628906 119.191406 604.066406 111.65625 603.230469 C 111.121094 611.394531 107.394531 621.242188 110.648438 627.40625 C 120.84375 646.699219 133.664063 664.601563 146.449219 684.566406 C 111.113281 689.023438 74.566406 694.257813 37.835938 697.558594 C 32.566406 698.027344 23.09375 690.171875 21.328125 684.402344 C 14.707031 662.773438 10.429688 640.421875 5.378906 618.316406 C 3.441406 609.84375 1.785156 601.300781 0 592.792969 C 0 588.386719 0 583.972656 0 579.550781 "/>
</g>
</g>
</svg>
