<?xml version="1.0" encoding="UTF-8"?>
<svg xmlns="http://www.w3.org/2000/svg" xmlns:xlink="http://www.w3.org/1999/xlink" width="360.87pt" height="350.14pt" viewBox="0 0 360.87 350.14" version="1.1">
<defs>
<clipPath id="clip1">
  <path d="M 0 320 L 38 320 L 38 350.140625 L 0 350.140625 Z M 0 320 "/>
</clipPath>
<clipPath id="clip2">
  <path d="M 40 320 L 84 320 L 84 350.140625 L 40 350.140625 Z M 40 320 "/>
</clipPath>
<clipPath id="clip3">
  <path d="M 274 320 L 319 320 L 319 350.140625 L 274 350.140625 Z M 274 320 "/>
</clipPath>
<clipPath id="clip4">
  <path d="M 87 320 L 127 320 L 127 350.140625 L 87 350.140625 Z M 87 320 "/>
</clipPath>
<clipPath id="clip5">
  <path d="M 321 320 L 360.871094 320 L 360.871094 350.140625 L 321 350.140625 Z M 321 320 "/>
</clipPath>
<clipPath id="clip6">
  <path d="M 133 320 L 142 320 L 142 350.140625 L 133 350.140625 Z M 133 320 "/>
</clipPath>
<clipPath id="clip7">
  <path d="M 149 319 L 189 319 L 189 350.140625 L 149 350.140625 Z M 149 319 "/>
</clipPath>
<clipPath id="clip8">
  <path d="M 194 319 L 233 319 L 233 350.140625 L 194 350.140625 Z M 194 319 "/>
</clipPath>
<clipPath id="clip9">
  <path d="M 240 319 L 272 319 L 272 350.140625 L 240 350.140625 Z M 240 319 "/>
</clipPath>
</defs>
<g id="surface1">
<path style=" stroke:none;fill-rule:nonzero;fill:rgb(4.299927%,2.398682%,4.699707%);fill-opacity:1;" d="M 28.992188 17.851563 L 28.992188 45.3125 C 28.992188 53.34375 20.773438 51.660156 20.773438 51.660156 L 20.398438 11.6875 C 29.820313 11.664063 28.992188 17.851563 28.992188 17.851563 M 43.75 106.578125 C 43.9375 99.855469 43.5625 70.714844 43.5625 70.714844 C 43.5625 70.714844 43.75 60.066406 35.902344 57.824219 C 40.574219 56.144531 43.375 49.609375 43.375 44.191406 L 43.375 16.546875 C 43.375 16.546875 42.816406 0.292969 27.3125 0.292969 L 5.949219 -0.00390625 L 5.949219 119.394531 L 20.378906 119.394531 L 20.378906 63.570313 L 25.070313 63.570313 C 25.070313 63.570313 28.804688 62.871094 28.992188 69.40625 C 29.179688 75.945313 28.992188 106.953125 28.992188 106.953125 C 28.992188 106.953125 29.738281 116.855469 31.046875 118.71875 L 46.738281 118.71875 C 46.738281 118.71875 43.5625 113.300781 43.75 106.578125 "/>
<path style=" stroke:none;fill-rule:nonzero;fill:rgb(4.299927%,2.398682%,4.699707%);fill-opacity:1;" d="M 63.546875 83.605469 L 69.339844 19.535156 L 73.636719 83.605469 Z M 82.414063 0.480469 L 57.757813 0.480469 L 47.859375 118.71875 L 60.558594 118.71875 L 62.988281 94.4375 L 74.382813 94.4375 L 76.4375 118.90625 L 90.261719 118.90625 "/>
<path style=" stroke:none;fill-rule:nonzero;fill:rgb(4.299927%,2.398682%,4.699707%);fill-opacity:1;" d="M 282.46875 83.605469 L 288.261719 19.535156 L 292.554688 83.605469 Z M 301.335938 0.480469 L 276.679688 0.480469 L 266.78125 118.71875 L 279.480469 118.71875 L 281.910156 94.4375 L 293.304688 94.4375 L 295.359375 118.90625 L 309.179688 118.90625 "/>
<path style=" stroke:none;fill-rule:nonzero;fill:rgb(4.299927%,2.398682%,4.699707%);fill-opacity:1;" d="M 115.289063 17.664063 C 115.289063 17.664063 114.171875 90.140625 114.171875 99.667969 C 114.171875 109.195313 106.136719 106.765625 106.136719 106.765625 L 107.445313 12.808594 C 116.226563 13.183594 115.289063 17.664063 115.289063 17.664063 M 113.421875 0.855469 L 92.875 0.855469 L 92.875 119.28125 L 113.050781 119.28125 C 113.050781 119.28125 127.992188 120.960938 128.550781 102.28125 C 129.113281 83.605469 130.046875 18.226563 130.046875 18.226563 C 130.046875 18.226563 131.726563 0.855469 113.421875 0.855469 "/>
<path style=" stroke:none;fill-rule:nonzero;fill:rgb(4.299927%,2.398682%,4.699707%);fill-opacity:1;" d="M 333.277344 17.664063 C 333.277344 17.664063 332.15625 90.140625 332.15625 99.667969 C 332.15625 109.195313 324.125 106.765625 324.125 106.765625 L 325.429688 12.808594 C 334.210938 13.183594 333.277344 17.664063 333.277344 17.664063 M 331.410156 0.855469 L 310.863281 0.855469 L 310.863281 119.28125 L 331.035156 119.28125 C 331.035156 119.28125 345.980469 120.960938 346.539063 102.28125 C 347.097656 83.605469 348.035156 18.226563 348.035156 18.226563 C 348.035156 18.226563 349.714844 0.855469 331.410156 0.855469 "/>
<path style=" stroke:none;fill-rule:nonzero;fill:rgb(4.299927%,2.398682%,4.699707%);fill-opacity:1;" d="M 132.660156 119.277344 L 146.671875 119.277344 L 146.671875 0.851563 L 132.660156 0.851563 Z M 132.660156 119.277344 "/>
<path style=" stroke:none;fill-rule:nonzero;fill:rgb(4.299927%,2.398682%,4.699707%);fill-opacity:1;" d="M 167.78125 107.511719 C 163.855469 107.511719 164.230469 102.84375 164.230469 102.84375 L 164.230469 19.722656 C 164.230469 19.722656 163.855469 13.929688 167.964844 13.929688 C 172.074219 13.929688 172.074219 19.347656 172.074219 19.347656 L 171.703125 102.46875 C 171.703125 102.46875 172.261719 107.511719 167.78125 107.511719 M 172.449219 0.667969 L 164.414063 0.667969 C 164.414063 0.667969 149.472656 -0.824219 148.726563 20.46875 L 149.472656 103.027344 C 149.472656 103.027344 148.914063 120.589844 163.484375 120.589844 L 173.195313 120.589844 C 173.195313 120.589844 185.898438 120.960938 186.273438 103.964844 C 186.644531 86.964844 186.832031 17.664063 186.832031 17.664063 C 186.832031 17.664063 187.953125 1.601563 172.449219 0.667969 "/>
<path style=" stroke:none;fill-rule:nonzero;fill:rgb(4.299927%,2.398682%,4.699707%);fill-opacity:1;" d="M 211.304688 1.039063 L 211.304688 51.101563 L 203.457031 51.101563 L 203.457031 1.039063 L 189.445313 1.039063 L 189.445313 119.65625 L 203.457031 119.65625 L 203.457031 64.363281 L 211.304688 64.363281 L 211.304688 119.65625 L 225.3125 119.65625 L 225.3125 1.039063 "/>
<path style=" stroke:none;fill-rule:nonzero;fill:rgb(4.299927%,2.398682%,4.699707%);fill-opacity:1;" d="M 264.351563 13.183594 L 264.351563 0.292969 L 233.53125 0.292969 L 233.53125 119.652344 L 264.351563 119.652344 L 264.351563 106.765625 L 247.351563 106.765625 L 247.351563 64.175781 L 261.363281 64.175781 L 261.363281 51.289063 L 247.351563 51.289063 L 247.351563 13.183594 "/>
<path style=" stroke:none;fill-rule:nonzero;fill:rgb(5.099487%,3.09906%,5.899048%);fill-opacity:1;" d="M 224.527344 230.636719 C 223.679688 229.363281 221.167969 226.160156 221.167969 226.160156 C 221.167969 226.160156 229.507813 218.964844 227.871094 209.074219 C 226.316406 199.675781 219.015625 191.097656 205.226563 195.339844 C 196.726563 198.449219 194.828125 207.300781 194.828125 207.300781 C 194.828125 207.300781 209.464844 215.785156 211.796875 220.664063 C 206.070313 218.546875 185.703125 217.695313 181.039063 236.152344 C 176.585938 217.0625 155.371094 218.546875 148.367188 220.878906 C 151.550781 217.273438 162.582031 209.210938 167.671875 207.515625 C 167.671875 207.515625 163.855469 196.695313 155.371094 194.363281 C 146.882813 192.027344 133.730469 196.484375 132.882813 211.121094 C 132.667969 220.242188 140.304688 225.335938 140.304688 225.335938 C 140.304688 225.335938 138.183594 228.515625 137.335938 230.425781 C 137.335938 230.425781 126.941406 221.726563 127.152344 210.90625 C 127.367188 200.089844 133.09375 194.363281 136.488281 191.816406 C 139.882813 189.269531 160.460938 179.085938 173.402344 206.664063 L 188.253906 206.664063 C 188.253906 206.664063 192.070313 192.664063 201.617188 189.269531 C 211.160156 185.875 221.132813 188.632813 226.648438 193.726563 C 232.164063 198.816406 241.285156 213.878906 224.527344 230.636719 M 223.261719 262.089844 C 223.527344 262.355469 217.335938 262.304688 217.335938 262.304688 C 222.625 260.082031 224.53125 254.578125 224.53125 254.578125 C 224.847656 257.433594 222.996094 261.828125 223.261719 262.089844 M 218.21875 274.890625 C 215.890625 271.183594 212.925781 266.105469 212.609375 266.105469 C 212.609375 266.105469 221.710938 266.320313 222.027344 266.320313 C 222.402344 266.320313 220.96875 271.613281 218.21875 274.890625 M 199.175781 205.96875 C 199.175781 205.96875 200.484375 200.738281 207.925781 198.691406 C 223.210938 196.074219 224.453125 207.847656 224.355469 211.855469 C 224.273438 215.203125 222.558594 219.210938 219.121094 222.644531 C 213.074219 212.835938 199.175781 205.96875 199.175781 205.96875 M 223.914063 242.40625 C 224.550781 257.117188 207.402344 262.726563 207.402344 262.726563 L 207.296875 223.460938 C 209.203125 223.5625 223.277344 227.695313 223.914063 242.40625 M 202.660156 289.710938 L 209.222656 268.753906 C 209.222656 268.753906 214.40625 275.101563 214.726563 279.652344 C 212.289063 283.144531 207.316406 287.167969 202.660156 289.710938 M 192.710938 266 L 206.046875 266 L 199.484375 286.851563 Z M 183.289063 294.683594 L 190.171875 272.140625 L 196.625 291.507813 C 196.625 291.507813 191.546875 295 183.289063 294.683594 M 173.921875 266.050781 L 187.257813 265.949219 L 180.21875 290.023438 Z M 165.191406 292.25 C 165.191406 292.25 167.414063 281.242188 171.222656 273.300781 C 174.1875 282.195313 177.046875 294.789063 177.046875 294.789063 C 177.046875 294.789063 168.578125 294.898438 165.191406 292.25 M 160.941406 262.726563 L 160.832031 223.460938 C 162.738281 223.5625 176.816406 227.695313 177.449219 242.40625 C 178.085938 257.117188 160.941406 262.726563 160.941406 262.726563 M 184.03125 242.40625 C 184.664063 227.695313 198.742188 223.5625 200.648438 223.460938 L 200.542969 262.726563 C 200.542969 262.726563 183.394531 257.117188 184.03125 242.40625 M 189.214844 262.089844 L 171.753906 262.089844 C 178.949219 258.28125 180.644531 248.96875 180.644531 248.96875 C 181.808594 257.328125 189.214844 262.089844 189.214844 262.089844 M 155.453125 266.105469 C 155.453125 266.105469 166.25 265.894531 168.472656 266 C 167.625 270.867188 162.015625 286.003906 162.015625 286.003906 C 162.015625 286.003906 155.773438 266.105469 155.453125 266.105469 M 145.609375 278.804688 L 151.855469 269.707031 C 151.855469 269.707031 155.242188 277.960938 158.417969 289.601563 C 148.679688 285.476563 145.609375 278.804688 145.609375 278.804688 M 139.261719 265.894531 L 149.210938 265.789063 C 149.210938 265.789063 145.292969 271.925781 143.070313 275.738281 C 141.378906 273.09375 139.261719 265.894531 139.261719 265.894531 M 137.335938 208.785156 C 137.972656 204.121094 145.050781 194.261719 156.316406 198.765625 C 161.046875 201.171875 162.476563 205.523438 162.476563 205.523438 C 162.476563 205.523438 147.136719 215.671875 142.046875 221.824219 C 138.4375 219.066406 136.699219 213.453125 137.335938 208.785156 M 154.183594 223.460938 L 154.074219 262.726563 C 154.074219 262.726563 136.929688 257.117188 137.566406 242.40625 C 138.199219 227.695313 152.277344 223.5625 154.183594 223.460938 M 138.308594 262.089844 C 138.574219 261.828125 136.71875 257.433594 137.039063 254.578125 C 137.039063 254.578125 138.945313 260.082031 144.234375 262.304688 C 144.234375 262.304688 138.042969 262.355469 138.308594 262.089844 M 231.105469 193.300781 C 221.539063 182.777344 208.3125 181.832031 198.222656 186.9375 C 188.929688 191.632813 185.917969 203.484375 185.917969 203.484375 L 175.945313 203.484375 C 170.835938 192.578125 161.976563 185.039063 151.339844 184.390625 C 139.011719 183.640625 124.742188 192.398438 123.335938 208.152344 C 122.015625 222.925781 135.003906 233.183594 135.003906 233.183594 C 133.09375 242.941406 125.246094 298.582031 180.191406 298.582031 C 235.132813 298.582031 229.40625 242.730469 226.433594 233.183594 C 239.257813 222.546875 241.398438 204.625 231.105469 193.300781 "/>
<g clip-path="url(#clip1)" clip-rule="nonzero">
<path style=" stroke:none;fill-rule:nonzero;fill:rgb(3.49884%,1.599121%,4.299927%);fill-opacity:1;" d="M 24.058594 333.777344 L 9.238281 333.777344 L 9.382813 326.316406 C 9.382813 326.316406 22.617188 326.367188 23.773438 326.367188 C 24.925781 326.367188 28.488281 326.367188 28.488281 330.023438 C 28.488281 333.96875 24.058594 333.777344 24.058594 333.777344 M 32.335938 337.242188 C 38.113281 335.125 37.824219 329.445313 37.824219 329.445313 C 37.824219 319.339844 25.984375 320.398438 25.984375 320.398438 L 0 320.398438 L 0 349.945313 L 8.855469 350.042969 L 8.855469 343.210938 C 8.855469 339.746094 12.898438 340.03125 12.898438 340.03125 L 21.363281 340.03125 C 29.261719 340.03125 27.910156 350.042969 27.910156 350.042969 L 37.246094 350.042969 L 37.246094 344.171875 C 37.246094 341.1875 35.707031 338.300781 32.335938 337.242188 "/>
</g>
<g clip-path="url(#clip2)" clip-rule="nonzero">
<path style=" stroke:none;fill-rule:nonzero;fill:rgb(3.49884%,1.599121%,4.299927%);fill-opacity:1;" d="M 55.152344 338.203125 L 61.886719 326.65625 L 68.335938 338.203125 Z M 68.429688 320.496094 L 55.824219 320.496094 L 40.328125 350.042969 L 49.664063 350.140625 L 52.550781 344.265625 L 71.800781 344.265625 L 74.785156 349.753906 L 83.832031 349.753906 "/>
</g>
<g clip-path="url(#clip3)" clip-rule="nonzero">
<path style=" stroke:none;fill-rule:nonzero;fill:rgb(3.49884%,1.599121%,4.299927%);fill-opacity:1;" d="M 289.726563 338.203125 L 296.460938 326.65625 L 302.910156 338.203125 Z M 303.003906 320.496094 L 290.398438 320.496094 L 274.902344 350.042969 L 284.238281 350.140625 L 287.128906 344.265625 L 306.375 344.265625 L 309.359375 349.753906 L 318.40625 349.753906 "/>
</g>
<g clip-path="url(#clip4)" clip-rule="nonzero">
<path style=" stroke:none;fill-rule:nonzero;fill:rgb(3.49884%,1.599121%,4.299927%);fill-opacity:1;" d="M 110.207031 343.980469 L 97.117188 343.980469 L 97.214844 326.269531 C 96.925781 326.464844 109.726563 326.367188 109.726563 326.367188 C 109.726563 326.367188 117.90625 325.980469 117.90625 334.453125 C 117.90625 344.367188 110.207031 343.980469 110.207031 343.980469 M 108.765625 320.015625 L 87.878906 320.015625 L 87.878906 350.042969 L 110.015625 350.042969 C 110.015625 350.042969 126.855469 351.101563 126.855469 335.316406 C 126.855469 319.53125 114.25 320.015625 108.765625 320.015625 "/>
</g>
<g clip-path="url(#clip5)" clip-rule="nonzero">
<path style=" stroke:none;fill-rule:nonzero;fill:rgb(3.49884%,1.599121%,4.299927%);fill-opacity:1;" d="M 344.21875 343.980469 L 331.128906 343.980469 L 331.222656 326.269531 C 330.933594 326.464844 343.734375 326.367188 343.734375 326.367188 C 343.734375 326.367188 351.914063 325.980469 351.914063 334.453125 C 351.914063 344.367188 344.21875 343.980469 344.21875 343.980469 M 342.773438 320.015625 L 321.886719 320.015625 L 321.886719 350.042969 L 344.023438 350.042969 C 344.023438 350.042969 360.867188 351.101563 360.867188 335.316406 C 360.867188 319.53125 348.257813 320.015625 342.773438 320.015625 "/>
</g>
<g clip-path="url(#clip6)" clip-rule="nonzero">
<path style=" stroke:none;fill-rule:nonzero;fill:rgb(3.49884%,1.599121%,4.299927%);fill-opacity:1;" d="M 133.597656 350.140625 L 141.683594 350.140625 L 141.683594 320.015625 L 133.597656 320.015625 Z M 133.597656 350.140625 "/>
</g>
<g clip-path="url(#clip7)" clip-rule="nonzero">
<path style=" stroke:none;fill-rule:nonzero;fill:rgb(3.49884%,1.599121%,4.299927%);fill-opacity:1;" d="M 178.644531 331.179688 L 178.644531 338.6875 C 178.644531 340.515625 177.585938 343.882813 167.960938 343.882813 C 158.335938 343.882813 158.335938 339.359375 158.335938 339.359375 L 158.335938 332.042969 C 158.335938 324.632813 167.960938 325.117188 167.960938 325.117188 C 178.933594 325.117188 178.644531 331.179688 178.644531 331.179688 M 167.960938 319.726563 C 167.960938 319.726563 149.191406 318.953125 149.191406 331.464844 L 149.191406 339.070313 C 149.191406 339.070313 148.136719 350.042969 167.960938 350.042969 C 167.960938 350.042969 188.269531 351.003906 188.269531 339.648438 L 188.269531 331.371094 C 188.269531 331.371094 189.328125 319.726563 167.960938 319.726563 "/>
</g>
<g clip-path="url(#clip8)" clip-rule="nonzero">
<path style=" stroke:none;fill-rule:nonzero;fill:rgb(3.49884%,1.599121%,4.299927%);fill-opacity:1;" d="M 224.078125 319.820313 L 224.078125 330.796875 L 203 330.796875 L 203 319.820313 L 194.339844 319.820313 L 194.339844 350.140625 L 203 350.140625 L 203 337.820313 L 224.078125 337.820313 L 224.078125 350.140625 L 232.738281 350.140625 L 232.738281 319.820313 "/>
</g>
<g clip-path="url(#clip9)" clip-rule="nonzero">
<path style=" stroke:none;fill-rule:nonzero;fill:rgb(3.49884%,1.599121%,4.299927%);fill-opacity:1;" d="M 271.628906 326.269531 L 271.628906 319.726563 L 240.539063 319.726563 L 240.539063 350.140625 L 249.203125 350.140625 L 249.203125 350.132813 L 271.628906 350.132813 L 271.628906 343.121094 L 249.203125 343.121094 L 249.203125 336.515625 L 269.804688 336.515625 L 269.804688 332.128906 L 249.203125 332.128906 L 249.203125 326.269531 "/>
</g>
</g>
</svg>
