<?xml version="1.0" encoding="UTF-8" standalone="no"?>
<!DOCTYPE svg PUBLIC "-//W3C//DTD SVG 20010904//EN" "http://www.w3.org/TR/2001/REC-SVG-20010904/DTD/svg10.dtd">
<svg version="1.0" xmlns="http://www.w3.org/2000/svg" width="900.000000pt" height="162.000000pt" viewBox="0 0 900.000000 162.000000" preserveAspectRatio="xMidYMid meet">
<metadata>
Created by potrace 1.10, written by Peter Selinger 2001-2011
</metadata>
<g transform="translate(0.000000,162.000000) scale(0.100000,-0.100000)" fill="#000000" stroke="none">
<path d="M0 810 l0 -810 4500 0 4500 0 0 810 0 810 -4500 0 -4500 0 0 -810z m2334 454 c9 -23 7 -117 -2 -132 -6 -9 -35 -12 -108 -10 l-99 3 -3 64 c-2 35 -1 70 2 77 8 22 202 20 210 -2z m2571 -54 l0 -45 -42 -3 -43 -3 0 44 c0 53 5 59 50 55 34 -3 35 -4 35 -48z m1153 -12 c7 -7 12 -38 12 -69 0 -64 9 -76 60 -81 31 -3 35 -6 35 -33 0 -28 -3 -30 -45 -35 l-45 -5 -3 -184 c-2 -127 1 -188 9 -197 6 -8 27 -14 45 -14 28 0 35 -5 40 -25 3 -14 4 -31 1 -39 -7 -18 -81 -29 -127 -18 -58 13 -65 38 -67 265 -2 109 -5 203 -8 208 -4 5 -19 9 -35 9 -30 0 -44 21 -35 51 4 11 16 19 29 19 34 0 50 25 47 76 -3 57 12 84 47 84 16 0 33 -5 40 -12z m-5321 -147 c50 -25 93 -78 93 -114 0 -26 -1 -26 -77 -29 -76 -3 -133 11 -133 32 0 5 -15 12 -34 15 -44 9 -78 -9 -74 -38 3 -23 27 -33 178 -74 100 -27 148 -62 174 -128 8 -19 9 -18 20 7 30 70 82 94 260 123 55 9 106 21 113 27 35 29 -2 78 -59 78 -32 0 -45 -6 -66 -30 -26 -30 -28 -30 -125 -30 -109 0 -119 6 -97 63 19 46 48 75 100 99 39 19 63 22 190 22 130 0 149 -2 185 -22 52 -28 70 -43 78 -64 3 -10 12 -18 18 -18 8 0 10 14 6 44 -5 34 -3 45 9 50 24 9 150 7 176 -3 24 -9 23 -6 95 -256 11 -40 40 -45 48 -8 5 27 13 54 52 191 22 77 34 84 142 80 l76 -3 -1 -35 c-1 -19 -7 -51 -14 -70 -30 -81 -40 -110 -70 -210 -17 -58 -38 -120 -46 -138 -8 -18 -14 -41 -14 -50 0 -10 -7 -28 -16 -40 -14 -21 -22 -22 -134 -22 -132 0 -132 0 -151 75 -4 16 -24 75 -44 130 -20 55 -40 114 -45 130 -4 17 -14 46 -21 65 -6 19 -13 41 -15 48 -2 6 -8 12 -14 12 -14 0 -14 -416 0 -425 6 -3 10 -13 10 -21 0 -11 -21 -14 -110 -14 -100 0 -110 2 -120 21 -11 19 -13 19 -35 5 -71 -47 -198 -62 -265 -33 -45 20 -85 64 -95 102 l-7 30 -41 -46 c-56 -61 -66 -67 -128 -83 -114 -29 -181 -28 -298 4 -54 14 -116 77 -126 127 -9 47 1 53 98 53 82 0 117 -11 117 -36 0 -8 15 -21 33 -30 30 -14 37 -14 70 0 26 10 37 21 37 36 0 24 -53 60 -90 60 -30 0 -138 33 -179 55 -108 55 -109 204 -3 271 57 37 93 43 222 40 84 -3 114 -8 147 -25z m1594 -3 c5 -7 8 -132 6 -278 l-2 -265 -107 -3 -108 -3 0 280 c0 176 4 281 10 283 5 2 51 2 101 1 64 -1 95 -6 100 -15z m236 16 c12 -3 26 -19 32 -35 l10 -29 53 35 c48 32 59 35 126 35 96 0 138 -21 186 -95 17 -26 19 -51 20 -249 l1 -221 -107 -3 -108 -3 0 166 c0 186 -8 219 -58 230 -39 8 -80 -10 -92 -40 -6 -15 -10 -95 -10 -179 0 -119 -3 -156 -14 -165 -9 -8 -48 -11 -112 -9 l-99 3 -3 273 -2 273 22 9 c26 10 122 13 155 4z m803 -14 c22 -11 40 -25 40 -30 0 -6 7 -10 15 -10 8 0 15 9 15 20 0 28 30 40 100 40 107 0 100 22 100 -303 -1 -298 -7 -346 -47 -404 -32 -44 -85 -68 -184 -83 -97 -14 -193 -3 -261 31 -40 20 -84 72 -90 104 -3 19 3 20 103 23 85 2 108 0 119 -13 8 -10 30 -15 66 -15 49 0 55 2 64 26 6 14 10 41 10 60 0 38 -20 45 -54 19 -14 -10 -45 -15 -98 -15 -117 0 -173 37 -233 154 -28 55 -28 193 0 256 27 64 71 117 114 140 51 27 168 27 221 0z m958 1 c48 -24 88 -65 115 -116 19 -34 21 -57 21 -160 0 -106 -2 -125 -23 -163 -54 -98 -161 -148 -264 -122 -29 7 -59 18 -67 25 -8 7 -25 16 -37 19 -22 7 -22 6 -25 -115 -3 -134 -10 -148 -62 -135 l-26 6 2 378 3 377 37 3 c33 3 38 0 44 -22 8 -31 14 -32 47 -6 69 55 164 67 235 31z m456 -19 c12 -42 1 -52 -75 -75 -90 -27 -93 -36 -99 -262 l-5 -190 -42 -3 c-26 -2 -43 1 -43 7 0 6 0 124 0 261 0 138 0 257 0 266 0 24 70 15 84 -11 6 -11 12 -22 14 -24 1 -3 12 5 25 17 33 31 79 53 107 50 18 -2 27 -11 34 -36z m999 17 c24 -12 53 -35 65 -53 21 -30 22 -43 22 -218 0 -156 3 -189 16 -202 8 -9 22 -16 30 -16 11 0 14 -9 12 -32 -3 -33 -4 -33 -54 -33 -44 1 -55 5 -76 30 l-26 29 -33 -25 c-122 -91 -303 -45 -323 82 -17 109 29 175 143 202 38 10 92 17 120 17 70 0 101 21 101 68 0 23 -8 44 -22 59 -19 20 -31 23 -95 23 -87 0 -110 -10 -129 -56 -13 -31 -18 -34 -54 -34 -45 0 -51 15 -26 73 29 70 99 105 208 106 60 1 88 -4 121 -20z m758 -7 c33 -17 64 -43 80 -67 30 -44 52 -131 47 -185 l-3 -35 -192 -5 c-105 -3 -195 -9 -199 -13 -4 -4 -2 -29 4 -55 23 -89 115 -139 197 -107 44 16 70 39 89 78 8 16 22 23 49 25 35 3 37 2 37 -28 0 -61 -67 -132 -146 -155 -190 -55 -334 66 -334 281 0 178 98 292 251 294 54 0 77 -5 120 -28z m683 22 c11 -4 16 -19 16 -44 0 -38 0 -39 -57 -55 -109 -32 -116 -46 -123 -275 l-5 -185 -40 0 -40 0 -3 250 c-1 138 0 260 3 273 4 18 12 22 40 22 29 0 37 -5 45 -25 11 -28 28 -33 37 -10 6 18 70 54 95 55 9 0 23 -3 32 -6z m896 -17 c29 -14 52 -36 67 -62 21 -37 23 -52 23 -221 0 -186 4 -204 42 -204 10 0 22 -8 26 -17 4 -10 9 99 12 242 l5 260 32 3 c24 2 35 -2 45 -17 15 -24 36 -27 52 -7 17 21 92 46 139 46 64 0 143 -43 168 -91 18 -36 19 -56 17 -256 l-3 -218 -42 -3 -43 -3 0 190 c0 262 -12 291 -122 291 -58 0 -116 -30 -140 -73 -8 -14 -14 -87 -18 -212 l-5 -190 -33 -3 c-18 -2 -39 1 -45 6 -8 7 -18 6 -31 -4 -11 -8 -38 -14 -59 -14 -32 0 -46 7 -71 34 l-32 33 -35 -27 c-63 -49 -142 -61 -222 -34 -53 18 -77 43 -97 104 -18 53 -1 123 38 163 34 34 144 67 223 67 40 0 63 5 79 18 31 25 30 77 -3 110 -21 21 -33 24 -95 24 -83 0 -102 -9 -127 -56 -17 -32 -24 -36 -57 -36 -43 0 -48 14 -24 71 30 73 97 107 211 108 64 1 89 -4 125 -22z m-3215 -272 l0 -270 -42 -3 -43 -3 0 269 c0 148 3 272 7 276 4 4 23 6 43 4 l35 -3 0 -270z m124 261 c13 -15 47 -100 61 -151 13 -46 52 -157 76 -212 14 -34 32 -43 38 -20 2 6 16 48 30 92 15 44 31 94 36 110 10 37 27 85 51 145 16 42 20 45 58 48 38 3 41 1 41 -23 0 -15 -6 -41 -14 -58 -8 -18 -16 -41 -19 -52 -3 -11 -15 -45 -27 -75 -12 -30 -25 -66 -30 -80 -5 -14 -18 -50 -30 -80 -12 -30 -26 -71 -32 -90 -22 -76 -35 -90 -82 -90 -44 0 -59 9 -69 45 -6 20 -19 55 -57 155 -12 30 -26 71 -32 90 -5 19 -14 39 -19 45 -5 5 -9 17 -9 27 0 9 -6 32 -14 50 -40 95 -48 117 -42 127 10 16 72 13 85 -3z m2336 4 c8 -14 55 -139 65 -175 11 -39 29 -91 46 -133 8 -18 14 -41 14 -51 0 -10 7 -24 15 -31 20 -17 34 -4 45 41 5 19 25 79 45 134 20 55 40 114 44 130 4 17 15 45 25 63 14 28 22 32 56 32 38 0 40 -1 40 -33 0 -18 -6 -41 -14 -52 -7 -11 -16 -31 -19 -45 -3 -14 -15 -50 -26 -80 -40 -102 -52 -135 -61 -165 -4 -16 -18 -55 -30 -85 -12 -30 -25 -66 -30 -80 -4 -14 -12 -36 -18 -50 -5 -14 -18 -45 -28 -70 -10 -25 -27 -57 -38 -72 -20 -29 -81 -58 -120 -58 -30 0 -58 32 -54 62 2 19 11 24 43 28 51 7 61 14 81 52 20 39 14 105 -15 178 -13 30 -26 69 -31 85 -5 17 -18 55 -30 85 -42 110 -52 136 -59 165 -4 17 -13 40 -19 52 -7 12 -12 35 -12 52 0 29 2 31 39 31 22 0 43 -4 46 -10z"/>
<path d="M1179 721 c-57 -20 -79 -38 -79 -61 0 -30 25 -41 82 -38 52 3 54 4 75 46 36 72 14 87 -78 53z"/>
<path d="M3287 899 c-64 -37 -62 -204 2 -239 83 -44 146 38 127 165 -6 37 -13 50 -39 66 -35 21 -63 24 -90 8z"/>
<path d="M4108 944 c-58 -57 -78 -170 -48 -266 17 -55 36 -76 85 -99 53 -25 92 -23 140 4 64 36 85 84 85 196 0 77 -4 99 -21 127 -34 56 -68 74 -141 74 -61 0 -67 -2 -100 -36z"/>
<path d="M5685 755 c-27 -7 -65 -14 -83 -14 -18 -1 -46 -11 -62 -23 -25 -18 -30 -29 -30 -62 0 -46 5 -55 40 -79 51 -35 151 -9 203 53 24 28 28 40 25 84 -3 59 -11 62 -93 41z"/>
<path d="M6328 957 c-25 -21 -58 -85 -58 -113 0 -12 26 -14 148 -12 l147 3 -2 39 c-2 29 -11 49 -35 73 -30 31 -36 33 -102 33 -58 -1 -76 -5 -98 -23z"/>
<path d="M8015 755 c-27 -7 -66 -14 -85 -14 -54 -2 -85 -34 -85 -88 0 -82 71 -115 167 -76 79 32 107 81 99 181 -1 15 -30 14 -96 -3z"/>
</g>
</svg>