<?xml version="1.0" encoding="utf-8"?>
<!-- Generator: Adobe Illustrator 24.2.1, SVG Export Plug-In . SVG Version: 6.00 Build 0)  -->
<svg version="1.1" id="THE_BEATLES" xmlns="http://www.w3.org/2000/svg" xmlns:xlink="http://www.w3.org/1999/xlink" x="0px"
	 y="0px" viewBox="0 0 80.1660004 40.8930016" style="enable-background:new 0 0 80.1660004 40.8930016;" xml:space="preserve">
<path id="S" d="M79.211998,14.1740007l-1.6620026,3.5700006c-0.5410004-1.4120007-1.7740021-2.0139999-3.5579987-1.9120007
	c-1.1819992,0.0680008-2.6230011,1.0949993-2.6070023,2.7940006c0.0429993,1.5020008,0.8160019,2.2140007,4.5619965,4.164999
	c3.439003,1.8010006,4.2190018,3.8400002,4.2190018,5.9360008c0,3.6479988-2.4509964,6.3300018-6.8330002,6.3440018
	c-3.3600006-0.0139999-5.326004-1.8540001-5.326004-4.0939999c0.0019989-1.7619991,1.0009995-3.1070004,2.6829987-3.5079994
	c-0.6080017,0.7010002-0.6989975,1.5680008-0.7089996,1.9710007c0.0100021,1.1149998,0.6350021,3.0140018,3.3540039,3.0140018
	c1.560997,0,2.8000031-1.0289993,2.8000031-2.9529991c-0.012001-2.5470009-1.9459991-3.3419991-3.7229996-4.2460003
	c-1.1660004-0.5879993-4.4290009-2.3220005-4.4290009-6.3379993c-0.0039978-3.0540009,2.8119965-5.4300003,5.7809982-5.4470005
	C76.5179977,13.4520006,75.8160019,14.6950006,79.211998,14.1740007z"/>
<path id="E_1_" d="M58.8069992,16.1860008c-0.0159988-0.8559999-0.25-1.9449997-0.7700005-2.4309998
	c1.2130013,0,9.4340019,0.0050001,9.4449959,0.0050001l-0.5210037,3.6559992
	c-0.487999-0.5300007-1.0759964-1.2329998-1.814003-1.2329998c-0.7539978,0.0020008-2.3279991,0-2.3380013,0v5.9729996
	c0.0099983,0.0119991,1.2110023,0.0119991,1.8459969,0c0.6460037,0.0119991,1.2850037-0.1350002,1.9380035-0.7709999v4.0620003
	c-0.5469971-0.4330006-1.1880035-0.8279991-1.814003-0.8279991l-1.9690018-0.0020008v7.6009979
	c0.4899979,0.1529999,3.5619965-0.0209999,4.6760025-1.6609993l-0.6460037,4.0919991h-8.8950005
	c0.762001-0.637001,0.8479996-1.6459999,0.8610001-2.3979988V16.1860008H58.8069992z"/>
<path id="L" d="M49.3279991,16.1860008c0.0139999-0.8559999-0.2229996-1.9449997-0.7700005-2.4309998h5.5690002
	c-0.5299988,0.4849997-0.7369995,1.5749998-0.7369995,2.4309998v15.9710007
	c0.4790001,0.1689987,3.5489998-0.007,4.6780014-1.6609993l-0.7709999,4.1520004h-8.7999992
	c0.5239983-0.3180008,0.8450012-1.387001,0.8310013-2.4910011V16.1860008H49.3279991z"/>
<path id="T_1_" d="M47.8520012,13.7540007l0.6759987,4.1850004c-0.3829994-0.7329998-1.6780014-1.757-2.3689995-1.757
	l-1.1699982,0.0020008c-0.2789993,0-0.3930016,0.4969997-0.3930016,0.9839993
	c-0.007,0.8460007,0.1699982,19.4529972,0.2389984,20.6169987c0.0429993,1.1839981,0.6689987,2.6220016,1.1399994,3.1080017
	h-7.230999c0.4690018-0.4860001,1.0940018-1.927002,1.1389999-3.1080017
	c0.0690002-1.1640015,0.2410011-19.7709999,0.2410011-20.6170006c0.0060005-0.4869995-0.1139984-0.9869995-0.394001-0.9869995
	l-1.1699982,0.0020008c-0.6889992,0-1.9780006,0.9680004-2.3689995,1.7539997L36.868,13.7520008h10.9840012V13.7540007z"/>
<path id="A" d="M29.3260002,13.7540007c0.7520008,0.974,0.8589993,1.585,0.6469994,2.4310007l-3.5690002,16.0639992
	c-0.1569996,0.6990013-0.5289993,1.8149986-1.1690006,2.3969994h4.8610001
	c-0.7380009-0.5600014-0.9249992-1.4379997-0.7380009-2.3969994l0.5550003-2.3999996h3.9080009l0.5540009,2.309
	c0.1469994,0.5960007,0.0040016,2.0680008-0.6469994,2.4920006h5.5390015c-0.493-0.4239998-1.1339989-1.4389992-1.4160004-2.4319992
	l-3.446003-16.0010014c-0.2099991-0.8500004-0.1020012-1.4879999,0.6459999-2.4630003H29.3260002L29.3260002,13.7540007z
	 M33.3580017,27.5410004h-2.9230003l1.507-6.5550003L33.3580017,27.5410004z"/>
<path id="E_2_" d="M16.8029995,16.1860008c0.0130005-0.8559999-0.2220001-1.9449997-0.7700005-2.4309998
	c1.2409992,0,9.460001,0.0050001,9.448,0.0050001l-0.493,3.6559992c-0.493-0.5300007-1.0790005-1.2329998-1.8150005-1.2329998
	c-0.757,0.0020008-2.3309994,0-2.3390007,0v5.9729996c0.0079994,0.0119991,1.2080002,0.0119991,1.8460007,0
	c0.6429996,0.0119991,1.2819996-0.1350002,1.9069996-0.7709999v4.0620003
	c-0.5179996-0.4330006-1.1580009-0.8279991-1.7840004-0.8279991l-1.9689999-0.0020008v7.6009979
	c0.4890003,0.1529999,3.5599995-0.0209999,4.677-1.6609993l-0.6459999,4.0919991h-8.8929996
	c0.757-0.637001,0.8430004-1.6459999,0.8309994-2.3979988C16.8029976,32.2509995,16.8029976,16.1860008,16.8029995,16.1860008z"/>
<path id="B" d="M9.0489998,0.7390001C12.6589994,0.7240001,15.198,2.5070002,15.198,8.677
	c0.0039997,3.5959997-1.092,6.4489994-3.3190002,7.632c2.125,1.1350002,4.1680012,3.8169994,4.1539993,8.3389988
	c0.0139999,7.7639999-3.2159996,10.0029984-7.3239994,10.0029984L0.001,34.6469994
	c1.0170001-1.1189995,1.4120001-2.0800018,1.4120001-3.4780006L1.4159999,4.0600004C1.4159999,2.684,1.017,1.8170002,0,0.7080001
	L9.0489998,0.7390001z M6.0320001,13.9390001c0,0.7600002,0.6679997,0.9729996,1.7850003,0.9840002
	c2.5240002-0.0109997,2.8210001-2.7309999,2.8310003-6.3080006c-0.0100002-4.6199999-1.1929998-5.6380005-2.8929996-5.632
	C6.7480001,2.977,6.033,3.5339999,6.033,4.1529999C6.0320001,4.8579998,6.033,13.2070007,6.0320001,13.9390001L6.0320001,13.9390001
	L6.0320001,13.9390001z M8.3699999,31.9410019c2.5460005,0,2.8590002-2.5799999,2.8590002-7.3239994
	c0.0019999-4.2460003-1.1689997-6.4499989-3.1350002-6.4619999C7.25,18.1670017,6.033,18.3260021,6.033,18.9550018
	c-0.0009999,0.6520004,0,10.5200005,0,11.3240013c-0.0009999,0.9020004,0.9369998,1.6640015,2.3369999,1.6640015V31.9410019
	L8.3699999,31.9410019z"/>
<path id="E" d="M43.6349983,0.954C43.6429977,0.623,43.5309982,0.201,43.2659988,0c0.5960007,0.013,4.512001,0.013,4.5229988,0
	l-0.2449989,1.447c-0.2420006-0.223-0.5209999-0.49-0.8619995-0.49c-0.3709984-0.003-1.1209984,0-1.1069984,0v2.3050001
	c-0.0139999,0.007,0.5590019,0.007,0.8610001,0c0.3079987,0.007,0.6119995-0.026,0.9239998-0.277v1.7850003
	c-0.2599983-0.1789999-0.5649986-0.3800001-0.8610001-0.3699999h-0.9230003v2.8310003
	c0.2159996,0.0619993,1.6800003-0.0060005,2.2150002-0.6459999l-0.3079987,1.6009998h-4.2480011
	c0.3670006-0.2469997,0.4080009-0.6630001,0.4000015-0.9540005V0.954H43.6349983z"/>
<path id="H" d="M40.0359993,8.1859999h2.7369995c-0.2459984-0.1219997-0.3989983-0.5250006-0.3989983-0.9540005V0.954
	c0-0.331,0.1040001-0.752,0.3699989-0.954h-2.6469994c0.243,0.201,0.3479996,0.623,0.3390007,0.954v2.309h-1.1080017V0.954
	C39.3139992,0.623,39.4189987,0.201,39.6660004,0H37.019001c0.2599983,0.201,0.3650017,0.623,0.3650017,0.954l0.0040016,6.2780004
	c0,0.4289999-0.1559982,0.8319998-0.4000015,0.9540005h2.7080002c-0.2299995-0.1219997-0.382-0.5250006-0.3699989-0.9540005
	V4.3990002h1.1080017v2.8319998C40.4449997,7.6610003,40.2929993,8.0630007,40.0359993,8.1859999z"/>
<path id="T" d="M33.019001,1.3540001c0-0.186-0.0540009-0.381-0.1850014-0.37h-0.6459999
	c-0.3240013-0.012-0.7750015,0.369-0.9539986,0.678l0.1549988-1.6619999h5.2299995l0.1539993,1.6619999
	c-0.1749992-0.289-0.6300011-0.689-0.9539986-0.678h-0.6769981c-0.1409988-0.012-0.1949997,0.184-0.1850014,0.37v5.8780003
	c-0.012001,0.4119997,0.1090012,0.7709999,0.3380013,0.9540005h-2.6139984
	c0.1699982-0.1450005,0.3349991-0.4919996,0.3349991-0.9540005L33.019001,1.3540001z"/>
</svg>
