<?xml version="1.0" encoding="UTF-8" standalone="no"?>
<svg
   xmlns:dc="http://purl.org/dc/elements/1.1/"
   xmlns:cc="http://creativecommons.org/ns#"
   xmlns:rdf="http://www.w3.org/1999/02/22-rdf-syntax-ns#"
   xmlns:svg="http://www.w3.org/2000/svg"
   xmlns="http://www.w3.org/2000/svg"
   xmlns:sodipodi="http://sodipodi.sourceforge.net/DTD/sodipodi-0.dtd"
   xmlns:inkscape="http://www.inkscape.org/namespaces/inkscape"
   width="694pt"
   height="287pt"
   viewBox="0 0 694 287"
   version="1.1"
   id="svg2"
   sodipodi:version="0.32"
   inkscape:version="0.46"
   sodipodi:docname="Avatar-Logo-avatar.svg"
   inkscape:output_extension="org.inkscape.output.svg.inkscape">
  <metadata
     id="metadata217">
    <rdf:RDF>
      <cc:Work
         rdf:about="">
        <dc:format>image/svg+xml</dc:format>
        <dc:type
           rdf:resource="http://purl.org/dc/dcmitype/StillImage" />
      </cc:Work>
    </rdf:RDF>
  </metadata>
  <defs
     id="defs215">
    <inkscape:perspective
       sodipodi:type="inkscape:persp3d"
       inkscape:vp_x="0 : 179.375 : 1"
       inkscape:vp_y="0 : 1000 : 0"
       inkscape:vp_z="867.5 : 179.375 : 1"
       inkscape:persp3d-origin="433.75 : 119.58333 : 1"
       id="perspective219" />
  </defs>
  <sodipodi:namedview
     inkscape:window-height="1000"
     inkscape:window-width="1680"
     inkscape:pageshadow="2"
     inkscape:pageopacity="0.0"
     guidetolerance="10.0"
     gridtolerance="10.0"
     objecttolerance="10.0"
     borderopacity="1.0"
     bordercolor="#666666"
     pagecolor="#ffffff"
     id="base"
     showgrid="false"
     inkscape:zoom="2"
     inkscape:cx="472.31039"
     inkscape:cy="122.24656"
     inkscape:window-x="-8"
     inkscape:window-y="-8"
     inkscape:current-layer="svg2" />
  <g
     id="g2597"
     transform="matrix(0.9315749,0,0,0.8165605,21.392655,9.4176486)">
    <g
       id="g2594">
      <rect
         style="fill:#000000;fill-opacity:1"
         id="rect2592"
         width="745.02942"
         height="351.46509"
         x="-22.963236"
         y="-11.522059" />
    </g>
  </g>
  <path
     fill="#12191d"
     d="M 64.49,98.57 C 68.07,95.88 72.17,93.07 76.85,93.27 C 80.78,93.32 84.37,95.26 87.56,97.4 C 90.82,100.27 92.4,104.5 95.18,107.78 C 98.41,111.55 101.71,115.27 105.52,118.47 C 109.64,122.83 109.72,129.23 112.83,134.15 C 114.05,136.59 114.75,139.31 116.5,141.48 C 119.55,145.35 120.91,150.21 123.74,154.22 C 125.89,157.19 126.6,161 129.36,163.56 C 129.97,167.39 131.53,170.98 133.73,174.16 C 136.03,177.15 136.14,181.35 139.08,183.91 C 141.16,185.54 141.17,188.24 141.48,190.64 C 142.1,191.21 142.73,191.77 143.36,192.34 C 142.93,193.91 142.64,195.51 142.51,197.13 C 138.92,202.78 132.94,207.2 126.13,207.58 C 119.79,207.85 115.79,202.27 111.41,198.62 C 109.15,196.93 107.57,194.6 106.45,192.04 C 102.62,187.91 103.34,181.41 100.11,176.9 C 98.15,174.85 96.31,172.68 94.32,170.67 C 90.28,169.62 86.1,171.97 81.96,171.11 C 76.62,170.89 71.48,166.78 66.17,169.28 C 58.99,171.89 56.3,179.65 52.67,185.64 C 49.36,189.78 44.3,192.63 39.02,193.22 C 34.28,194.24 31.01,189.81 28.59,186.44 C 26.82,182.17 28.96,177.33 31.54,173.82 C 34.3,168.84 37.31,163.94 39.48,158.67 C 38.08,156.19 37.694214,156.48558 38.726955,152.49137 C 41.00132,150.51426 43.13,149.14 45.98,146.06 C 48.74,142.98 52,139.93 52.68,135.64 C 54.43,130.51 55.459848,123.29289 57.29,120.25 C 57.412792,115.9 58.08,111.77 59.84,107.91 C 61.4,104.8 61.42,100.75 64.49,98.57 z"
     id="path8"
     sodipodi:nodetypes="cccccccccccccccccccccccccccccccc" />
  <path
     fill="#1a242c"
     d=" M 275.71 97.69 C 277.99 95.84 281.20 93.41 284.25 94.86 C 289.03 96.60 293.85 98.91 296.86 103.19 C 303.47 112.63 307.48 123.54 312.16 133.97 C 314.75 137.39 316.22 141.58 319.33 144.59 C 319.92 147.89 322.53 150.24 323.88 153.21 C 326.91 159.61 330.01 166.05 334.44 171.63 C 339.37 177.75 338.59 187.74 331.98 192.37 C 331.51 192.26 330.57 192.03 330.09 191.91 C 331.93 189.72 334.73 187.75 334.51 184.56 C 335.39 176.87 329.54 171.10 326.01 164.94 C 323.29 160.21 321.69 154.90 318.60 150.37 C 310.81 138.86 305.34 126.02 299.19 113.62 C 296.17 107.90 293.06 101.14 286.34 99.09 C 283.66 97.81 280.92 99.82 278.36 100.51 C 278.39 101.98 278.43 103.44 278.47 104.90 C 278.47 104.97 278.47 105.10 278.47 105.17 C 277.92 107.73 277.38 110.30 276.71 112.84 C 275.68 116.98 272.94 120.38 271.26 124.24 C 268.76 129.92 267.10 135.93 264.67 141.64 C 263.04 145.59 259.07 148.00 257.68 152.09 C 255.69 159.19 251.82 165.49 248.90 172.20 C 247.54 175.52 243.88 177.07 242.44 180.32 C 241.24 182.80 241.48 185.60 241.58 188.26 C 242.14 188.54 243.27 189.11 243.83 189.40 C 246.75 190.88 250.18 190.59 252.97 188.96 C 256.00 187.65 257.13 184.34 258.29 181.53 C 260.12 176.69 262.53 171.96 266.06 168.12 C 267.30 166.74 269.32 166.71 271.02 166.34 C 277.98 165.31 285.04 165.52 292.03 164.76 C 298.70 164.09 305.38 164.89 312.01 165.54 C 315.29 169.11 316.52 173.92 318.93 178.03 C 320.95 181.42 321.40 185.79 324.66 188.35 C 325.19 188.87 325.71 189.38 326.24 189.91 C 327.07 190.78 327.90 191.66 328.64 192.61 L 329.34 193.66 C 326.77 193.64 323.75 194.22 321.71 192.22 C 318.91 189.70 316.73 186.55 314.72 183.39 C 312.08 178.38 310.73 172.53 306.65 168.39 C 304.59 167.07 302.06 166.77 299.68 166.54 C 291.10 166.34 282.52 167.14 274.02 168.24 C 267.87 170.01 264.39 176.02 261.33 181.18 C 260.50 184.92 259.37 188.65 256.30 191.22 C 251.68 191.74 246.86 195.40 242.37 192.60 C 239.25 190.46 235.72 187.23 236.64 183.03 C 237.62 176.92 242.56 172.67 245.65 167.61 C 248.42 162.87 251.24 158.05 252.53 152.65 C 253.10 149.22 256.82 148.00 258.24 145.07 C 260.33 141.14 262.50 137.20 263.93 132.98 C 264.79 127.07 268.41 122.12 270.60 116.66 C 272.70 112.96 271.62 108.41 273.65 104.69 C 274.74 102.48 274.80 99.95 275.71 97.69 Z"
     id="path10" />
  <path
     fill="#111a1e"
     d="M 480.54,95.48 C 484.3,94.29 488.72,93.58 492.38,95.49 C 493.9,96.46 495.64,96.22 497.3,95.83 C 501,99.02 503.71,103.16 507.58,106.17 C 507.02,110.59 510.22,113.89 511.63,117.79 C 513.09,121.79 515.86,125.16 517.04,129.29 C 520.84,135.21 523.11,142 527.79,147.38 C 528.14152,148.89711 527.70883,149.29137 529.32883,151.12137 C 529.90481,153.17931 532.61,153.79 531.38,155.46 C 531.96,156.2 532.53,156.93 533.12,157.66 C 534.07,157.18 534.74716,158.97274 535.71716,158.49274 C 536.47716,161.19274 537.03,161.73 537.55,164.48 C 539.27,165.52 539.86579,166.69711 541.52579,167.84711 C 542.62579,171.12711 544.29848,174.04147 545.70289,177.58853 C 545.47289,180.12853 546.53,182.06 545.37,184.39 C 540.98,189.51 535.1,194.52 527.98,194.52 C 525.16,194.72 523.05,192.67 520.82,191.3 C 518.27,189.51 515.26,188.21 513.33,185.69 C 511.56,180.53 509.14,175.63 506.91,170.67 C 502.1,170.78 498.57,166.38 493.7,166.77 C 489.52,167.25 485.31,167.21 481.12,167.42 C 475.69,168.65 470.67,172.13 468.12,177.17 C 465.69,180.5 465.3,185.45 461.36,187.5 C 457.09,190.02 453.28,194.05 448.01,194.24 C 444.92,193.32 441.98,191.88 438.79,191.3 C 437.86,185.15 440.46,179.05 444.06,174.19 C 447.47,169.08 450.51,163.7 452.9,158.03 C 454.95,153.01 458.87,149.01 460.62,143.85 C 462.88,137.34 467.52,131.87 469,125.06 C 469.76,122.41 469.94,119.61 470.94,117.04 C 472.68,114.25 475.06,111.64 475.08,108.14 C 475.3,103.44 476.36,98.28 480.54,95.48 z"
     id="path12"
     sodipodi:nodetypes="cccccccccccccccccccccccccccccccc" />
  <path
     fill="#101b21"
     d="M 193.98,96.18 C 197.84,95.18 201.85,94.37 205.83,95.19 C 210.95,96.1 216.66,94.77 221.28,97.65 C 224.23,100.23 226.69,103.87 226.3,107.97 C 226.07,111.81 227.57,115.37 228.32,119.05 C 227.78,122.97 225.85,126.54 224.25,130.12 C 220.45,136.34 214.77,141.59 212.92,148.87 C 211.52,154.08 207.85,158.47 207.31,163.93 C 206.57,169.27 204.95,174.51 205.31,179.97 C 205.05,183.22 206.1,187.77 202.73,189.73 C 199.03,191.63 194.95,192.64 191.13,194.27 C 186.24,196.38 180.2,195.32 176.3,191.71 C 172.93,188.66 168.69,186.71 165.52,183.46 C 163.65,179.55 161.29,175.27 162.47,170.81 C 163.19,168.79 161.5,167.25 160.57,165.66 C 159.34,159.23 157.47,152.73 153.73,147.27 C 152.17,143.77 150.1,140.45 148.55,137 C 149.1,132.65 145.74,129.58 143.5,126.29 C 140.19,121.64 139.74,115.75 137.55,110.6 C 136.05996,108.53593 136.53593,105.37512 138.17,103.49 C 143.86,100.12 150.01,96.57 156.74,96.17 C 161.05,95.62 164.72,99.08 166.18,102.86 C 168.35,108.59 170.87,114.39 175.11,118.92 C 177.72,121.8 179.34,125.37 181.26,128.7 C 183.1,131.81 183.84,135.83 187.1,137.88 C 188.58,139.11 191.17,139.2 192.16,137.29 C 192.59,133.53 193.8,129.76 193.01,125.96 C 192.32,122.84 195.59,119.83 193.26,116.92 C 193.74,115.91 194.23,114.9 194.72,113.9 C 192.93,108.13 193.26,102.09 193.98,96.18 z"
     id="path14"
     sodipodi:nodetypes="cccccccccccccccccccccccccccccc" />
  <path
     fill="#121c20"
     d=" M 355.98 95.96 C 359.58 95.40 363.24 95.51 366.86 95.18 C 367.27 95.48 368.09 96.09 368.50 96.40 C 370.86 95.44 373.23 95.51 375.11 97.40 C 384.13 97.14 393.23 97.24 402.19 98.54 C 412.76 99.57 423.76 97.15 433.90 101.30 C 433.11 106.23 432.88 111.37 431.05 116.04 C 426.69 119.72 421.31 121.85 416.19 124.20 C 411.44 125.45 405.52 123.80 401.86 127.92 C 398.82 135.27 401.52 143.35 400.79 151.00 C 400.31 154.66 401.39 158.32 400.81 161.97 C 399.50 169.23 403.24 176.88 400.03 183.88 C 398.94 186.09 398.70 189.07 396.30 190.33 C 392.85 192.33 389.21 195.09 384.97 194.21 C 380.70 193.96 377.09 190.20 376.43 186.07 C 375.14 180.08 374.75 173.91 375.58 167.84 C 376.59 160.57 376.17 153.24 376.09 145.94 C 376.62 139.91 375.50 133.86 373.87 128.09 C 372.51 124.11 367.43 124.28 364.00 124.15 C 358.95 123.81 353.39 126.23 348.79 123.23 C 345.58 121.50 342.30 118.79 341.94 114.90 C 342.24 111.13 343.45 107.35 345.95 104.45 C 346.38 103.16 346.92 101.83 348.15 101.08 C 350.65 99.24 353.07 97.12 355.98 95.96 Z"
     id="path16" />
  <path
     d="M 566.4,100.37 C 569.48,97.23 573.97,96.04 578.13,95.1 C 583.86,93.77 589.2,97.33 594.92,96.91 C 603.3,96.47 611.68,96.82 620.06,96.81 C 623.06,96.75 625.8,98.12 628.45,99.35 C 631.86,101.01 635.78,102.15 638.12,105.35 C 638.54,105.49 638.96,105.63 639.4,105.77 C 641.21,108.98 642.73,112.48 642.79,116.23 C 643.3,121 641.03,125.36 639.24,129.62 C 639.81,130.34 640.47,131.04 640.95,131.86 C 640.47,133.08 639.04,133.51 638.1,134.3 C 632.91,137.63 627.96,141.55 624.38,146.63 C 625.98,150.82 627.39,155.22 630.4,158.66 C 635.93,165.04 642.36,170.57 648.76,176.05 C 655.24,180.03 662.53,183.52 667.01,189.93 C 668.51,192.88 670.08,197.48 666.99,199.96 C 663.61,203.29 659.12,205.13 654.58,206.23 C 652.28,206.03 649.99,205.94 647.72,205.59 C 644.04,205.02 640.01147,203.89995 636.48147,202.84995 C 633.04147,201.81995 630.28758,200.68079 628.08279,199.51858 C 626.86426,198.42858 626.07,197.48 625.7,196.4 C 619.18,192.85 605.96471,175.20197 598.47756,172.71776 C 596.76593,175.52192 597.03706,185.62 592.08706,188.39 C 588.13706,190.32 582.47,192.7 577.99,193.01 C 572.43,192.71 567.49,189.64 563.84,185.58 C 562.59395,182.63972 561.78873,179.47798 564.9,173.56 C 565.07,167.33 563.6,161.27 562.73,155.16 C 562.22,151.97 564.56,149.21 564.5,146.05 C 564.3,139.2 564.54,132.25 562.69,125.58 C 561.00552,124.15499 560.30245,120.36785 561.31681,118.39213 C 560.96283,116.49057 561.70513,114.83277 562.13307,112.90586 C 563.43307,111.10586 562.9,111.18 563.83,109.15 C 564.63,106.22 564.13,102.74 566.4,100.37 z"
     id="path18"
     style="fill:#111c21"
     sodipodi:nodetypes="cccccccccccccccccsccccccccccccccc" />
  <path
     fill="#354c58"
     d=" M 69.28 100.31 C 72.28 98.22 76.34 96.61 79.96 98.06 C 83.28 99.06 85.30 102.05 87.38 104.62 C 90.14 108.22 93.30 111.60 95.22 115.77 C 100.97 127.54 106.11 139.68 113.33 150.66 C 115.50 154.98 118.23 158.95 121.00 162.89 C 122.06 169.03 125.26 174.44 127.99 179.96 C 131.16 185.27 136.88 190.45 135.35 197.25 C 133.51 200.15 130.65 204.17 126.69 203.21 C 124.51 202.67 121.88 202.63 120.40 200.69 C 115.64 195.50 113.14 188.81 110.58 182.37 C 109.13 178.53 106.75 175.12 105.28 171.30 C 104.86 169.35 104.71 167.36 104.56 165.37 C 111.35 174.73 115.40 185.68 119.96 196.22 C 120.72 198.41 122.40 200.06 124.45 201.09 C 124.78 201.27 125.46 201.64 125.80 201.83 C 126.15 201.67 126.86 201.35 127.22 201.19 C 130.05 200.21 133.68 198.46 133.45 194.91 C 132.65 188.73 127.64 184.42 124.78 179.20 C 122.77 174.85 120.90 170.42 119.64 165.79 C 118.78 161.71 115.53 158.81 113.56 155.28 C 105.37 143.31 99.46 129.98 93.42 116.83 C 92.15 114.04 89.80 111.96 87.52 109.99 C 87.46 110.76 87.32 112.30 87.25 113.07 C 86.48 111.81 85.78 110.51 85.06 109.22 C 83.75 107.67 83.01 105.77 82.38 103.86 C 80.27 101.63 77.63 99.17 74.39 100.87 C 72.81 101.52 70.30 101.46 69.70 103.44 C 68.59 107.43 68.97 111.69 67.73 115.67 C 66.06 121.03 63.22 125.94 61.40 131.26 C 60.09 135.08 59.69 139.19 58.03 142.90 C 56.70 145.89 53.71 147.54 51.14 149.33 C 52.81 145.70 56.18 143.04 57.04 138.98 C 59.01 131.72 61.97 124.82 65.16 118.02 C 68.26 112.55 64.65 105.22 69.28 100.31 Z"
     id="path20" />
  <path
     fill="#25424f"
     d=" M 203.24 97.82 C 207.62 98.54 212.07 98.86 216.51 98.77 C 217.81 99.94 219.01 101.24 219.92 102.75 L 219.31 102.69 C 218.97 102.66 218.28 102.62 217.94 102.59 C 212.19 99.66 204.48 99.20 199.27 103.46 C 200.21 103.67 201.16 103.87 202.10 104.07 C 203.64 112.07 201.78 120.04 201.26 128.03 C 200.55 135.34 197.49 142.09 195.27 149.02 C 193.67 153.87 190.28 157.98 186.19 160.98 C 183.60 157.58 181.08 154.06 179.75 149.95 C 177.79 144.15 174.38 138.97 172.62 133.09 C 170.52 126.70 168.95 119.92 164.79 114.48 C 163.70 110.48 162.67 106.24 159.15 103.63 C 158.71 102.74 158.28 101.85 157.79 101.00 C 156.67 101.41 155.93 102.35 155.17 103.20 C 154.29 102.62 153.41 102.04 152.53 101.46 C 149.89 103.37 146.52 105.11 145.66 108.52 C 145.28 111.62 146.54 114.70 148.33 117.18 C 152.52 121.86 154.46 127.92 157.70 133.20 C 160.58 138.07 161.36 143.84 164.22 148.73 C 167.85 155.09 169.67 162.20 171.79 169.14 C 173.37 174.44 174.20 180.11 177.15 184.89 C 178.10 186.43 180.05 186.77 181.53 187.56 C 182.45 187.96 183.39 188.31 184.34 188.63 C 183.12 189.19 181.92 189.79 180.73 190.41 C 177.90 189.07 174.93 187.46 173.51 184.51 C 169.36 175.54 168.18 165.54 164.36 156.45 C 160.72 148.91 157.38 141.22 154.50 133.37 C 150.66 128.17 148.36 122.12 145.40 116.42 C 143.80 113.36 143.99 109.72 144.49 106.41 C 147.05 102.19 152.03 99.38 157.05 100.15 C 161.26 99.78 163.20 104.16 164.48 107.41 C 167.51 115.91 172.26 123.77 174.38 132.59 C 178.19 139.69 180.62 147.43 184.35 154.57 C 184.95 156.11 187.46 157.29 188.53 155.57 C 193.93 149.85 195.27 141.94 197.94 134.83 C 199.67 126.43 201.10 117.86 200.39 109.26 C 199.83 107.28 198.55 105.61 197.81 103.70 C 197.82 102.33 198.29 101.01 198.54 99.68 C 200.11 99.06 201.67 98.44 203.24 97.82 Z"
     id="path22" />
  <path
     fill="#24424e"
     d=" M 483.40 97.70 C 486.91 96.97 490.64 97.85 493.92 99.14 C 496.25 100.91 497.45 103.69 499.18 105.99 C 500.45 107.93 502.23 109.52 503.27 111.60 C 506.72 122.98 512.67 133.38 518.37 143.75 C 520.05 147.28 523.48 149.29 526.17 151.94 C 526.92 154.70 525.90 157.81 527.58 160.39 C 530.19 167.63 537.12 172.64 538.57 180.36 C 539.70 187.37 531.63 192.61 525.37 190.60 C 521.83 189.19 518.77 186.40 517.39 182.81 C 515.67 178.58 513.97 174.34 511.99 170.23 C 510.96 167.86 508.70 166.05 506.15 165.59 C 501.50 164.77 496.76 164.20 492.04 164.64 C 485.06 165.31 478.02 165.56 471.16 167.08 C 468.86 167.52 467.66 169.76 466.46 171.54 C 463.37 176.33 461.67 181.88 458.53 186.64 C 454.91 190.55 449.05 191.25 444.02 190.56 C 442.88 190.46 441.97 189.57 441.50 188.59 C 441.45 183.76 443.67 179.26 446.34 175.35 C 451.07 168.42 454.26 160.61 458.43 153.36 C 462.08 147.10 465.74 140.78 468.11 133.91 C 469.26 130.36 471.77 127.43 472.66 123.78 C 473.93 117.95 478.27 113.13 478.37 106.98 C 478.30 103.25 479.93 99.43 483.40 97.70 Z"
     id="path24" />
  <path
     fill="#1c6a8c"
     d=" M 278.36 100.51 C 280.92 99.82 283.66 97.81 286.34 99.09 C 286.85 100.10 287.36 101.11 287.87 102.13 C 287.49 101.67 286.73 100.76 286.36 100.31 C 283.98 102.24 281.29 103.72 278.47 104.90 C 278.43 103.44 278.39 101.98 278.36 100.51 Z"
     id="path26" />
  <path
     fill="#364c5a"
     d=" M 286.34 99.09 C 293.06 101.14 296.17 107.90 299.19 113.62 C 305.34 126.02 310.81 138.86 318.60 150.37 C 321.69 154.90 323.29 160.21 326.01 164.94 C 329.54 171.10 335.39 176.87 334.51 184.56 C 333.67 183.46 332.83 182.38 332.06 181.24 C 328.62 175.75 325.00 170.37 320.91 165.35 C 320.38 163.49 320.22 161.55 319.68 159.70 C 318.61 154.60 315.75 150.18 312.87 145.94 C 309.31 140.75 306.60 135.04 304.18 129.25 C 304.06 130.85 303.94 132.44 303.83 134.05 L 303.39 133.51 C 303.24 132.38 303.15 131.25 303.10 130.11 C 301.79 127.65 300.43 125.20 299.19 122.70 C 298.84 122.32 298.14 121.57 297.78 121.20 C 297.88 117.22 294.89 114.33 292.94 111.17 C 291.05 108.27 289.51 105.17 287.87 102.13 C 287.36 101.11 286.85 100.10 286.34 99.09 Z"
     id="path28" />
  <path
     fill="#2e586a"
     d=" M 577.37 99.46 C 586.32 98.67 595.08 101.58 604.00 101.59 C 608.38 101.65 612.73 99.81 617.08 101.01 C 621.38 102.07 625.52 103.74 629.63 105.39 C 633.32 106.78 635.98 110.08 637.28 113.72 C 638.44 118.13 636.85 122.76 634.60 126.56 C 632.90 129.40 629.62 131.38 629.27 134.91 C 624.95 138.94 618.62 140.24 614.90 144.98 C 613.86 146.12 614.63 147.63 615.53 148.57 C 620.54 154.55 624.71 161.23 630.27 166.74 C 632.15 168.67 634.59 170.40 634.95 173.29 C 632.22 172.10 629.91 170.14 628.23 167.69 C 623.29 160.96 617.85 154.61 612.63 148.12 C 610.29 145.46 612.93 142.67 614.93 140.85 C 618.23 139.86 621.30 138.28 624.13 136.33 C 623.75 135.55 622.99 134.00 622.61 133.23 C 623.82 132.20 624.95 131.08 626.10 129.98 C 628.50 127.59 631.37 125.32 632.07 121.80 C 632.47 121.46 633.27 120.78 633.67 120.44 C 633.96 117.85 634.11 115.21 633.52 112.65 C 631.57 110.74 629.01 109.70 626.57 108.59 C 622.44 105.22 616.98 105.60 611.99 105.01 C 607.02 104.47 602.03 105.28 597.06 104.79 C 592.57 104.00 588.41 101.98 583.96 101.06 C 581.74 100.47 579.84 101.97 577.90 102.77 L 577.02 103.05 C 575.37 103.45 573.71 103.70 572.05 103.93 C 571.75 100.86 574.83 99.58 577.37 99.46 Z"
     id="path30" />
  <path
     fill="#fdfdfd"
     d=" M 74.39 100.87 C 77.63 99.17 80.27 101.63 82.38 103.86 C 83.01 105.77 83.75 107.67 85.06 109.22 C 85.78 110.51 86.48 111.81 87.25 113.07 C 88.07 114.44 89.00 115.74 89.92 117.05 C 89.84 117.70 89.69 119.00 89.61 119.65 C 92.55 123.24 95.54 127.23 96.04 132.00 C 98.69 135.17 100.90 138.73 102.12 142.71 C 104.17 146.01 106.47 149.13 108.63 152.36 C 112.35 158.81 115.54 165.55 118.73 172.28 C 119.66 174.20 119.46 176.38 119.62 178.45 C 124.58 183.49 128.34 189.64 131.96 195.69 C 130.29 197.45 128.71 199.28 127.22 201.19 C 126.86 201.35 126.15 201.67 125.80 201.83 C 125.46 201.64 124.78 201.27 124.45 201.09 C 123.88 199.13 123.65 197.04 122.63 195.25 C 118.50 188.95 116.45 181.59 112.78 175.04 C 109.28 168.80 106.54 162.17 103.00 155.95 C 101.85 153.91 101.04 151.71 100.28 149.50 C 99.82 149.24 98.91 148.70 98.45 148.43 C 98.37 146.97 98.28 145.51 98.20 144.06 C 96.85 143.07 95.27 142.26 94.46 140.72 C 92.09 136.45 88.14 132.63 88.37 127.38 C 86.77 125.94 85.11 124.49 84.18 122.50 C 82.29 118.72 79.76 115.30 77.90 111.51 C 76.64 114.74 75.10 117.85 73.44 120.89 C 70.43 127.37 69.03 134.79 63.95 140.14 C 63.53 142.61 62.90 145.06 61.53 147.19 C 60.46 149.14 59.62 151.20 58.83 153.28 C 65.85 153.96 72.90 153.72 79.94 153.80 C 80.22 153.88 80.77 154.03 81.05 154.11 C 86.15 153.66 91.32 152.50 96.43 153.52 C 96.45 154.59 96.45 155.68 96.43 156.76 C 89.88 156.33 83.43 157.92 76.88 157.84 C 73.41 158.49 69.67 157.07 66.50 159.05 C 62.72 158.48 58.78 158.49 55.16 159.87 C 51.37 166.02 48.16 172.53 45.11 179.07 C 43.71 181.90 42.79 185.60 39.43 186.72 C 37.80 186.93 36.17 186.53 34.56 186.36 C 37.24 181.56 40.13 176.75 44.18 172.97 C 44.28 172.38 44.47 171.20 44.56 170.62 C 47.97 167.49 48.93 162.99 49.59 158.61 C 52.05 154.51 55.05 150.75 58.43 147.37 C 58.55 146.86 58.81 145.85 58.93 145.34 C 59.29 144.91 60.00 144.05 60.36 143.63 C 60.66 138.47 64.30 134.45 65.52 129.55 C 66.63 125.14 69.12 121.35 71.37 117.49 C 73.17 114.00 76.47 108.36 71.87 105.63 C 71.24 105.12 70.61 104.63 69.97 104.14 C 71.43 103.03 72.89 101.92 74.39 100.87 Z"
     id="path32" />
  <path
     fill="#335871"
     d=" M 199.27 103.46 C 204.48 99.20 212.19 99.66 217.94 102.59 C 211.79 104.61 205.45 101.80 199.27 103.46 Z"
     id="path34" />
  <path
     fill="#fdfdfc"
     d=" M 481.56 105.41 C 480.79 102.53 484.84 100.95 487.03 100.04 C 487.39 100.20 488.11 100.52 488.47 100.68 C 489.42 101.77 490.33 102.90 491.27 104.02 C 492.07 105.96 492.89 107.88 493.69 109.82 C 494.11 110.07 494.96 110.56 495.38 110.80 C 495.48 111.27 495.67 112.21 495.77 112.68 C 497.80 115.17 500.11 117.82 499.69 121.29 C 500.05 121.69 500.78 122.49 501.14 122.89 C 502.32 125.35 503.72 127.70 505.19 130.00 C 505.48 131.51 505.40 133.21 506.46 134.45 C 510.62 139.51 512.01 146.28 516.71 150.97 C 518.36 153.26 519.61 155.81 520.91 158.30 C 522.22 160.47 522.47 162.99 522.55 165.47 C 527.67 170.33 531.09 176.65 535.03 182.45 C 533.55 184.75 531.37 186.51 529.88 188.81 C 528.85 188.73 527.83 188.65 526.82 188.56 C 526.76 188.24 526.66 187.61 526.60 187.29 C 526.36 183.03 523.37 179.81 521.87 176.01 C 520.41 172.41 518.22 169.12 517.32 165.30 C 516.29 163.51 515.30 161.70 514.35 159.86 C 514.05 159.30 513.47 158.16 513.17 157.59 C 506.95 159.57 500.45 157.69 494.11 158.64 C 489.16 159.38 484.12 159.76 479.13 159.09 C 474.75 161.06 469.84 159.56 465.25 160.56 C 463.95 162.78 462.71 165.03 461.51 167.29 C 458.72 172.67 455.72 177.95 453.51 183.60 C 452.89 185.48 451.61 187.10 449.69 187.75 C 449.31 187.91 448.55 188.22 448.17 188.38 C 447.33 188.10 445.64 187.55 444.80 187.27 C 447.43 182.92 449.90 178.34 453.74 174.91 C 454.47 173.32 455.25 171.75 456.11 170.22 C 457.92 167.28 458.79 163.92 460.01 160.72 C 463.01 155.21 467.40 150.55 469.99 144.77 C 470.74 140.14 473.44 136.18 474.85 131.76 C 476.73 125.86 479.68 120.38 483.27 115.35 C 484.03 116.19 484.75 117.07 485.42 117.98 C 484.55 120.52 483.03 122.75 481.79 125.11 C 479.93 131.07 477.41 136.80 473.71 141.85 C 473.61 142.49 473.42 143.77 473.32 144.41 C 472.76 146.18 471.81 147.77 470.94 149.39 L 470.73 149.80 C 470.02 151.31 469.45 152.88 468.85 154.43 C 475.30 155.77 481.93 155.31 488.47 155.33 C 496.08 155.25 503.89 154.76 511.17 152.36 C 510.36 151.29 509.57 150.21 508.78 149.14 C 508.28 144.63 504.23 142.07 502.20 138.30 C 500.11 135.52 498.20 132.40 498.40 128.77 C 496.75 127.30 494.95 125.89 494.01 123.83 C 492.23 120.16 489.70 116.94 487.80 113.33 C 485.88 111.53 483.99 109.69 482.37 107.62 C 482.17 107.06 481.76 105.96 481.56 105.41 Z"
     id="path36" />
  <path
     fill="#38667c"
     d=" M 488.47 100.68 C 491.86 99.74 494.39 102.46 495.74 105.21 C 497.29 108.50 500.85 110.41 501.88 113.98 C 504.24 121.14 507.91 127.77 510.39 134.89 C 513.14 141.44 516.25 148.95 523.40 151.71 C 523.93 158.23 526.22 164.55 530.44 169.60 C 532.81 173.45 535.98 177.66 535.03 182.45 C 531.09 176.65 527.67 170.33 522.55 165.47 C 522.47 162.99 522.22 160.47 520.91 158.30 C 521.05 156.20 521.21 154.10 521.38 152.01 C 519.82 151.65 518.26 151.31 516.71 150.97 C 512.01 146.28 510.62 139.51 506.46 134.45 C 505.40 133.21 505.48 131.51 505.19 130.00 C 503.72 127.70 502.32 125.35 501.14 122.89 C 500.78 122.49 500.05 121.69 499.69 121.29 C 500.11 117.82 497.80 115.17 495.77 112.68 C 495.67 112.21 495.48 111.27 495.38 110.80 C 494.96 110.56 494.11 110.07 493.69 109.82 C 492.89 107.88 492.07 105.96 491.27 104.02 C 490.33 102.90 489.42 101.77 488.47 100.68 Z"
     id="path38" />
  <path
     fill="#305c70"
     d=" M 69.70 103.44 C 70.30 101.46 72.81 101.52 74.39 100.87 C 72.89 101.92 71.43 103.03 69.97 104.14 C 70.61 104.63 71.24 105.12 71.87 105.63 C 70.68 109.49 70.94 113.53 71.37 117.49 C 69.12 121.35 66.63 125.14 65.52 129.55 C 64.30 134.45 60.66 138.47 60.36 143.63 C 60.00 144.05 59.29 144.91 58.93 145.34 C 58.81 145.85 58.55 146.86 58.43 147.37 C 55.05 150.75 52.05 154.51 49.59 158.61 C 48.07 155.40 49.51 152.16 51.14 149.33 C 53.71 147.54 56.70 145.89 58.03 142.90 C 59.69 139.19 60.09 135.08 61.40 131.26 C 63.22 125.94 66.06 121.03 67.73 115.67 C 68.97 111.69 68.59 107.43 69.70 103.44 Z"
     id="path40" />
  <path
     fill="#2d586f"
     d=" M 145.66 108.52 C 146.52 105.11 149.89 103.37 152.53 101.46 C 153.41 102.04 154.29 102.62 155.17 103.20 C 153.69 105.57 150.92 106.17 148.44 106.94 C 148.10 110.34 148.08 113.77 148.33 117.18 C 146.54 114.70 145.28 111.62 145.66 108.52 Z"
     id="path42" />
  <path
     fill="#fdfefd"
     d=" M 155.17 103.20 C 155.93 102.35 156.67 101.41 157.79 101.00 C 158.28 101.85 158.71 102.74 159.15 103.63 C 159.30 107.70 161.11 111.58 160.48 115.70 C 163.68 121.20 165.84 127.21 168.23 133.09 C 168.31 135.82 167.64 138.61 168.31 141.30 C 169.08 141.45 170.62 141.75 171.39 141.90 C 171.96 142.88 172.54 143.86 173.08 144.86 C 174.49 149.58 176.78 154.11 176.83 159.14 C 177.77 159.53 178.72 159.93 179.67 160.33 C 180.77 163.00 182.08 165.56 183.40 168.13 C 183.60 169.84 183.64 171.57 183.69 173.30 C 184.77 174.12 185.62 175.46 187.08 175.64 C 189.06 173.20 190.02 170.16 191.11 167.26 C 191.46 166.25 191.80 165.24 192.13 164.22 C 193.28 161.22 194.88 158.36 197.15 156.05 C 197.19 151.49 198.16 147.06 199.85 142.84 C 200.69 142.21 201.53 141.57 202.37 140.94 C 202.32 138.23 202.22 135.41 203.45 132.90 C 205.94 128.73 205.70 123.84 205.69 119.18 C 205.89 115.04 210.50 110.65 207.29 106.80 C 206.51 105.51 205.09 104.88 203.72 104.43 C 203.31 104.34 202.51 104.16 202.10 104.07 C 201.16 103.87 200.21 103.67 199.27 103.46 C 205.45 101.80 211.79 104.61 217.94 102.59 C 218.28 102.62 218.97 102.66 219.31 102.69 C 218.76 107.48 218.05 112.36 215.61 116.61 C 212.21 122.70 212.27 130.54 206.88 135.49 C 206.37 141.56 202.66 146.50 201.06 152.24 C 199.98 155.35 198.95 158.49 198.36 161.74 C 196.29 167.72 194.02 173.63 191.56 179.46 C 190.57 181.70 192.69 183.43 193.86 185.04 C 191.25 186.27 188.68 187.56 186.06 188.77 C 185.63 188.73 184.77 188.66 184.34 188.63 C 183.39 188.31 182.45 187.96 181.53 187.56 C 179.53 183.15 177.80 178.59 176.77 173.85 C 175.69 168.04 172.52 162.76 172.21 156.78 C 171.32 156.12 170.43 155.46 169.54 154.81 C 168.96 152.18 168.38 149.47 166.79 147.23 C 164.46 143.85 163.35 139.87 162.22 135.98 C 162.45 134.89 162.67 133.80 162.90 132.71 C 161.77 132.30 160.65 131.88 159.53 131.46 C 157.91 128.62 156.51 125.58 156.48 122.24 C 152.05 119.23 152.23 113.39 148.77 109.71 C 148.68 109.02 148.52 107.63 148.44 106.94 C 150.92 106.17 153.69 105.57 155.17 103.20 Z"
     id="path44" />
  <path
     fill="#fcfdfc"
     d=" M 278.47 104.90 C 281.29 103.72 283.98 102.24 286.36 100.31 C 286.73 100.76 287.49 101.67 287.87 102.13 C 289.51 105.17 291.05 108.27 292.94 111.17 C 294.89 114.33 297.88 117.22 297.78 121.20 C 298.14 121.57 298.84 122.32 299.19 122.70 C 300.43 125.20 301.79 127.65 303.10 130.11 C 303.15 131.25 303.24 132.38 303.39 133.51 L 303.83 134.05 C 304.59 134.95 305.37 135.85 306.08 136.81 C 307.19 139.38 308.29 141.98 309.83 144.35 C 313.27 149.36 316.34 154.61 319.68 159.70 C 320.22 161.55 320.38 163.49 320.91 165.35 C 325.00 170.37 328.62 175.75 332.06 181.24 C 332.22 181.64 332.55 182.46 332.71 182.87 C 330.60 185.26 328.39 187.56 326.24 189.91 C 325.71 189.38 325.19 188.87 324.66 188.35 C 324.61 184.53 322.64 181.30 320.80 178.11 C 319.02 173.85 316.62 169.86 315.30 165.42 C 313.88 162.83 312.51 160.21 311.14 157.60 C 308.08 158.24 304.97 158.74 301.84 158.54 C 294.10 157.58 286.47 160.20 278.73 159.33 C 278.31 159.18 277.47 158.89 277.04 158.74 C 274.69 160.61 271.74 160.46 268.96 159.89 C 266.94 160.19 264.91 160.45 262.91 160.84 C 258.53 168.31 254.30 175.91 250.95 183.91 C 250.19 186.14 248.02 187.23 246.24 188.52 C 245.38 188.21 243.66 187.60 242.80 187.30 C 245.26 182.82 247.80 178.19 251.82 174.90 C 253.13 170.53 255.57 166.64 257.63 162.60 C 260.19 157.73 262.11 152.35 266.24 148.52 C 266.32 147.99 266.47 146.94 266.55 146.41 C 266.96 146.06 267.77 145.34 268.18 144.98 C 268.21 144.08 268.27 142.28 268.31 141.39 C 268.60 140.88 268.90 140.37 269.20 139.87 C 271.59 136.00 272.77 131.58 274.45 127.39 C 275.86 123.69 278.07 120.38 279.88 116.87 C 280.67 116.47 281.49 116.11 282.32 115.77 C 282.62 116.34 283.21 117.46 283.51 118.02 C 278.57 125.38 277.44 134.66 271.63 141.51 C 271.20 143.85 270.91 146.33 269.34 148.24 C 269.16 148.50 268.80 149.02 268.61 149.28 C 268.02 151.04 267.45 152.80 266.90 154.57 C 273.62 155.68 280.46 155.35 287.24 155.35 C 289.09 155.45 290.92 155.22 292.75 154.97 C 298.19 154.47 303.82 154.64 308.93 152.44 C 307.90 150.78 306.86 149.14 305.83 147.49 C 305.71 146.86 305.48 145.62 305.36 144.99 C 302.21 142.35 300.39 138.59 298.13 135.24 C 296.63 133.07 296.45 130.39 296.14 127.85 C 295.43 127.66 293.99 127.28 293.28 127.09 C 290.06 119.87 285.42 113.35 280.24 107.39 C 279.64 106.66 279.05 105.91 278.47 105.17 C 278.47 105.10 278.47 104.97 278.47 104.90 Z"
     id="path46" />
  <path
     fill="#2c4f60"
     d=" M 350.03 105.10 C 352.71 102.60 356.08 99.49 360.06 100.96 C 365.93 102.53 372.03 102.30 377.98 103.27 C 383.02 104.05 387.94 101.99 392.99 102.37 C 397.45 102.29 401.52 104.70 406.01 104.48 C 413.29 105.03 420.92 101.80 427.80 105.40 C 430.94 106.46 429.37 110.49 427.75 112.26 C 427.46 111.00 427.18 109.74 426.91 108.49 C 427.12 108.15 427.55 107.48 427.76 107.14 C 423.77 109.02 419.29 108.33 415.06 108.93 C 413.44 108.82 411.83 108.71 410.22 108.64 C 407.49 109.64 404.55 109.40 401.70 109.42 C 398.91 105.14 393.30 103.71 388.67 105.69 C 381.01 108.59 372.70 107.07 364.99 105.22 C 361.48 104.32 357.83 104.29 354.23 104.27 C 354.01 104.61 353.56 105.29 353.34 105.63 C 352.00 107.63 350.93 109.79 350.07 112.04 C 349.69 112.47 348.92 113.33 348.53 113.76 C 346.10 111.08 348.22 107.44 350.03 105.10 Z"
     id="path48" />
  <path
     fill="#3f7693"
     d=" M 577.90 102.77 C 579.84 101.97 581.74 100.47 583.96 101.06 C 588.41 101.98 592.57 104.00 597.06 104.79 C 595.65 105.04 594.27 105.36 592.88 105.68 C 590.62 106.26 588.28 106.42 585.96 106.41 C 585.38 104.87 585.81 102.58 583.97 101.86 C 581.90 101.54 579.88 102.28 577.90 102.77 Z"
     id="path50" />
  <path
     fill="#fdfefd"
     d=" M 577.90 102.77 C 579.88 102.28 581.90 101.54 583.97 101.86 C 585.81 102.58 585.38 104.87 585.96 106.41 C 588.28 106.42 590.62 106.26 592.88 105.68 C 596.61 105.39 600.25 106.60 603.99 106.38 C 611.56 106.06 619.21 106.74 626.57 108.59 C 629.01 109.70 631.57 110.74 633.52 112.65 C 633.18 114.90 632.88 117.15 632.60 119.40 C 631.91 120.05 631.22 120.71 630.54 121.36 C 630.53 122.05 630.51 123.44 630.50 124.13 C 629.28 125.09 628.06 126.04 626.85 126.99 C 626.59 127.99 626.34 128.98 626.10 129.98 C 624.95 131.08 623.82 132.20 622.61 133.23 C 618.25 135.90 614.11 139.19 608.86 139.86 C 606.91 140.41 605.00 141.08 603.09 141.72 C 603.29 142.41 603.51 143.10 603.73 143.79 C 603.29 144.82 602.85 145.86 602.43 146.90 C 603.74 146.60 605.08 146.31 606.41 146.02 C 606.47 146.81 606.60 148.40 606.66 149.19 C 607.24 149.34 608.40 149.65 608.98 149.80 C 611.23 152.43 613.53 155.02 616.07 157.38 C 616.48 157.75 617.29 158.51 617.69 158.89 C 617.73 159.40 617.80 160.41 617.84 160.92 C 627.46 169.62 635.22 180.74 646.95 186.86 C 650.32 190.71 655.21 192.55 659.56 195.01 L 659.92 195.32 C 660.28 195.82 660.98 196.82 661.33 197.32 C 656.66 198.89 651.69 198.52 646.85 198.65 C 645.89 196.96 644.32 195.83 642.71 194.84 C 642.31 193.85 641.92 192.85 641.54 191.86 C 636.71 190.86 634.03 186.37 629.82 184.21 C 626.78 182.64 624.95 179.69 624.30 176.40 C 618.97 171.74 613.42 167.34 608.15 162.61 C 607.35 161.12 606.75 159.53 606.16 157.95 C 599.63 156.46 596.65 149.65 590.73 146.95 C 590.05 144.96 590.73 143.02 591.59 141.22 C 598.20 138.95 605.57 138.95 611.58 135.07 C 615.67 133.48 617.32 129.13 620.27 126.21 C 620.47 125.96 620.87 125.46 621.07 125.21 C 621.97 122.76 622.71 120.24 623.55 117.77 C 622.04 115.28 620.34 112.64 617.54 111.49 C 614.89 110.45 612.17 109.61 609.51 108.61 C 609.07 108.61 608.19 108.60 607.75 108.59 C 601.23 108.43 594.79 109.52 588.29 109.70 C 585.93 111.44 583.77 113.65 584.40 116.89 C 584.45 119.43 584.63 121.97 584.76 124.50 C 584.06 125.55 583.37 126.60 582.69 127.65 C 583.64 128.34 584.59 129.04 585.56 129.73 C 585.56 135.24 585.00 140.72 584.78 146.22 C 584.87 146.87 585.05 148.17 585.13 148.82 C 586.13 153.18 584.52 157.53 584.89 161.92 C 585.47 167.51 584.42 173.26 586.39 178.68 C 586.30 180.49 586.35 182.66 584.49 183.64 C 581.66 184.73 578.67 185.58 576.39 187.71 C 575.92 187.82 574.98 188.03 574.51 188.14 C 574.57 187.94 574.70 187.54 574.77 187.34 C 574.93 186.86 575.24 185.89 575.40 185.41 C 577.02 180.67 577.25 175.59 577.41 170.63 C 578.38 169.52 579.34 168.42 580.29 167.29 C 579.47 166.53 578.65 165.76 577.84 164.99 C 576.92 157.58 578.15 150.13 577.47 142.69 C 577.46 142.23 577.43 141.30 577.41 140.83 C 577.95 140.38 579.03 139.48 579.57 139.02 C 578.87 138.09 578.18 137.15 577.49 136.22 C 577.25 130.10 576.56 124.01 576.01 117.91 C 575.37 114.22 574.70 110.14 571.64 107.61 C 570.91 107.35 569.46 106.83 568.73 106.57 L 568.11 106.35 C 568.25 105.98 568.53 105.24 568.66 104.87 C 569.71 104.56 570.77 104.26 571.84 103.96 L 572.05 103.93 C 573.71 103.70 575.37 103.45 577.02 103.05 L 577.90 102.77 Z"
     id="path52" />
  <path
     fill="#33667d"
     d=" M 219.31 102.69 L 219.92 102.75 C 220.02 103.25 220.21 104.25 220.31 104.75 C 220.83 108.68 222.52 112.95 220.58 116.74 C 217.64 122.89 214.61 129.00 211.40 135.01 C 210.13 136.09 208.81 137.11 207.50 138.13 C 207.35 137.47 207.04 136.15 206.88 135.49 C 212.27 130.54 212.21 122.70 215.61 116.61 C 218.05 112.36 218.76 107.48 219.31 102.69 Z"
     id="path54" />
  <path
     fill="#3b6a84"
     d=" M 159.15 103.63 C 162.67 106.24 163.70 110.48 164.79 114.48 C 165.81 118.72 167.49 122.75 169.10 126.79 C 171.26 132.11 171.96 137.98 174.94 142.96 C 178.98 149.88 180.27 158.71 186.77 163.99 C 189.88 161.64 191.91 158.22 194.49 155.35 C 195.16 155.53 196.49 155.87 197.15 156.05 C 194.88 158.36 193.28 161.22 192.13 164.22 C 192.17 163.75 192.27 162.81 192.32 162.33 C 190.92 163.36 189.63 164.58 188.01 165.26 C 185.88 165.53 183.95 163.94 182.71 162.36 C 179.77 158.11 177.84 153.26 176.21 148.39 C 175.79 146.76 174.26 145.89 173.08 144.86 C 172.73 143.40 172.38 141.93 172.02 140.47 C 170.98 140.65 169.94 140.82 168.90 141.00 C 168.98 140.35 169.13 139.05 169.21 138.41 C 171.83 136.71 169.35 134.75 168.23 133.09 C 165.84 127.21 163.68 121.20 160.48 115.70 C 161.11 111.58 159.30 107.70 159.15 103.63 Z"
     id="path56" />
  <path
     fill="#1b2d37"
     d=" M 220.31 104.75 C 221.28 104.10 222.32 103.16 223.37 104.27 C 223.81 108.50 224.23 112.74 224.58 116.98 C 224.91 119.11 223.49 120.88 222.53 122.63 C 220.81 125.37 219.46 128.31 218.14 131.26 C 216.58 134.83 213.63 137.61 212.23 141.27 C 209.25 149.10 205.75 156.79 203.92 165.00 C 202.12 171.84 202.34 179.02 200.74 185.89 C 200.14 189.20 196.59 190.27 193.75 190.87 C 195.27 188.31 197.08 185.81 197.69 182.85 C 199.33 175.20 200.24 167.40 201.99 159.78 C 204.76 151.39 208.14 143.21 211.40 135.01 C 214.61 129.00 217.64 122.89 220.58 116.74 C 222.52 112.95 220.83 108.68 220.31 104.75 Z"
     id="path58" />
  <path
     fill="#2f7b9d"
     d=" M 354.23 104.27 C 357.83 104.29 361.48 104.32 364.99 105.22 C 372.70 107.07 381.01 108.59 388.67 105.69 C 393.30 103.71 398.91 105.14 401.70 109.42 C 399.37 109.40 397.05 109.49 394.73 109.64 C 393.93 108.93 393.14 108.23 392.35 107.53 C 387.21 107.59 382.08 108.89 376.95 107.99 C 372.22 107.16 367.31 108.18 362.65 106.86 C 362.08 106.81 360.93 106.70 360.36 106.64 C 358.04 106.18 355.69 105.86 353.34 105.63 C 353.56 105.29 354.01 104.61 354.23 104.27 Z"
     id="path60" />
  <path
     fill="#2c5060"
     d=" M 202.10 104.07 C 202.51 104.16 203.31 104.34 203.72 104.43 C 205.75 113.92 201.67 123.47 203.45 132.90 C 202.22 135.41 202.32 138.23 202.37 140.94 C 201.53 141.57 200.69 142.21 199.85 142.84 C 198.16 147.06 197.19 151.49 197.15 156.05 C 196.49 155.87 195.16 155.53 194.49 155.35 C 191.91 158.22 189.88 161.64 186.77 163.99 C 180.27 158.71 178.98 149.88 174.94 142.96 C 171.96 137.98 171.26 132.11 169.10 126.79 C 167.49 122.75 165.81 118.72 164.79 114.48 C 168.95 119.92 170.52 126.70 172.62 133.09 C 174.38 138.97 177.79 144.15 179.75 149.95 C 181.08 154.06 183.60 157.58 186.19 160.98 C 190.28 157.98 193.67 153.87 195.27 149.02 C 197.49 142.09 200.55 135.34 201.26 128.03 C 201.78 120.04 203.64 112.07 202.10 104.07 Z"
     id="path62" />
  <path
     fill="#3e6d85"
     d=" M 203.72 104.43 C 205.09 104.88 206.51 105.51 207.29 106.80 C 210.50 110.65 205.89 115.04 205.69 119.18 C 205.70 123.84 205.94 128.73 203.45 132.90 C 201.67 123.47 205.75 113.92 203.72 104.43 Z"
     id="path64" />
  <path
     fill="#5289a8"
     d=" M 592.88 105.68 C 594.27 105.36 595.65 105.04 597.06 104.79 C 602.03 105.28 607.02 104.47 611.99 105.01 C 616.98 105.60 622.44 105.22 626.57 108.59 C 619.21 106.74 611.56 106.06 603.99 106.38 C 600.25 106.60 596.61 105.39 592.88 105.68 Z"
     id="path66" />
  <path
     fill="#477695"
     d=" M 71.87 105.63 C 76.47 108.36 73.17 114.00 71.37 117.49 C 70.94 113.53 70.68 109.49 71.87 105.63 Z"
     id="path68" />
  <path
     fill="#274550"
     d=" M 278.47 105.17 C 279.05 105.91 279.64 106.66 280.24 107.39 C 279.85 110.56 279.54 113.91 277.61 116.59 C 273.87 122.11 271.13 128.24 269.17 134.59 C 268.58 136.31 268.90 138.13 269.20 139.87 C 268.90 140.37 268.60 140.88 268.31 141.39 C 265.54 143.70 264.45 147.43 261.47 149.50 C 260.24 150.42 258.96 151.25 257.68 152.09 C 259.07 148.00 263.04 145.59 264.67 141.64 C 267.10 135.93 268.76 129.92 271.26 124.24 C 272.94 120.38 275.68 116.98 276.71 112.84 C 277.38 110.30 277.92 107.73 278.47 105.17 Z"
     id="path70" />
  <path
     fill="#fdfefd"
     d=" M 353.34 105.63 C 355.69 105.86 358.04 106.18 360.36 106.64 C 360.93 106.70 362.08 106.81 362.65 106.86 C 367.31 108.18 372.22 107.16 376.95 107.99 C 382.08 108.89 387.21 107.59 392.35 107.53 C 393.14 108.23 393.93 108.93 394.73 109.64 C 397.05 109.49 399.37 109.40 401.70 109.42 C 404.55 109.40 407.49 109.64 410.22 108.64 C 411.83 108.71 413.44 108.82 415.06 108.93 C 419.29 108.33 423.77 109.02 427.76 107.14 C 427.55 107.48 427.12 108.15 426.91 108.49 C 425.61 110.40 424.48 112.43 422.99 114.20 C 414.75 113.37 406.44 111.96 398.17 113.48 C 396.31 113.57 394.44 113.59 392.58 113.62 C 391.84 119.17 393.74 125.62 390.10 130.39 C 390.67 131.08 391.24 131.78 391.82 132.49 C 392.00 136.49 392.15 140.72 389.56 144.07 C 390.10 144.35 391.19 144.93 391.73 145.21 C 391.54 146.07 391.36 146.93 391.18 147.80 C 392.03 150.10 392.68 152.53 392.13 154.99 C 391.41 159.10 392.01 163.25 392.39 167.36 C 391.55 168.29 390.71 169.23 389.87 170.17 C 392.75 174.19 392.78 179.17 392.73 183.91 C 391.08 184.89 389.59 186.11 388.11 187.32 C 386.54 187.44 384.97 187.56 383.41 187.67 C 383.75 182.41 383.54 177.14 383.89 171.88 C 384.26 166.26 385.95 160.66 384.80 155.03 C 385.03 149.35 383.78 143.55 385.23 137.98 C 382.57 130.66 383.03 122.76 382.69 115.12 C 382.88 113.43 381.14 112.70 379.78 112.38 C 376.55 111.46 373.15 111.79 369.86 112.20 C 362.98 112.87 355.56 112.37 349.30 115.75 C 348.92 115.92 348.18 116.26 347.81 116.42 C 347.61 116.43 347.21 116.43 347.01 116.44 C 347.40 115.48 347.91 114.59 348.53 113.76 C 348.92 113.33 349.69 112.47 350.07 112.04 C 350.93 109.79 352.00 107.63 353.34 105.63 Z"
     id="path72" />
  <path
     fill="#2e5c73"
     d=" M 481.56 105.41 C 481.76 105.96 482.17 107.06 482.37 107.62 C 482.59 110.20 482.76 112.80 483.27 115.35 C 479.68 120.38 476.73 125.86 474.85 131.76 C 473.44 136.18 470.74 140.14 469.99 144.77 C 467.40 150.55 463.01 155.21 460.01 160.72 C 458.52 161.93 456.64 162.91 455.84 164.74 C 455.33 166.54 455.93 168.41 456.11 170.22 C 455.25 171.75 454.47 173.32 453.74 174.91 C 449.90 178.34 447.43 182.92 444.80 187.27 C 445.64 187.55 447.33 188.10 448.17 188.38 C 448.55 188.22 449.31 187.91 449.69 187.75 L 450.07 189.22 C 448.16 189.10 446.25 188.98 444.35 188.86 C 444.14 186.90 443.25 184.84 444.05 182.91 C 445.75 178.35 449.66 175.16 452.09 171.04 C 454.63 162.99 459.32 155.82 464.18 148.99 C 467.46 142.93 469.99 136.48 472.17 129.96 C 474.43 124.43 477.25 119.16 480.13 113.95 C 480.60 111.09 480.04 108.03 481.56 105.41 Z"
     id="path74" />
  <path
     fill="#3a708d"
     d=" M 148.33 117.18 C 148.08 113.77 148.10 110.34 148.44 106.94 C 148.52 107.63 148.68 109.02 148.77 109.71 C 152.23 113.39 152.05 119.23 156.48 122.24 C 156.51 125.58 157.91 128.62 159.53 131.46 C 160.65 131.88 161.77 132.30 162.90 132.71 C 162.67 133.80 162.45 134.89 162.22 135.98 C 163.35 139.87 164.46 143.85 166.79 147.23 C 168.38 149.47 168.96 152.18 169.54 154.81 C 170.43 155.46 171.32 156.12 172.21 156.78 C 172.52 162.76 175.69 168.04 176.77 173.85 C 177.80 178.59 179.53 183.15 181.53 187.56 C 180.05 186.77 178.10 186.43 177.15 184.89 C 174.20 180.11 173.37 174.44 171.79 169.14 C 169.67 162.20 167.85 155.09 164.22 148.73 C 161.36 143.84 160.58 138.07 157.70 133.20 C 154.46 127.92 152.52 121.86 148.33 117.18 Z"
     id="path76" />
  <path
     fill="#335766"
     d=" M 568.73 106.57 C 569.46 106.83 570.91 107.35 571.64 107.61 C 571.39 108.15 570.90 109.24 570.66 109.79 C 572.84 114.46 572.24 120.06 575.50 124.27 C 575.71 122.15 575.92 120.04 576.01 117.91 C 576.56 124.01 577.25 130.10 577.49 136.22 C 578.18 137.15 578.87 138.09 579.57 139.02 C 579.03 139.48 577.95 140.38 577.41 140.83 C 577.43 141.30 577.46 142.23 577.47 142.69 C 576.47 146.46 574.34 150.00 574.48 154.01 C 574.44 158.09 575.39 162.08 576.00 166.10 C 577.25 172.59 573.45 178.94 575.40 185.41 C 575.24 185.89 574.93 186.86 574.77 187.34 C 573.29 186.28 571.22 185.23 571.52 183.06 C 571.32 177.98 573.11 173.10 573.37 168.06 C 572.68 161.09 569.56 153.63 572.99 146.90 C 574.24 137.73 572.95 128.09 569.72 119.45 C 569.62 115.11 567.71 110.92 568.73 106.57 Z"
     id="path78" />
  <path
     fill="#35586a"
     d=" M 280.24 107.39 C 285.42 113.35 290.06 119.87 293.28 127.09 C 296.00 133.58 299.67 139.70 303.97 145.26 C 303.44 147.39 303.53 150.13 301.44 151.45 C 298.76 153.09 295.67 153.90 292.75 154.97 C 290.92 155.22 289.09 155.45 287.24 155.35 C 281.78 151.55 274.28 153.04 269.34 148.24 C 270.91 146.33 271.20 143.85 271.63 141.51 C 277.44 134.66 278.57 125.38 283.51 118.02 C 283.21 117.46 282.62 116.34 282.32 115.77 C 281.49 116.11 280.67 116.47 279.88 116.87 C 278.07 120.38 275.86 123.69 274.45 127.39 C 272.77 131.58 271.59 136.00 269.20 139.87 C 268.90 138.13 268.58 136.31 269.17 134.59 C 271.13 128.24 273.87 122.11 277.61 116.59 C 279.54 113.91 279.85 110.56 280.24 107.39 Z"
     id="path80" />
  <path
     fill="#427b99"
     d=" M 482.37 107.62 C 483.99 109.69 485.88 111.53 487.80 113.33 C 489.70 116.94 492.23 120.16 494.01 123.83 C 494.95 125.89 496.75 127.30 498.40 128.77 C 497.64 129.42 496.90 130.06 496.15 130.71 C 494.09 128.17 492.28 125.32 489.64 123.32 C 487.48 122.47 485.45 124.46 483.52 125.21 C 483.09 125.18 482.22 125.14 481.79 125.11 C 483.03 122.75 484.55 120.52 485.42 117.98 C 484.75 117.07 484.03 116.19 483.27 115.35 C 482.76 112.80 482.59 110.20 482.37 107.62 Z"
     id="path82" />
  <path
     fill="#4081a1"
     d=" M 571.64 107.61 C 574.70 110.14 575.37 114.22 576.01 117.91 C 575.92 120.04 575.71 122.15 575.50 124.27 C 572.24 120.06 572.84 114.46 570.66 109.79 C 570.90 109.24 571.39 108.15 571.64 107.61 Z"
     id="path84" />
  <path
     fill="#4584a3"
     d=" M 588.29 109.70 C 594.79 109.52 601.23 108.43 607.75 108.59 C 607.87 109.06 608.12 110.00 608.24 110.47 C 606.27 110.30 604.32 110.09 602.36 109.97 C 598.91 109.68 595.27 109.70 592.05 111.11 C 589.23 112.69 587.65 115.98 584.40 116.89 C 583.77 113.65 585.93 111.44 588.29 109.70 Z"
     id="path86" />
  <path
     fill="#457997"
     d=" M 607.75 108.59 C 608.19 108.60 609.07 108.61 609.51 108.61 C 612.17 109.61 614.89 110.45 617.54 111.49 C 620.34 112.64 622.04 115.28 623.55 117.77 C 622.71 120.24 621.97 122.76 621.07 125.21 C 620.87 125.46 620.47 125.96 620.27 126.21 C 619.37 125.38 618.47 124.56 617.58 123.74 C 618.73 121.27 618.99 118.07 616.92 115.99 C 614.34 113.69 611.01 112.50 608.24 110.47 C 608.12 110.00 607.87 109.06 607.75 108.59 Z"
     id="path88" />
  <path
     fill="#305d74"
     d=" M 422.99 114.20 C 424.48 112.43 425.61 110.40 426.91 108.49 C 427.18 109.74 427.46 111.00 427.75 112.26 C 426.61 114.28 424.77 115.77 423.22 117.46 C 415.85 118.18 408.24 114.94 401.12 117.83 C 397.37 119.13 396.92 123.67 396.53 127.04 C 396.29 133.29 395.12 139.56 396.02 145.80 C 396.93 153.54 396.52 161.35 395.93 169.10 C 396.21 174.49 396.95 179.87 396.42 185.29 C 395.87 185.50 394.77 185.92 394.23 186.13 C 394.31 185.48 394.48 184.17 394.57 183.51 C 395.18 178.42 393.92 173.35 394.30 168.27 C 394.74 160.86 395.06 153.38 394.00 146.01 C 393.62 143.52 394.01 141.02 394.31 138.54 C 394.91 133.88 394.11 129.17 394.71 124.50 C 395.92 120.84 396.99 117.14 398.17 113.48 C 406.44 111.96 414.75 113.37 422.99 114.20 Z"
     id="path90" />
  <path
     fill="#41718d"
     d=" M 592.05 111.11 C 595.27 109.70 598.91 109.68 602.36 109.97 C 598.52 111.14 594.58 112.18 591.05 114.12 C 588.96 115.16 588.21 117.53 587.82 119.66 C 587.02 124.11 586.67 128.64 586.18 133.13 C 586.56 133.30 587.34 133.63 587.72 133.79 C 588.13 135.40 588.55 137.02 588.98 138.63 C 595.85 136.57 603.39 136.41 609.71 132.73 C 613.33 130.78 615.54 127.17 617.58 123.74 C 618.47 124.56 619.37 125.38 620.27 126.21 C 617.32 129.13 615.67 133.48 611.58 135.07 C 605.57 138.95 598.20 138.95 591.59 141.22 C 589.67 143.33 587.42 145.09 584.78 146.22 C 585.00 140.72 585.56 135.24 585.56 129.73 C 584.59 129.04 583.64 128.34 582.69 127.65 C 583.37 126.60 584.06 125.55 584.76 124.50 C 584.63 121.97 584.45 119.43 584.40 116.89 C 587.65 115.98 589.23 112.69 592.05 111.11 Z"
     id="path92" />
  <path
     fill="#284c5a"
     d=" M 591.05 114.12 C 594.58 112.18 598.52 111.14 602.36 109.97 C 604.32 110.09 606.27 110.30 608.24 110.47 C 611.01 112.50 614.34 113.69 616.92 115.99 C 618.99 118.07 618.73 121.27 617.58 123.74 C 615.54 127.17 613.33 130.78 609.71 132.73 C 603.39 136.41 595.85 136.57 588.98 138.63 C 588.55 137.02 588.13 135.40 587.72 133.79 C 587.34 133.63 586.56 133.30 586.18 133.13 C 586.67 128.64 587.02 124.11 587.82 119.66 C 588.21 117.53 588.96 115.16 591.05 114.12 Z"
     id="path94" />
  <path
     fill="#37657c"
     d=" M 87.52 109.99 C 89.80 111.96 92.15 114.04 93.42 116.83 C 99.46 129.98 105.37 143.31 113.56 155.28 C 115.53 158.81 118.78 161.71 119.64 165.79 C 120.90 170.42 122.77 174.85 124.78 179.20 C 127.64 184.42 132.65 188.73 133.45 194.91 C 133.68 198.46 130.05 200.21 127.22 201.19 C 128.71 199.28 130.29 197.45 131.96 195.69 C 128.34 189.64 124.58 183.49 119.62 178.45 C 119.46 176.38 119.66 174.20 118.73 172.28 C 115.54 165.55 112.35 158.81 108.63 152.36 C 106.47 149.13 104.17 146.01 102.12 142.71 C 100.90 138.73 98.69 135.17 96.04 132.00 C 95.54 127.23 92.55 123.24 89.61 119.65 C 89.69 119.00 89.84 117.70 89.92 117.05 C 89.00 115.74 88.07 114.44 87.25 113.07 C 87.32 112.30 87.46 110.76 87.52 109.99 Z"
     id="path96" />
  <path
     fill="#387692"
     d=" M 369.86 112.20 C 373.15 111.79 376.55 111.46 379.78 112.38 C 381.14 112.70 382.88 113.43 382.69 115.12 C 383.03 122.76 382.57 130.66 385.23 137.98 C 383.78 143.55 385.03 149.35 384.80 155.03 C 385.95 160.66 384.26 166.26 383.89 171.88 C 383.38 176.22 382.87 180.56 382.20 184.87 C 380.83 179.65 381.50 174.24 382.08 168.97 C 383.04 156.08 382.20 143.17 380.78 130.35 C 380.66 126.25 381.49 121.94 380.11 117.99 C 378.68 115.79 376.60 113.60 373.97 113.02 C 365.56 112.39 357.76 118.06 349.30 115.75 C 355.56 112.37 362.98 112.87 369.86 112.20 Z"
     id="path98" />
  <path
     fill="#43718b"
     d=" M 73.44 120.89 C 75.10 117.85 76.64 114.74 77.90 111.51 C 79.76 115.30 82.29 118.72 84.18 122.50 C 85.11 124.49 86.77 125.94 88.37 127.38 C 88.14 132.63 92.09 136.45 94.46 140.72 C 95.27 142.26 96.85 143.07 98.20 144.06 C 98.28 145.51 98.37 146.97 98.45 148.43 C 98.91 148.70 99.82 149.24 100.28 149.50 C 101.04 151.71 101.85 153.91 103.00 155.95 C 106.54 162.17 109.28 168.80 112.78 175.04 C 116.45 181.59 118.50 188.95 122.63 195.25 C 123.65 197.04 123.88 199.13 124.45 201.09 C 122.40 200.06 120.72 198.41 119.96 196.22 C 115.40 185.68 111.35 174.73 104.56 165.37 C 102.24 162.43 100.32 159.00 97.09 156.92 L 96.43 156.76 C 96.45 155.68 96.45 154.59 96.43 153.52 C 95.99 149.54 95.63 145.30 93.16 141.97 C 89.09 136.70 86.90 130.28 82.88 125.00 C 80.73 121.94 76.79 121.63 73.44 120.89 Z"
     id="path100" />
  <path
     fill="#325f6f"
     d=" M 349.30 115.75 C 357.76 118.06 365.56 112.39 373.97 113.02 C 376.60 113.60 378.68 115.79 380.11 117.99 C 381.49 121.94 380.66 126.25 380.78 130.35 C 380.20 126.71 379.26 123.15 378.18 119.63 C 377.90 118.63 377.62 117.62 377.34 116.63 C 369.91 114.46 362.36 117.09 354.98 118.14 C 352.70 118.82 351.06 116.78 349.30 115.75 Z"
     id="path102" />
  <path
     fill="#93b3c9"
     d=" M 633.52 112.65 C 634.11 115.21 633.96 117.85 633.67 120.44 C 633.27 120.78 632.47 121.46 632.07 121.80 C 631.37 125.32 628.50 127.59 626.10 129.98 C 626.34 128.98 626.59 127.99 626.85 126.99 C 628.06 126.04 629.28 125.09 630.50 124.13 C 630.51 123.44 630.53 122.05 630.54 121.36 C 631.22 120.71 631.91 120.05 632.60 119.40 C 632.88 117.15 633.18 114.90 633.52 112.65 Z"
     id="path104" />
  <path
     fill="#249dc6"
     d=" M 390.10 130.39 C 393.74 125.62 391.84 119.17 392.58 113.62 C 394.44 113.59 396.31 113.57 398.17 113.48 C 396.99 117.14 395.92 120.84 394.71 124.50 C 393.95 126.45 393.13 128.37 392.36 130.31 C 391.60 130.33 390.85 130.36 390.10 130.39 Z"
     id="path106" />
  <path
     fill="#0e2027"
     d=" M 591.77 117.74 C 595.53 114.48 601.24 114.00 606.02 114.85 C 609.11 115.51 613.01 116.13 614.57 119.26 C 614.46 124.19 611.07 128.47 607.00 130.94 C 602.31 133.51 596.80 133.73 591.59 133.54 C 589.45 128.38 590.95 122.98 591.77 117.74 Z"
     id="path108" />
  <path
     fill="#203742"
     d=" M 354.98 118.14 C 362.36 117.09 369.91 114.46 377.34 116.63 C 377.62 117.62 377.90 118.63 378.18 119.63 C 378.02 121.52 377.80 123.40 377.67 125.29 C 376.48 123.43 375.50 121.44 374.57 119.44 C 366.05 116.73 357.69 122.32 349.14 120.40 C 347.50 119.65 346.79 117.75 345.67 116.43 L 347.01 116.44 C 347.21 116.43 347.61 116.43 347.81 116.42 C 348.18 116.26 348.92 115.92 349.30 115.75 C 351.06 116.78 352.70 118.82 354.98 118.14 Z"
     id="path110" />
  <path
     fill="#1c3742"
     d=" M 401.12 117.83 C 408.24 114.94 415.85 118.18 423.22 117.46 C 422.33 118.49 421.61 120.13 419.96 119.93 C 413.55 119.61 406.94 118.34 400.71 120.59 C 397.90 128.67 396.70 137.46 398.51 145.91 C 399.86 150.92 398.00 155.96 398.53 161.03 C 398.84 165.28 397.05 169.48 398.16 173.71 C 398.46 177.52 400.04 182.60 396.42 185.29 C 396.95 179.87 396.21 174.49 395.93 169.10 C 396.52 161.35 396.93 153.54 396.02 145.80 C 395.12 139.56 396.29 133.29 396.53 127.04 C 396.92 123.67 397.37 119.13 401.12 117.83 Z"
     id="path112" />
  <path
     fill="#2b3942"
     d=" M 378.18 119.63 C 379.26 123.15 380.20 126.71 380.78 130.35 C 382.20 143.17 383.04 156.08 382.08 168.97 C 381.50 174.24 380.83 179.65 382.20 184.87 C 382.66 186.86 383.05 189.19 384.94 190.34 C 388.17 189.78 391.05 188.09 393.89 186.53 C 393.01 190.51 388.27 190.55 385.08 191.26 C 381.32 192.33 380.51 187.88 379.74 185.27 C 377.75 173.57 381.05 161.77 380.02 150.03 C 379.29 141.77 380.63 133.23 377.67 125.29 C 377.80 123.40 378.02 121.52 378.18 119.63 Z"
     id="path114" />
  <path
     fill="#315970"
     d=" M 73.44 120.89 C 76.79 121.63 80.73 121.94 82.88 125.00 C 86.90 130.28 89.09 136.70 93.16 141.97 C 95.63 145.30 95.99 149.54 96.43 153.52 C 91.32 152.50 86.15 153.66 81.05 154.11 C 80.77 154.03 80.22 153.88 79.94 153.80 C 76.23 152.44 72.24 152.84 68.39 152.31 C 65.54 151.57 63.66 149.05 61.53 147.19 C 62.90 145.06 63.53 142.61 63.95 140.14 C 69.03 134.79 70.43 127.37 73.44 120.89 Z"
     id="path116" />
  <path
     fill="#2b6d84"
     d=" M 483.52 125.21 C 485.45 124.46 487.48 122.47 489.64 123.32 C 492.28 125.32 494.09 128.17 496.15 130.71 C 496.90 130.06 497.64 129.42 498.40 128.77 C 498.20 132.40 500.11 135.52 502.20 138.30 C 501.90 139.21 501.60 140.12 501.31 141.04 C 497.46 135.53 494.35 129.08 488.48 125.39 C 486.22 124.57 485.38 127.10 484.49 128.62 C 481.64 134.44 478.10 140.00 473.32 144.41 C 473.42 143.77 473.61 142.49 473.71 141.85 C 477.41 136.80 479.93 131.07 481.79 125.11 C 482.22 125.14 483.09 125.18 483.52 125.21 Z"
     id="path118" />
  <path
     fill="#20343e"
     d=" M 73.56 129.38 C 74.58 126.86 76.24 123.17 79.65 124.54 C 83.20 126.59 84.61 130.93 86.57 134.33 C 88.69 139.28 94.02 143.34 92.45 149.27 C 85.08 150.80 77.37 151.21 69.96 149.78 C 68.09 149.24 64.68 148.61 65.48 145.91 C 66.94 139.89 71.26 135.08 73.56 129.38 Z"
     id="path120" />
  <path
     fill="#1f88ad"
     d=" M 392.36 130.31 C 393.13 128.37 393.95 126.45 394.71 124.50 C 394.11 129.17 394.91 133.88 394.31 138.54 C 394.01 141.02 393.62 143.52 394.00 146.01 C 395.06 153.38 394.74 160.86 394.30 168.27 C 393.92 173.35 395.18 178.42 394.57 183.51 L 392.73 183.91 C 392.78 179.17 392.75 174.19 389.87 170.17 C 390.71 169.23 391.55 168.29 392.39 167.36 C 392.01 163.25 391.41 159.10 392.13 154.99 C 392.68 152.53 392.03 150.10 391.18 147.80 C 391.36 146.93 391.54 146.07 391.73 145.21 C 391.19 144.93 390.10 144.35 389.56 144.07 C 392.15 140.72 392.00 136.49 391.82 132.49 C 391.24 131.78 390.67 131.08 390.10 130.39 C 390.85 130.36 391.60 130.33 392.36 130.31 Z"
     id="path122" />
  <path
     fill="#335461"
     d=" M 484.49 128.62 C 485.38 127.10 486.22 124.57 488.48 125.39 C 494.35 129.08 497.46 135.53 501.31 141.04 C 503.37 143.37 504.94 146.07 505.87 149.04 C 504.20 149.96 502.55 150.90 500.85 151.73 C 493.64 152.23 486.42 152.58 479.23 153.22 C 475.99 153.61 473.42 151.17 470.73 149.80 L 470.94 149.39 C 471.81 147.77 472.76 146.18 473.32 144.41 C 478.10 140.00 481.64 134.44 484.49 128.62 Z"
     id="path124" />
  <path
     fill="#1f2f37"
     d=" M 283.24 128.28 C 283.91 126.29 285.96 126.36 287.68 126.29 C 290.49 129.53 293.37 132.74 295.36 136.56 C 297.14 139.96 300.14 142.93 300.71 146.83 C 299.28 150.28 295.10 150.47 291.93 151.04 C 285.89 152.16 279.47 151.34 274.11 148.26 C 275.43 140.93 280.12 134.89 283.24 128.28 Z"
     id="path126" />
  <path
     fill="#1f88ad"
     d=" M 293.28 127.09 C 293.99 127.28 295.43 127.66 296.14 127.85 C 296.45 130.39 296.63 133.07 298.13 135.24 C 300.39 138.59 302.21 142.35 305.36 144.99 C 305.48 145.62 305.71 146.86 305.83 147.49 C 305.21 146.74 304.59 145.99 303.97 145.26 C 299.67 139.70 296.00 133.58 293.28 127.09 Z"
     id="path128" />
  <path
     fill="#132228"
     d=" M 483.96 133.85 C 485.09 131.56 486.39 127.91 489.59 128.47 C 494.02 132.93 496.98 138.53 500.10 143.92 C 500.80 145.46 500.63 147.23 500.88 148.87 C 493.88 149.85 486.74 151.13 479.67 150.27 C 476.44 149.73 477.33 145.73 477.61 143.41 C 479.21 139.90 482.63 137.54 483.96 133.85 Z"
     id="path130" />
  <path
     fill="#2f7b9d"
     d=" M 303.83 134.05 C 303.94 132.44 304.06 130.85 304.18 129.25 C 306.60 135.04 309.31 140.75 312.87 145.94 C 315.75 150.18 318.61 154.60 319.68 159.70 C 316.34 154.61 313.27 149.36 309.83 144.35 C 308.87 141.70 307.92 138.99 306.08 136.81 C 305.37 135.85 304.59 134.95 303.83 134.05 Z"
     id="path132" />
  <path
     fill="#121b1e"
     d=" M 70.74 142.50 C 72.67 138.02 75.15 133.63 79.02 130.54 C 83.52 134.37 85.71 140.04 88.50 145.09 C 83.88 147.92 78.21 147.76 73.05 146.97 C 71.08 146.73 70.10 144.20 70.74 142.50 Z"
     id="path134" />
  <path
     fill="#13181a"
     d=" M 284.40 132.41 C 285.38 132.11 286.37 131.82 287.36 131.53 C 292.60 134.97 294.73 140.88 297.83 146.01 C 295.76 148.75 292.14 148.92 289.01 149.13 C 285.30 149.39 281.67 148.44 278.10 147.59 C 278.11 141.87 282.42 137.52 284.40 132.41 Z"
     id="path136" />
  <path
     fill="#87aac3"
     d=" M 168.23 133.09 C 169.35 134.75 171.83 136.71 169.21 138.41 C 169.13 139.05 168.98 140.35 168.90 141.00 C 169.94 140.82 170.98 140.65 172.02 140.47 C 172.38 141.93 172.73 143.40 173.08 144.86 C 172.54 143.86 171.96 142.88 171.39 141.90 C 170.62 141.75 169.08 141.45 168.31 141.30 C 167.64 138.61 168.31 135.82 168.23 133.09 Z"
     id="path138" />
  <path
     fill="#2480a4"
     d=" M 608.86 139.86 C 614.11 139.19 618.25 135.90 622.61 133.23 C 622.99 134.00 623.75 135.55 624.13 136.33 C 621.30 138.28 618.23 139.86 614.93 140.85 C 613.51 141.11 612.09 141.31 610.67 141.50 C 610.06 140.95 609.45 140.40 608.86 139.86 Z"
     id="path140" />
  <path
     fill="#2b4c5e"
     d=" M 201.06 152.24 C 202.66 146.50 206.37 141.56 206.88 135.49 C 207.04 136.15 207.35 137.47 207.50 138.13 C 208.81 137.11 210.13 136.09 211.40 135.01 C 208.14 143.21 204.76 151.39 201.99 159.78 C 200.24 167.40 199.33 175.20 197.69 182.85 C 197.08 185.81 195.27 188.31 193.75 190.87 C 189.44 191.51 184.86 192.20 180.73 190.41 C 181.92 189.79 183.12 189.19 184.34 188.63 C 184.77 188.66 185.63 188.73 186.06 188.77 C 189.37 189.93 194.03 189.10 194.96 185.19 C 197.16 177.60 199.32 169.73 198.36 161.74 C 198.95 158.49 199.98 155.35 201.06 152.24 Z"
     id="path142" />
  <path
     fill="#9cc7db"
     d=" M 306.08 136.81 C 307.92 138.99 308.87 141.70 309.83 144.35 C 308.29 141.98 307.19 139.38 306.08 136.81 Z"
     id="path144" />
  <path
     fill="#427e9c"
     d=" M 502.20 138.30 C 504.23 142.07 508.28 144.63 508.78 149.14 C 509.57 150.21 510.36 151.29 511.17 152.36 C 503.89 154.76 496.08 155.25 488.47 155.33 C 493.29 154.18 498.21 153.57 503.06 152.52 C 502.50 152.33 501.40 151.93 500.85 151.73 C 502.55 150.90 504.20 149.96 505.87 149.04 C 504.94 146.07 503.37 143.37 501.31 141.04 C 501.60 140.12 501.90 139.21 502.20 138.30 Z"
     id="path146" />
  <path
     fill="#4383a0"
     d=" M 603.09 141.72 C 605.00 141.08 606.91 140.41 608.86 139.86 C 609.45 140.40 610.06 140.95 610.67 141.50 C 610.17 142.98 609.26 144.40 609.28 146.00 C 610.53 149.79 613.70 152.47 616.36 155.29 C 616.29 155.81 616.14 156.85 616.07 157.38 C 613.53 155.02 611.23 152.43 608.98 149.80 C 608.40 149.65 607.24 149.34 606.66 149.19 C 606.60 148.40 606.47 146.81 606.41 146.02 C 605.08 146.31 603.74 146.60 602.43 146.90 C 602.85 145.86 603.29 144.82 603.73 143.79 C 603.51 143.10 603.29 142.41 603.09 141.72 Z"
     id="path148" />
  <path
     fill="#61a3c1"
     d=" M 584.78 146.22 C 587.42 145.09 589.67 143.33 591.59 141.22 C 590.73 143.02 590.05 144.96 590.73 146.95 C 588.87 147.60 587.00 148.21 585.13 148.82 C 585.05 148.17 584.87 146.87 584.78 146.22 Z"
     id="path150" />
  <path
     fill="#3f6881"
     d=" M 610.67 141.50 C 612.09 141.31 613.51 141.11 614.93 140.85 C 612.93 142.67 610.29 145.46 612.63 148.12 C 617.85 154.61 623.29 160.96 628.23 167.69 C 629.91 170.14 632.22 172.10 634.95 173.29 C 637.59 174.43 639.81 176.30 641.62 178.52 C 646.64 185.08 655.33 187.74 659.56 195.01 C 655.21 192.55 650.32 190.71 646.95 186.86 C 635.22 180.74 627.46 169.62 617.84 160.92 C 617.80 160.41 617.73 159.40 617.69 158.89 C 617.29 158.51 616.48 157.75 616.07 157.38 C 616.14 156.85 616.29 155.81 616.36 155.29 C 613.70 152.47 610.53 149.79 609.28 146.00 C 609.26 144.40 610.17 142.98 610.67 141.50 Z"
     id="path152" />
  <path
     fill="#2f5b71"
     d=" M 261.47 149.50 C 264.45 147.43 265.54 143.70 268.31 141.39 C 268.27 142.28 268.21 144.08 268.18 144.98 C 267.77 145.34 266.96 146.06 266.55 146.41 C 266.47 146.94 266.32 147.99 266.24 148.52 C 262.11 152.35 260.19 157.73 257.63 162.60 C 255.57 166.64 253.13 170.53 251.82 174.90 C 247.80 178.19 245.26 182.82 242.80 187.30 C 243.66 187.60 245.38 188.21 246.24 188.52 C 248.02 187.23 250.19 186.14 250.95 183.91 C 254.30 175.91 258.53 168.31 262.91 160.84 C 267.88 161.58 272.74 162.84 277.69 163.71 C 273.73 164.37 269.63 163.90 265.72 164.81 C 262.20 166.56 260.56 170.43 258.70 173.67 C 256.34 177.80 255.25 182.56 252.59 186.51 C 250.67 189.39 246.80 188.90 243.83 189.40 C 243.27 189.11 242.14 188.54 241.58 188.26 C 241.48 185.60 241.24 182.80 242.44 180.32 C 243.88 177.07 247.54 175.52 248.90 172.20 C 251.82 165.49 255.69 159.19 257.68 152.09 C 258.96 151.25 260.24 150.42 261.47 149.50 Z"
     id="path154" />
  <path
     fill="#37789a"
     d=" M 574.48 154.01 C 574.34 150.00 576.47 146.46 577.47 142.69 C 578.15 150.13 576.92 157.58 577.84 164.99 C 578.65 165.76 579.47 166.53 580.29 167.29 C 579.34 168.42 578.38 169.52 577.41 170.63 C 577.25 175.59 577.02 180.67 575.40 185.41 C 573.45 178.94 577.25 172.59 576.00 166.10 C 575.39 162.08 574.44 158.09 574.48 154.01 Z"
     id="path156" />
  <path
     fill="#407895"
     d=" M 173.08 144.86 C 174.26 145.89 175.79 146.76 176.21 148.39 C 177.84 153.26 179.77 158.11 182.71 162.36 C 183.95 163.94 185.88 165.53 188.01 165.26 C 189.63 164.58 190.92 163.36 192.32 162.33 C 192.27 162.81 192.17 163.75 192.13 164.22 C 191.80 165.24 191.46 166.25 191.11 167.26 C 188.54 167.52 185.96 167.80 183.40 168.13 C 182.08 165.56 180.77 163.00 179.67 160.33 C 178.72 159.93 177.77 159.53 176.83 159.14 C 176.78 154.11 174.49 149.58 173.08 144.86 Z"
     id="path158" />
  <path
     fill="#447e9f"
     d=" M 303.97 145.26 C 304.59 145.99 305.21 146.74 305.83 147.49 C 306.86 149.14 307.90 150.78 308.93 152.44 C 303.82 154.64 298.19 154.47 292.75 154.97 C 295.67 153.90 298.76 153.09 301.44 151.45 C 303.53 150.13 303.44 147.39 303.97 145.26 Z"
     id="path160" />
  <path
     fill="#407796"
     d=" M 58.83 153.28 C 59.62 151.20 60.46 149.14 61.53 147.19 C 63.66 149.05 65.54 151.57 68.39 152.31 C 72.24 152.84 76.23 152.44 79.94 153.80 C 72.90 153.72 65.85 153.96 58.83 153.28 Z"
     id="path162" />
  <path
     fill="#3d7896"
     d=" M 585.13 148.82 C 587.00 148.21 588.87 147.60 590.73 146.95 C 596.65 149.65 599.63 156.46 606.16 157.95 C 606.75 159.53 607.35 161.12 608.15 162.61 C 607.46 162.57 606.09 162.48 605.40 162.44 C 602.79 157.97 597.60 156.42 593.93 153.09 C 592.56 151.67 590.61 151.54 588.78 151.38 C 588.10 156.91 587.20 162.46 587.59 168.04 C 587.89 171.64 587.23 175.20 586.39 178.68 C 584.42 173.26 585.47 167.51 584.89 161.92 C 584.52 157.53 586.13 153.18 585.13 148.82 Z"
     id="path164" />
  <path
     fill="#327997"
     d=" M 268.61 149.28 C 268.80 149.02 269.16 148.50 269.34 148.24 C 274.28 153.04 281.78 151.55 287.24 155.35 C 280.46 155.35 273.62 155.68 266.90 154.57 C 267.45 152.80 268.02 151.04 268.61 149.28 Z"
     id="path166" />
  <path
     fill="#2e4b5d"
     d=" M 45.49 156.38 C 45.56 153.16 47.55 149.42 51.14 149.33 C 49.51 152.16 48.07 155.40 49.59 158.61 C 48.93 162.99 47.97 167.49 44.56 170.62 C 44.47 171.20 44.28 172.38 44.18 172.97 C 40.13 176.75 37.24 181.56 34.56 186.36 C 36.17 186.53 37.80 186.93 39.43 186.72 C 42.79 185.60 43.71 181.90 45.11 179.07 C 48.16 172.53 51.37 166.02 55.16 159.87 C 58.78 158.49 62.72 158.48 66.50 159.05 C 68.21 159.56 69.91 160.10 71.60 160.64 C 72.81 161.46 73.97 162.34 75.17 163.16 C 68.59 163.84 60.36 161.67 55.63 167.69 C 51.60 173.52 50.17 180.96 45.28 186.27 C 42.61 189.38 37.33 189.13 34.38 186.66 C 31.80 182.81 34.48 178.12 36.92 174.92 C 41.36 169.66 45.02 163.39 45.49 156.38 Z"
     id="path168" />
  <path
     fill="#3a6e8a"
     d=" M 470.73 149.80 C 473.42 151.17 475.99 153.61 479.23 153.22 C 486.42 152.58 493.64 152.23 500.85 151.73 C 501.40 151.93 502.50 152.33 503.06 152.52 C 498.21 153.57 493.29 154.18 488.47 155.33 C 481.93 155.31 475.30 155.77 468.85 154.43 C 469.45 152.88 470.02 151.31 470.73 149.80 Z"
     id="path170" />
  <path
     fill="#2480a4"
     d=" M 516.71 150.97 C 518.26 151.31 519.82 151.65 521.38 152.01 C 521.21 154.10 521.05 156.20 520.91 158.30 C 519.61 155.81 518.36 153.26 516.71 150.97 Z"
     id="path172" />
  <path
     fill="#30596d"
     d=" M 588.78 151.38 C 590.61 151.54 592.56 151.67 593.93 153.09 C 597.60 156.42 602.79 157.97 605.40 162.44 C 608.54 167.91 614.10 171.11 618.32 175.60 C 621.33 178.56 624.35 181.58 626.47 185.28 C 621.49 182.46 618.65 177.28 614.12 173.92 C 607.83 169.24 603.48 162.35 596.66 158.32 C 595.10 157.40 593.24 157.41 591.52 157.13 C 590.02 162.30 589.43 167.70 590.17 173.04 C 590.88 177.86 589.54 183.37 585.28 186.19 C 582.75 188.19 579.36 187.55 576.39 187.71 C 578.67 185.58 581.66 184.73 584.49 183.64 C 586.35 182.66 586.30 180.49 586.39 178.68 C 587.23 175.20 587.89 171.64 587.59 168.04 C 587.20 162.46 588.10 156.91 588.78 151.38 Z"
     id="path174" />
  <path
     fill="#1a7494"
     d=" M 76.88 157.84 C 83.43 157.92 89.88 156.33 96.43 156.76 L 97.09 156.92 C 94.31 158.72 91.54 160.99 88.10 161.27 C 82.61 161.73 77.06 161.34 71.60 160.64 C 69.91 160.10 68.21 159.56 66.50 159.05 C 69.67 157.07 73.41 158.49 76.88 157.84 Z"
     id="path176" />
  <path
     fill="#174556"
     d=" M 97.09 156.92 C 100.32 159.00 102.24 162.43 104.56 165.37 C 104.71 167.36 104.86 169.35 105.28 171.30 C 103.13 168.63 101.34 165.08 97.69 164.29 C 90.31 162.53 82.51 164.67 75.17 163.16 C 73.97 162.34 72.81 161.46 71.60 160.64 C 77.06 161.34 82.61 161.73 88.10 161.27 C 91.54 160.99 94.31 158.72 97.09 156.92 Z"
     id="path178" />
  <path
     fill="#1e82a6"
     d=" M 494.11 158.64 C 500.45 157.69 506.95 159.57 513.17 157.59 C 513.47 158.16 514.05 159.30 514.35 159.86 C 511.04 160.28 507.71 160.55 504.39 160.82 C 498.22 161.56 492.14 160.26 486.06 159.59 C 480.38 161.45 474.64 163.12 468.94 164.91 C 466.52 165.86 464.29 168.06 461.51 167.29 C 462.71 165.03 463.95 162.78 465.25 160.56 C 469.84 159.56 474.75 161.06 479.13 159.09 C 484.12 159.76 489.16 159.38 494.11 158.64 Z"
     id="path180" />
  <path
     fill="#192f38"
     d=" M 591.52 157.13 C 593.24 157.41 595.10 157.40 596.66 158.32 C 603.48 162.35 607.83 169.24 614.12 173.92 C 618.65 177.28 621.49 182.46 626.47 185.28 C 628.80 188.01 631.43 190.48 634.34 192.59 C 638.43 195.55 641.92 199.84 647.19 200.64 C 648.38 200.38 649.58 200.11 650.79 199.83 C 654.19 199.94 657.59 199.98 661.00 199.95 C 658.08 202.50 653.70 202.18 650.04 202.60 C 644.90 202.24 638.93 201.87 635.26 197.76 C 631.93 194.35 627.84 191.88 624.18 188.89 C 616.08 180.94 608.39 172.50 599.26 165.69 C 597.77 164.49 595.18 164.30 594.19 166.20 C 592.73 171.44 595.09 177.35 592.36 182.33 C 590.66 186.36 586.14 187.58 582.64 189.54 C 579.70 191.24 576.33 189.80 573.52 188.61 L 574.51 188.14 C 574.98 188.03 575.92 187.82 576.39 187.71 C 579.36 187.55 582.75 188.19 585.28 186.19 C 589.54 183.37 590.88 177.86 590.17 173.04 C 589.43 167.70 590.02 162.30 591.52 157.13 Z"
     id="path182" />
  <path
     fill="#1483a3"
     d=" M 268.96 159.89 C 271.74 160.46 274.69 160.61 277.04 158.74 C 277.47 158.89 278.31 159.18 278.73 159.33 C 278.38 160.79 278.02 162.24 277.69 163.71 C 272.74 162.84 267.88 161.58 262.91 160.84 C 264.91 160.45 266.94 160.19 268.96 159.89 Z"
     id="path184" />
  <path
     fill="#235f7e"
     d=" M 278.73 159.33 C 286.47 160.20 294.10 157.58 301.84 158.54 C 304.81 160.13 307.69 161.90 310.32 164.02 C 304.87 163.27 299.55 161.04 293.97 161.62 C 288.53 162.18 283.08 162.75 277.69 163.71 C 278.02 162.24 278.38 160.79 278.73 159.33 Z"
     id="path186" />
  <path
     fill="#3d84a7"
     d=" M 301.84 158.54 C 304.97 158.74 308.08 158.24 311.14 157.60 C 312.51 160.21 313.88 162.83 315.30 165.42 C 316.62 169.86 319.02 173.85 320.80 178.11 C 322.64 181.30 324.61 184.53 324.66 188.35 C 321.40 185.79 320.95 181.42 318.93 178.03 C 316.52 173.92 315.29 169.11 312.01 165.54 C 311.59 165.16 310.74 164.40 310.32 164.02 C 307.69 161.90 304.81 160.13 301.84 158.54 Z"
     id="path188" />
  <path
     fill="#226c86"
     d=" M 468.94 164.91 C 474.64 163.12 480.38 161.45 486.06 159.59 C 492.14 160.26 498.22 161.56 504.39 160.82 C 501.88 161.40 499.41 162.13 496.87 162.53 C 491.46 162.76 485.98 162.45 480.65 163.63 C 476.81 164.51 472.87 164.78 468.94 164.91 Z"
     id="path190" />
  <path
     fill="#396178"
     d=" M 504.39 160.82 C 507.71 160.55 511.04 160.28 514.35 159.86 C 515.30 161.70 516.29 163.51 517.32 165.30 C 518.22 169.12 520.41 172.41 521.87 176.01 C 523.37 179.81 526.36 183.03 526.60 187.29 C 525.15 186.47 523.48 185.87 522.45 184.50 C 517.60 177.68 516.53 168.49 509.90 162.90 C 505.67 161.79 501.20 162.68 496.87 162.53 C 499.41 162.13 501.88 161.40 504.39 160.82 Z"
     id="path192" />
  <path
     fill="#1f3d49"
     d=" M 277.69 163.71 C 283.08 162.75 288.53 162.18 293.97 161.62 C 299.55 161.04 304.87 163.27 310.32 164.02 C 310.74 164.40 311.59 165.16 312.01 165.54 C 305.38 164.89 298.70 164.09 292.03 164.76 C 285.04 165.52 277.98 165.31 271.02 166.34 C 269.32 166.71 267.30 166.74 266.06 168.12 C 262.53 171.96 260.12 176.69 258.29 181.53 C 257.13 184.34 256.00 187.65 252.97 188.96 C 250.18 190.59 246.75 190.88 243.83 189.40 C 246.80 188.90 250.67 189.39 252.59 186.51 C 255.25 182.56 256.34 177.80 258.70 173.67 C 260.56 170.43 262.20 166.56 265.72 164.81 C 269.63 163.90 273.73 164.37 277.69 163.71 Z"
     id="path194" />
  <path
     fill="#45839d"
     d=" M 455.84 164.74 C 456.64 162.91 458.52 161.93 460.01 160.72 C 458.79 163.92 457.92 167.28 456.11 170.22 C 455.93 168.41 455.33 166.54 455.84 164.74 Z"
     id="path196" />
  <path
     fill="#357492"
     d=" M 191.56 179.46 C 194.02 173.63 196.29 167.72 198.36 161.74 C 199.32 169.73 197.16 177.60 194.96 185.19 C 194.03 189.10 189.37 189.93 186.06 188.77 C 188.68 187.56 191.25 186.27 193.86 185.04 C 192.69 183.43 190.57 181.70 191.56 179.46 Z"
     id="path198" />
  <path
     fill="#3b677f"
     d=" M 605.40 162.44 C 606.09 162.48 607.46 162.57 608.15 162.61 C 613.42 167.34 618.97 171.74 624.30 176.40 C 624.95 179.69 626.78 182.64 629.82 184.21 C 634.03 186.37 636.71 190.86 641.54 191.86 C 641.92 192.85 642.31 193.85 642.71 194.84 C 644.32 195.83 645.89 196.96 646.85 198.65 C 646.93 199.15 647.10 200.14 647.19 200.64 C 641.92 199.84 638.43 195.55 634.34 192.59 C 631.43 190.48 628.80 188.01 626.47 185.28 C 624.35 181.58 621.33 178.56 618.32 175.60 C 614.10 171.11 608.54 167.91 605.40 162.44 Z"
     id="path200" />
  <path
     fill="#5289a8"
     d=" M 183.40 168.13 C 185.96 167.80 188.54 167.52 191.11 167.26 C 190.02 170.16 189.06 173.20 187.08 175.64 C 185.62 175.46 184.77 174.12 183.69 173.30 C 183.64 171.57 183.60 169.84 183.40 168.13 Z"
     id="path202" />
  <path
     fill="#1483a3"
     d=" M 382.20 184.87 C 382.87 180.56 383.38 176.22 383.89 171.88 C 383.54 177.14 383.75 182.41 383.41 187.67 C 384.97 187.56 386.54 187.44 388.11 187.32 C 389.59 186.11 391.08 184.89 392.73 183.91 L 394.57 183.51 C 394.48 184.17 394.31 185.48 394.23 186.13 L 393.89 186.53 C 391.05 188.09 388.17 189.78 384.94 190.34 C 383.05 189.19 382.66 186.86 382.20 184.87 Z"
     id="path204" />
  <path
     fill="#2e4e5c"
     d=" M 641.62 178.52 C 645.03 179.15 647.60 181.60 650.41 183.44 C 655.49 187.09 661.46 190.22 664.15 196.21 L 663.67 196.11 C 662.41 195.87 661.16 195.60 659.92 195.32 L 659.56 195.01 C 655.33 187.74 646.64 185.08 641.62 178.52 Z"
     id="path206" />
  <path
     fill="#238faf"
     d=" M 332.06 181.24 C 332.83 182.38 333.67 183.46 334.51 184.56 C 332.38 187.11 330.25 191.03 326.24 189.91 C 328.39 187.56 330.60 185.26 332.71 182.87 C 332.55 182.46 332.22 181.64 332.06 181.24 Z"
     id="path208" />
  <path
     fill="#144758"
     d=" M 334.51 184.56 C 334.73 187.75 331.93 189.72 330.09 191.91 C 330.57 192.03 331.51 192.26 331.98 192.37 C 330.87 192.46 329.75 192.54 328.64 192.61 C 327.90 191.66 327.07 190.78 326.24 189.91 C 330.25 191.03 332.38 187.11 334.51 184.56 Z"
     id="path210" />
  <path
     fill="#5289a8"
     d=" M 659.92 195.32 C 661.16 195.60 662.41 195.87 663.67 196.11 C 662.25 197.30 660.79 198.44 659.28 199.51 C 656.48 199.15 653.45 198.61 650.79 199.83 C 649.58 200.11 648.38 200.38 647.19 200.64 C 647.10 200.14 646.93 199.15 646.85 198.65 C 651.69 198.52 656.66 198.89 661.33 197.32 C 660.98 196.82 660.28 195.82 659.92 195.32 Z"
     id="path212" />
</svg>
