<?xml version="1.0" encoding="UTF-8" standalone="no"?>
<svg
   xmlns:dc="http://purl.org/dc/elements/1.1/"
   xmlns:cc="http://creativecommons.org/ns#"
   xmlns:rdf="http://www.w3.org/1999/02/22-rdf-syntax-ns#"
   xmlns:svg="http://www.w3.org/2000/svg"
   xmlns="http://www.w3.org/2000/svg"
   xmlns:sodipodi="http://sodipodi.sourceforge.net/DTD/sodipodi-0.dtd"
   xmlns:inkscape="http://www.inkscape.org/namespaces/inkscape"
   version="1.1"
   id="svg2"
   viewBox="0 0 888.76557 129.79341"
   height="36.630585mm"
   width="250.82939mm"
   inkscape:version="0.91 r13725"
   sodipodi:docname="gladiator.svg">
  <sodipodi:namedview
     pagecolor="#ffffff"
     bordercolor="#666666"
     borderopacity="1"
     objecttolerance="10"
     gridtolerance="10"
     guidetolerance="10"
     inkscape:pageopacity="0"
     inkscape:pageshadow="2"
     inkscape:window-width="1366"
     inkscape:window-height="710"
     id="namedview21"
     showgrid="false"
     inkscape:zoom="0.63330199"
     inkscape:cx="405.79361"
     inkscape:cy="-28.019177"
     inkscape:window-x="0"
     inkscape:window-y="27"
     inkscape:window-maximized="1"
     inkscape:current-layer="flowRoot3336" />
  <defs
     id="defs4">
    <filter
       id="filter3695"
       style="color-interpolation-filters:sRGB;">
      <feGaussianBlur
         id="feGaussianBlur3697"
         stdDeviation="10"
         result="result6"
         in="SourceGraphic" />
      <feComposite
         id="feComposite3699"
         operator="xor"
         in="result6"
         in2="SourceGraphic" />
      <feGaussianBlur
         id="feGaussianBlur3701"
         stdDeviation="10"
         result="result2" />
      <feComposite
         id="feComposite3703"
         result="result91"
         operator="atop"
         in2="SourceGraphic" />
      <feComposite
         id="feComposite3705"
         in2="result91"
         operator="xor"
         in="result2"
         result="result4" />
      <feGaussianBlur
         id="feGaussianBlur3707"
         stdDeviation="5"
         result="result3"
         in="result4" />
      <feSpecularLighting
         id="feSpecularLighting3709"
         surfaceScale="12"
         specularConstant="3"
         specularExponent="35"
         result="result5"
         in="result3"
         lighting-color="rgb(255,255,255)">
        <feDistantLight
           id="feDistantLight3711"
           azimuth="235"
           elevation="45" />
      </feSpecularLighting>
      <feComposite
         id="feComposite3713"
         result="result7"
         operator="arithmetic"
         k2="0.8"
         k3="0.7"
         in="SourceGraphic"
         in2="result5" />
      <feComposite
         id="feComposite3715"
         in2="SourceGraphic"
         operator="in"
         in="result7" />
    </filter>
  </defs>
  <metadata
     id="metadata7">
    <rdf:RDF>
      <cc:Work
         rdf:about="">
        <dc:format>image/svg+xml</dc:format>
        <dc:type
           rdf:resource="http://purl.org/dc/dcmitype/StillImage" />
        <dc:title />
      </cc:Work>
    </rdf:RDF>
  </metadata>
  <g
     transform="translate(2.5279571,-566.03748)"
     id="layer1">
    <g
       transform="translate(-54.548237,20.203051)"
       style="font-style:normal;font-weight:normal;font-size:125px;line-height:125%;font-family:sans-serif;letter-spacing:0px;word-spacing:0px;fill:#554400;fill-opacity:1;stroke:none;stroke-width:1px;stroke-linecap:butt;stroke-linejoin:miter;stroke-opacity:1;filter:url(#filter3695)"
       id="flowRoot3336">
      <path
         d="m 151.76807,593.33612 q -1.95313,-4.3335 -3.84522,-7.56836 -1.89209,-3.2959 -4.94385,-6.83594 -3.05175,-3.54004 -6.53076,-5.79834 -3.479,-2.2583 -8.54492,-3.72314 -5.06592,-1.46485 -11.16943,-1.46485 -6.5918,0 -11.96289,2.68555 -5.371098,2.68555 -8.850102,7.01904 -3.417968,4.3335 -5.798339,10.0708 -2.319336,5.67627 -3.295899,11.47461 -0.976562,5.73731 -0.976562,11.65772 0,5.85937 1.037597,11.65771 1.037598,5.73731 3.417969,11.41358 2.441406,5.67627 5.981445,9.94873 3.540039,4.27246 8.911131,6.958 5.43213,2.62452 12.02393,2.62452 13.42773,0 18.67676,-5.98145 l 0,-24.78027 q 0,-1.28174 -1.0376,-2.2583 -1.0376,-1.0376 -2.38037,-1.58692 -1.34278,-0.54931 -3.60108,-0.97656 -2.19726,-0.48828 -3.60107,-0.67139 -1.40381,-0.1831 -3.54004,-0.36621 -0.24414,-0.97656 -0.24414,-1.46484 0,-0.42725 0.24414,-1.40381 13.79394,0.48828 21.24023,0.48828 7.56836,0 21.24024,-0.48828 0.30517,1.2207 0.30517,1.40381 0,0.24414 -0.30517,1.46484 -2.13623,0.18311 -3.54004,0.36621 -1.40381,0.18311 -3.66211,0.67139 -2.19727,0.42725 -3.54004,0.97656 -1.28174,0.54932 -2.31934,1.58692 -1.03759,0.97656 -1.03759,2.2583 l 0,9.0332 q 0,11.59668 2.74658,18.98193 -10.0708,3.72315 -17.8833,5.43213 -7.8125,1.70899 -17.76123,1.70899 -5.92041,0 -11.90186,-1.22071 -5.981443,-1.2207 -12.57324,-4.57763 -6.530761,-3.35694 -11.535644,-8.42285 -4.943848,-5.06592 -8.239746,-13.54981 -3.234864,-8.48389 -3.234864,-19.22607 0,-7.75147 1.64795,-14.34326 1.708984,-6.65284 4.516601,-11.41358 2.807617,-4.76074 6.652832,-8.54492 3.90625,-3.78418 8.117676,-6.16455 4.211426,-2.38037 8.850098,-3.90625 4.699707,-1.58692 8.911137,-2.19727 4.21142,-0.67138 8.30078,-0.67138 6.83593,0 13.00048,0.85449 6.22559,0.79346 12.39014,2.01416 6.16455,1.15967 9.76563,1.58691 -0.91553,2.74658 -0.91553,7.75147 0,8.30078 2.99072,16.17431 -0.36621,1.09864 -2.19726,1.34278 z"
         style="font-style:normal;font-variant:normal;font-weight:normal;font-stretch:normal;font-family:'Jacques Francois';-inkscape-font-specification:'Jacques Francois';fill:#554400;fill-opacity:1"
         id="path3369" />
      <path
         d="m 172.33691,565.62616 q 13.67188,0.48828 21.24024,0.48828 7.56836,0 21.24023,-0.48828 0.24414,0.97656 0.24414,1.34277 0,0.42725 -0.24414,1.52588 -2.80761,0.24414 -4.57763,0.54932 -1.70899,0.24414 -4.27246,0.85449 -2.50245,0.61035 -3.84522,1.77002 -1.34277,1.09863 -1.40381,2.68554 -0.79346,20.75196 -0.79346,38.63526 0,9.21631 0.67139,38.63525 l 18.85986,0 q 8.97217,-0.61035 16.05225,-2.62451 7.08008,-2.01416 11.77979,-5.12695 4.76074,-3.17383 7.8125,-6.53076 3.11279,-3.41797 5.37109,-7.6294 1.58691,0.61035 2.07519,1.64795 -2.50244,4.63867 -3.90625,7.50732 -1.34277,2.86866 -2.99072,7.56836 -1.58691,4.63868 -2.07519,8.91114 l -52.97852,0 q -16.54053,0 -28.38135,0.36621 -0.24414,-0.73242 -0.24414,-1.22071 0,-0.42724 0.24414,-1.64795 2.80762,-0.24414 4.51661,-0.48828 1.77001,-0.30517 4.27246,-0.91552 2.56347,-0.61036 3.90625,-1.70899 1.34277,-1.15967 1.4038,-2.74658 0.73243,-19.104 0.73243,-38.51318 0,-19.77539 -0.61035,-34.11866 -0.061,-1.58691 -1.40381,-2.68554 -1.34278,-1.15967 -3.90625,-1.77002 -2.50244,-0.61035 -4.27246,-0.85449 -1.70899,-0.30518 -4.51661,-0.54932 -0.24414,-1.09863 -0.24414,-1.52588 0,-0.61035 0.24414,-1.34277 z"
         style="font-style:normal;font-variant:normal;font-weight:normal;font-stretch:normal;font-family:'Jacques Francois';-inkscape-font-specification:'Jacques Francois';fill:#554400;fill-opacity:1"
         id="path3371" />
      <path
         d="m 313.26709,564.71063 q 0.91553,-0.67139 1.95312,-0.85449 l 33.38624,83.37402 q 0.61035,1.52588 2.01416,2.62451 1.4038,1.0376 3.479,1.64795 2.13623,0.54932 3.66211,0.85449 1.58691,0.24414 3.84521,0.48828 0.24414,0.97657 0.24414,1.64795 0,0.73243 -0.24414,1.34278 -13.18359,-0.48828 -19.71435,-0.48828 -7.08008,0 -20.50781,0.48828 -0.24415,-0.73242 -0.24415,-1.46485 0,-0.79345 0.24415,-1.52588 12.3291,-1.34277 12.3291,-4.63867 0,-1.03759 -0.24414,-2.13623 l -8.8501,-22.70508 q -4.02832,-0.12207 -10.86426,-0.12207 -3.23486,0 -16.78467,0.24414 l -9.33838,23.74268 0,0.73242 q 0,0.61035 0.18311,1.15967 0.24414,0.54932 0.73242,0.97656 0.54932,0.42725 1.0376,0.73242 0.48828,0.30518 1.34277,0.61036 0.91553,0.24414 1.52588,0.42724 0.67139,0.12207 1.77002,0.30518 1.15967,0.1831 1.77002,0.30517 0.61035,0.061 1.77002,0.18311 1.2207,0.12207 1.70898,0.1831 0.24415,0.97657 0.24415,1.64795 0,0.36622 -0.24415,1.34278 -13.67187,-0.48828 -15.38085,-0.48828 -3.2959,0 -16.96778,0.48828 -0.24414,-0.73242 -0.24414,-1.46485 0,-0.79345 0.24414,-1.52588 12.69531,-1.46484 14.46533,-6.22558 l 26.24512,-66.16211 -1.34277,-3.60107 q 3.479,-2.31934 4.82177,-5.00489 1.40381,-2.68554 1.95313,-7.14111 z m 0.48828,53.77197 q 5.61524,0 8.8501,-0.12207 l -11.59668,-30.0293 -0.24414,0 -11.65772,29.90723 q 5.73731,0.24414 14.64844,0.24414 z"
         style="font-style:normal;font-variant:normal;font-weight:normal;font-stretch:normal;font-family:'Jacques Francois';-inkscape-font-specification:'Jacques Francois';fill:#554400;fill-opacity:1"
         id="path3373" />
      <path
         d="m 369.11426,565.62616 q 13.67187,0.48828 21.85058,0.48828 15.25879,-0.48828 18.7378,-0.48828 5.67627,0 10.68115,0.48828 5.00488,0.48828 10.31494,1.83105 5.37109,1.28174 9.70459,3.41797 4.3335,2.0752 8.30078,5.5542 3.96729,3.479 6.65283,8.05664 2.68555,4.57764 4.27246,11.04736 1.58692,6.4087 1.58692,14.2212 -0.48828,7.50732 -2.62451,13.79394 -2.0752,6.28662 -5.3711,10.86426 -3.23486,4.57764 -7.69043,8.17871 -4.45556,3.60107 -9.33838,5.85937 -4.82177,2.25831 -10.49804,3.72315 -5.61524,1.46484 -10.98633,2.07519 -5.31006,0.61036 -10.98633,0.61036 -22.88818,0 -34.729,0.36621 -0.24414,-0.73242 -0.24414,-1.22071 0,-0.42724 0.24414,-1.64795 1.83105,-0.1831 2.92968,-0.30517 1.09864,-0.12207 2.99073,-0.42725 1.95312,-0.30517 3.11279,-0.67138 1.2207,-0.42725 2.50244,-1.0376 1.28174,-0.61035 1.89209,-1.46485 0.67139,-0.85449 0.67139,-1.95312 0.73242,-19.104 0.73242,-38.51318 0,-19.77539 -0.61035,-34.11866 -0.061,-1.58691 -1.40381,-2.68554 -1.34277,-1.15967 -3.90625,-1.77002 -2.50244,-0.61035 -4.27246,-0.85449 -1.70899,-0.30518 -4.5166,-0.54932 -0.24414,-1.09863 -0.24414,-1.52588 0,-0.36621 0.24414,-1.34277 z m 28.38135,8.72802 q -0.79346,20.75196 -0.79346,38.63526 0,9.88769 0.67139,37.84179 2.62451,0.12208 7.50732,0.12208 9.88769,0 17.57812,-2.99073 7.69043,-3.05176 12.63428,-8.48388 4.94385,-5.43213 7.44629,-12.81739 2.56348,-7.44629 2.56348,-16.41845 0,-4.63868 -0.73242,-9.09424 -0.73243,-4.45557 -2.31934,-9.09424 -1.58691,-4.63867 -4.39453,-8.54492 -2.80762,-3.90625 -6.71387,-6.95801 -3.84521,-3.11279 -9.52148,-4.82178 -5.61524,-1.77002 -12.45118,-1.77002 -6.28662,0 -11.4746,0.79346 l 0,3.60107 z"
         style="font-style:normal;font-variant:normal;font-weight:normal;font-stretch:normal;font-family:'Jacques Francois';-inkscape-font-specification:'Jacques Francois';fill:#554400;fill-opacity:1"
         id="path3375" />
      <path
         d="m 474.09473,565.62616 q 13.67187,0.48828 21.24023,0.48828 7.56836,0 21.24024,-0.48828 0.24414,0.97656 0.24414,1.34277 0,0.67139 -0.24414,1.52588 -2.80762,0.24414 -4.57764,0.54932 -1.70899,0.24414 -4.27246,0.85449 -2.50244,0.61035 -3.84522,1.77002 -1.34277,1.09863 -1.40381,2.68554 -0.79345,20.75196 -0.79345,38.63526 0,13.06152 0.67138,33.99658 0.061,1.58691 1.40381,2.74658 1.34278,1.09863 3.84522,1.70899 2.56347,0.61035 4.27246,0.91552 1.77002,0.24414 4.57763,0.48828 0.24415,0.73243 0.24415,1.64795 0,0.48829 -0.24415,1.22071 -10.37597,-0.36621 -21.24023,-0.36621 -10.98633,0 -21.24023,0.36621 -0.24414,-0.73242 -0.24414,-1.22071 0,-1.03759 0.24414,-1.64795 1.83105,-0.1831 2.92968,-0.30517 1.09864,-0.12207 2.99073,-0.42725 1.95312,-0.30517 3.11279,-0.67138 1.2207,-0.42725 2.50244,-1.0376 1.28174,-0.61035 1.89209,-1.46485 0.67139,-0.85449 0.67139,-1.95312 0.73242,-19.104 0.73242,-38.51318 0,-19.77539 -0.61035,-34.11866 -0.061,-1.58691 -1.40381,-2.68554 -1.34277,-1.15967 -3.90625,-1.77002 -2.50244,-0.61035 -4.27246,-0.85449 -1.70899,-0.30518 -4.5166,-0.54932 -0.24414,-1.09863 -0.24414,-1.52588 0,-0.61035 0.24414,-1.34277 z"
         style="font-style:normal;font-variant:normal;font-weight:normal;font-stretch:normal;font-family:'Jacques Francois';-inkscape-font-specification:'Jacques Francois';fill:#554400;fill-opacity:1"
         id="path3377" />
      <path
         d="m 569.61475,564.71063 q 0.91552,-0.67139 1.95312,-0.85449 l 33.38623,83.37402 q 0.61035,1.52588 2.01416,2.62451 1.40381,1.0376 3.47901,1.64795 2.13623,0.54932 3.6621,0.85449 1.58692,0.24414 3.84522,0.48828 0.24414,0.97657 0.24414,1.64795 0,0.73243 -0.24414,1.34278 -13.18359,-0.48828 -19.71436,-0.48828 -7.08007,0 -20.50781,0.48828 -0.24414,-0.73242 -0.24414,-1.46485 0,-0.79345 0.24414,-1.52588 12.3291,-1.34277 12.3291,-4.63867 0,-1.03759 -0.24414,-2.13623 l -8.85009,-22.70508 q -4.02833,-0.12207 -10.86426,-0.12207 -3.23487,0 -16.78467,0.24414 l -9.33838,23.74268 0,0.73242 q 0,0.61035 0.18311,1.15967 0.24414,0.54932 0.73242,0.97656 0.54931,0.42725 1.0376,0.73242 0.48828,0.30518 1.34277,0.61036 0.91553,0.24414 1.52588,0.42724 0.67138,0.12207 1.77002,0.30518 1.15967,0.1831 1.77002,0.30517 0.61035,0.061 1.77002,0.18311 1.2207,0.12207 1.70898,0.1831 0.24414,0.97657 0.24414,1.64795 0,0.36622 -0.24414,1.34278 -13.67187,-0.48828 -15.38086,-0.48828 -3.2959,0 -16.96777,0.48828 -0.24414,-0.73242 -0.24414,-1.46485 0,-0.79345 0.24414,-1.52588 12.69531,-1.46484 14.46533,-6.22558 l 26.24512,-66.16211 -1.34278,-3.60107 q 3.47901,-2.31934 4.82178,-5.00489 1.40381,-2.68554 1.95313,-7.14111 z m 0.48828,53.77197 q 5.61523,0 8.85009,-0.12207 l -11.59667,-30.0293 -0.24415,0 -11.65771,29.90723 q 5.7373,0.24414 14.64844,0.24414 z"
         style="font-style:normal;font-variant:normal;font-weight:normal;font-stretch:normal;font-family:'Jacques Francois';-inkscape-font-specification:'Jacques Francois';fill:#554400;fill-opacity:1"
         id="path3379" />
      <path
         d="m 630.34473,565.62616 q 6.65283,0.24414 16.60156,0.36621 9.94873,0.12207 23.37646,0.12207 13.42774,0 23.37647,-0.12207 10.00976,-0.12207 16.72363,-0.36621 0.36621,2.62451 0.91553,5.06591 0.54932,2.38038 1.83105,5.31006 l 1.83106,4.15039 4.45556,8.667 q -0.42724,0.97656 -2.13623,1.64795 -2.07519,-3.84522 -5.06591,-7.32422 -2.99073,-3.47901 -7.6294,-6.28662 -4.57764,-2.80762 -11.23047,-4.69971 -6.59179,-1.89209 -15.93017,-2.56348 -0.30518,7.6294 -0.48828,17.27295 -0.12207,9.58252 -0.12207,21.36231 0,11.84082 0.12207,21.48437 0.1831,9.64356 0.48828,17.27295 0.061,1.46484 1.15967,2.50244 1.09863,0.97656 2.99072,1.64795 1.95312,0.67139 4.45556,1.09863 2.56348,0.36621 5.49317,0.61035 0.24414,1.0376 0.24414,1.64795 0,0.54932 -0.24414,1.22071 -10.25391,-0.36621 -21.24024,-0.36621 -10.92529,0 -21.24023,0.36621 -0.24414,-0.67139 -0.24414,-1.22071 0,-0.61035 0.24414,-1.64795 l 2.92969,-0.30517 q 1.58691,-0.18311 3.54004,-0.48828 1.95312,-0.36621 3.60107,-0.97656 1.70898,-0.61036 2.86865,-1.52588 1.15967,-0.91553 1.15967,-2.2583 l 0,-0.30518 q 0.30518,-11.16943 0.48828,-20.81299 0.18311,-9.64355 0.18311,-17.94433 0,-8.23975 -0.18311,-17.82227 -0.1831,-9.64355 -0.48828,-20.81299 -8.78906,0.48828 -15.31982,2.38037 -6.46973,1.83106 -11.23047,4.63867 -4.76074,2.74659 -7.93457,6.34766 -3.17383,3.54004 -5.24903,7.50733 -1.70898,-0.67139 -2.13623,-1.64795 l 2.74659,-5.18799 1.28173,-2.62451 q 0.79346,-1.64795 1.58692,-3.35694 0.79345,-1.70898 1.46484,-3.54004 0.73242,-1.89209 1.2207,-3.96728 0.48829,-2.13623 0.73243,-4.5166 z"
         style="font-style:normal;font-variant:normal;font-weight:normal;font-stretch:normal;font-family:'Jacques Francois';-inkscape-font-specification:'Jacques Francois';fill:#554400;fill-opacity:1"
         id="path3381" />
      <path
         d="m 774.75391,563.55096 q 4.6997,0 9.88769,0.97656 5.24902,0.97657 10.31494,3.23487 5.12696,2.19726 9.76563,5.85937 4.6997,3.60108 8.23974,8.8501 3.54004,5.24902 5.61524,12.26807 2.13623,7.01904 2.13623,16.11328 0,9.15527 -2.0752,16.23535 -2.07519,7.01904 -5.61523,12.26807 -3.54004,5.18798 -8.23975,8.78906 -4.63867,3.54004 -9.82666,5.7373 -5.12695,2.13623 -10.49804,3.05176 -5.3711,0.97656 -10.25391,0.97656 -4.63867,0 -9.8877,-0.97656 -5.18798,-0.91553 -10.31494,-3.05176 -5.12695,-2.19726 -9.82666,-5.7373 -4.63867,-3.60108 -8.23974,-8.78906 -3.54004,-5.24903 -5.67627,-12.26807 -2.0752,-7.08008 -2.0752,-16.23535 0,-9.39942 2.19727,-16.54053 2.19726,-7.20215 5.79834,-12.45117 3.66211,-5.24903 8.42285,-8.72803 4.82178,-3.54004 9.94873,-5.67627 5.18799,-2.13623 10.37598,-2.99072 5.24902,-0.91553 9.82666,-0.91553 z m -0.30518,4.39453 q -5.7373,0 -10.19287,1.89209 -4.45557,1.89209 -7.8125,5.12696 -3.35693,3.17382 -5.67627,7.44628 -2.31934,4.21143 -3.78418,8.97217 -1.40381,4.76074 -2.0752,9.76563 -0.61035,5.00488 -0.61035,9.70459 0,4.5166 0.61035,9.39941 0.61036,4.88281 2.01416,9.64356 1.40381,4.6997 3.66211,8.97216 2.31934,4.27247 5.67627,7.50733 3.35694,3.23486 7.8125,5.18799 4.51661,1.89209 10.37598,1.89209 5.73731,0 10.19287,-1.83106 4.45557,-1.89209 7.8125,-5.06592 3.35694,-3.23486 5.61524,-7.44629 2.31933,-4.27246 3.72314,-8.97216 1.46484,-4.76075 2.0752,-9.70459 0.67138,-4.94385 0.67138,-9.58252 0,-4.69971 -0.67138,-9.70459 -0.61036,-5.00489 -2.0752,-9.76563 -1.40381,-4.76074 -3.72314,-8.97217 -2.31934,-4.27246 -5.67627,-7.44628 -3.35694,-3.23487 -7.8125,-5.12696 -4.45557,-1.89209 -10.13184,-1.89209 z"
         style="font-style:normal;font-variant:normal;font-weight:normal;font-stretch:normal;font-family:'Jacques Francois';-inkscape-font-specification:'Jacques Francois';fill:#554400;fill-opacity:1"
         id="path3383" />
      <path
         d="m 833.71387,565.62616 q 13.18359,0.48828 21.24023,0.48828 3.05176,0 9.82666,-0.24414 6.7749,-0.24414 10.43701,-0.24414 13.54981,0 21.30127,6.83593 7.8125,6.83594 7.8125,17.76123 0,8.78907 -5.18799,15.74707 -5.18798,6.89698 -14.16015,9.8877 4.08935,7.32422 11.23047,16.60156 6.89697,9.21631 13.12256,14.46533 6.28662,5.24903 13.48877,5.92041 0.24414,0.97657 0.24414,1.52588 0,0.61036 -0.24414,1.34278 -3.66211,-0.18311 -7.8125,-0.24414 -4.1504,-0.061 -9.27735,-0.061 -5.06592,0 -7.8125,-0.061 -16.41846,-19.10401 -26.36719,-37.59766 -4.45556,0 -10.2539,-1.40381 0,11.84082 0.67138,30.63965 0.061,1.58691 1.40381,2.74658 1.34278,1.09863 3.84522,1.70899 2.56347,0.61035 4.27246,0.91552 1.77002,0.24414 4.57764,0.48828 0.24414,1.22071 0.24414,1.64795 0,0.48829 -0.24414,1.22071 -10.37598,-0.36621 -21.24024,-0.36621 -10.98633,0 -21.24023,0.36621 -0.24414,-0.73242 -0.24414,-1.22071 0,-1.03759 0.24414,-1.64795 1.83105,-0.1831 2.92968,-0.30517 1.09864,-0.12207 2.99073,-0.42725 1.95312,-0.30517 3.11279,-0.67138 1.2207,-0.42725 2.50244,-1.0376 1.28174,-0.61035 1.89209,-1.46485 0.67139,-0.85449 0.67139,-1.95312 0.73242,-19.104 0.73242,-38.51318 0,-19.77539 -0.61035,-34.11866 -0.061,-1.58691 -1.40381,-2.68554 -1.34277,-1.15967 -3.90625,-1.77002 -2.50244,-0.61035 -4.27246,-0.85449 -1.70899,-0.30518 -4.5166,-0.54932 -0.24414,-1.09863 -0.24414,-1.52588 0,-0.36621 0.24414,-1.34277 z m 28.38134,4.21142 -0.12207,0 q -0.67138,22.52198 -0.67138,41.87012 4.27246,1.40381 8.66699,1.40381 4.02832,0 7.20215,-1.34278 3.23486,-1.4038 5.31006,-3.6621 2.07519,-2.25831 3.41797,-5.31006 1.4038,-3.05176 1.95312,-6.16455 0.61035,-3.1128 0.61035,-6.4087 0,-9.09423 -5.00488,-14.83154 -4.94385,-5.79834 -14.09912,-5.79834 -4.5166,0 -7.26319,0.24414 z"
         style="font-style:normal;font-variant:normal;font-weight:normal;font-stretch:normal;font-family:'Jacques Francois';-inkscape-font-specification:'Jacques Francois';fill:#554400;fill-opacity:1"
         id="path3385" />
    </g>
  </g>
</svg>
