<?xml version="1.0" encoding="UTF-8" standalone="no"?>
<svg
   xmlns:dc="http://purl.org/dc/elements/1.1/"
   xmlns:cc="http://creativecommons.org/ns#"
   xmlns:rdf="http://www.w3.org/1999/02/22-rdf-syntax-ns#"
   xmlns:svg="http://www.w3.org/2000/svg"
   xmlns="http://www.w3.org/2000/svg"
   viewBox="0 0 300 91.358064"
   version="1.1"
   id="svg11917"
   height="91.358063"
   width="300">
  <defs
     id="defs11919" />
  <metadata
     id="metadata11922">
    <rdf:RDF>
      <cc:Work
         rdf:about="">
        <dc:format>image/svg+xml</dc:format>
        <dc:type
           rdf:resource="http://purl.org/dc/dcmitype/StillImage" />
        <dc:title></dc:title>
      </cc:Work>
    </rdf:RDF>
  </metadata>
  <g
     transform="translate(433.57142,-486.68315)"
     id="layer1">
    <g
       transform="matrix(1.5889273,0,0,1.5889273,748.06244,203.47283)"
       id="g11868">
      <path
         id="path9638"
         style="fill:#000000;fill-opacity:1;fill-rule:nonzero;stroke:none"
         d="m -614.19317,234.66286 -8.72125,-0.01 10e-4,-0.40625 c 2.525,0.0775 3.0125,-0.8175 3.015,-3.09625 l 0,-16.035 c 0.0688,-1.85625 -0.66375,-2.63125 -2.87875,-2.515 l 0,-0.57875 8.67875,0.01 -10e-4,0.55875 c -2.42,0.0625 -3.1525,-0.0113 -3.0675,2.85875 l 0,15.965 c -0.0688,2.46875 0.43125,2.8625 2.99625,2.84375 l -0.0225,0.405 z" />
      <path
         id="path9642"
         style="fill:#000000;fill-opacity:1;fill-rule:nonzero;stroke:none"
         d="m -660.1978,202.20487 c -0.0662,0.7 0.16625,0.94625 0.95625,0.9475 l 0.1275,0 0,0.2025 -3.30875,-0.004 0,-0.2025 0.06,0 c 0.91875,0 1.0125,-0.0687 1.06875,-0.945 l 0.007,-6.42 -2.36375,-0.003 c -0.5175,0 -0.79375,0.12 -0.99,1.26125 l -0.23375,0 0.20875,-1.92375 0.29,0 c 0.0138,0.0788 0.065,0.13 0.1425,0.15625 0.0788,0.0275 0.16875,0.04 0.25875,0.04 l 6.2975,0.009 c 0.18,0 0.37375,-0.04 0.40125,-0.195 l 0.225,0 0.22625,1.9225 -0.23375,0 c -0.145,-0.73 -0.3925,-1.065 -0.94375,-1.2625 l -2.18875,-0.004 -0.008,6.42 z" />
      <path
         id="path9646"
         style="fill:#000000;fill-opacity:1;fill-rule:nonzero;stroke:none"
         d="m -650.78567,199.47361 -0.065,0.1375 -0.002,2.3675 c -10e-4,0.8425 0.165,1.14 1.03125,1.14125 l 0.04,0 0,0.24625 -3.24625,-0.004 0,-0.24625 0.0775,0 c 0.76125,0.001 1.01875,-0.205 1.02,-0.94375 l 0.007,-5.69875 c 10e-4,-0.67375 -0.305,-0.86875 -1.08125,-0.92125 l 0,-0.24625 3.27625,0.002 0,0.2475 c -0.96375,-0.001 -1.11875,0.245 -1.12,1.24125 l 0.007,2.1125 0.0613,0.0975 4.9075,0.006 0.0975,-0.0875 -0.02,-2.42 c 0,-0.685 -0.19625,-0.945 -0.9975,-0.945 l -0.16,0 10e-4,-0.2475 3.285,0.004 0,0.2475 c -0.8225,0.025 -1.0525,0.2575 -1.0525,1.06125 l -0.006,5.37375 c -0.002,1.31375 0.61625,1.145 1.05625,1.1725 l -0.004,-0.045 0,0.2475 -3.29,-0.005 0,-0.24625 0.16,0 c 0.84125,0.001 1,-0.29625 1,-0.96875 l 0.004,-2.55875 -0.0862,-0.115 -4.90125,-0.007 z" />
      <path
         id="path9650"
         style="fill:#000000;fill-opacity:1;fill-rule:nonzero;stroke:none"
         d="m -634.34517,200.53749 -0.24625,0 c -0.10125,-0.92 -0.34875,-1.02375 -0.8775,-1.025 l -1.8825,-0.001 -0.0888,0.0888 -0.025,2.60375 c 0.0212,0.92625 0.22,0.7125 0.69875,0.7125 l 1.92875,0.004 c 0.90625,0 1.18,-0.35 1.505,-1.4625 l 0.2325,0 -0.20875,1.93 -6.395,-0.008 0,-0.24625 0.365,0 c 0.55125,0.0238 0.82,-0.26125 0.8,-1.06125 l 0.006,-5.4675 c 10e-4,-0.7225 -0.16875,-1.035 -1.03375,-1.03625 l -0.15375,0 0,-0.245 5.8875,0.006 0.10125,1.8 -0.2325,0 c -0.16625,-1.1 -0.49125,-1.33375 -0.9575,-1.33375 l -2.535,0.0625 -0.004,3.18625 0.1425,0.0975 1.87875,0.002 c 0.46625,-0.0637 0.8725,-0.25125 0.85125,-1.06875 l 0.24625,0 -0.004,2.46125 z" />
      <path
         id="path9654"
         style="fill:#000000;fill-opacity:1;fill-rule:nonzero;stroke:none"
         d="m -724.91892,234.45711 -18.74875,-0.025 0.001,-0.75125 1.30875,0.001 c 1.82375,0.002 2.49875,-0.5925 2.50125,-2.61375 l 0.025,-20.015 c 0.004,-2.1025 -0.63,-3.1525 -3.12875,-3.15625 l -0.55375,0 0.001,-0.575 11.35375,0.015 0,0.61875 -1.12625,-0.002 c -2.5775,-0.002 -3.25125,0.4075 -3.25375,2.865 l -0.0263,20.73 c -10e-4,1.07 0.43375,1.46875 1.5825,1.47 l 6.855,0.009 c 2.3375,10e-4 3.305,-0.90875 5.80875,-4.35375 l 0.7025,-0.0125 -3.3025,5.79625 z" />
      <path
         id="path9658"
         style="fill:#000000;fill-opacity:1;fill-rule:nonzero;stroke:none"
         d="m -712.39454,234.53949 -8.555,-0.0337 10e-4,-0.535 c 2.0925,-0.0825 2.75625,-0.2225 2.80375,-2.54375 l 0.0425,-16.6775 c 0.002,-1.5475 -0.39,-2.38875 -2.76625,-2.36 l 0,-0.47 8.56625,0.01 0,0.47125 c -2.22875,-0.004 -3.03875,0.11625 -3.0425,2.39375 l -0.0212,17.115 c -0.004,2.0925 1.02375,2.13625 2.9725,2.0725 l -10e-4,0.5575 z" />
      <path
         id="path9662"
         style="fill:#000000;fill-opacity:1;fill-rule:nonzero;stroke:none"
         d="m -699.47154,212.28424 c -6.27125,-0.085 -9.6875,4.31125 -9.70125,11.0275 -0.01,6.36625 4.1975,10.91125 9.51125,11.03 6.3425,0.13875 9.59,-6.155 9.695,-10.78625 0.14875,-6.55625 -2.97,-11.18625 -9.505,-11.27125 m 0.2525,22.795 c -7.76,0 -13.05375,-4.93875 -13.33875,-11.05875 -0.325,-6.9875 5.6875,-12.56625 12.925,-12.69125 6.14125,-0.1075 13.03875,4.88875 13.07625,12.0125 0.0338,6.625 -5.43375,11.74125 -12.6625,11.7375" />
      <path
         id="path9666"
         style="fill:#000000;fill-opacity:1;fill-rule:nonzero;stroke:none"
         d="m -634.29204,234.63224 0.001,-0.3625 c 2.435,-0.0213 2.665,-0.71875 2.76,-1.10125 0.09,-0.35875 -0.0512,-0.9375 -0.55875,-1.32125 -2.265,-1.71 -8.59125,-6.62125 -9.75,-7.485 -0.0937,-0.0675 -0.23125,0.0125 -0.24625,0.002 l -0.01,6.90625 c -0.0462,2.40375 0.37375,3.01125 2.71625,3.015 l 1.14625,0.002 -0.001,0.34 -10.3675,-0.0137 10e-4,-0.3825 0.96375,0.001 c 2.41,0.002 2.71875,-0.7025 2.72125,-2.67125 l 0.0213,-16.9 c 0.17875,-0.8725 -0.43,-2.4475 -2.715,-2.275 l -0.96375,-0.001 0,-0.38 9.83625,0.0125 0,0.425 -0.615,-0.001 c -2.0375,-0.002 -2.72,0.6425 -2.7225,2.6825 l -0.008,7.10875 c 0.0338,-0.035 0.23125,0.0625 0.27375,0.0175 1.65875,-1.73875 8.31375,-7.41625 9.0975,-8.4375 0.1975,-0.2525 0.33375,-0.8525 -0.1,-1.0825 -0.63875,-0.33 -0.6425,-0.23625 -2.34375,-0.23875 l 0,-0.47 9.025,0.0125 0,0.49 c -2.25875,-0.12375 -3.945,0.49875 -5.01625,1.475 -1.835,1.67 -9.85875,9.035 -9.85875,9.035 0,0 -0.23875,0.0425 0.0538,0.2825 0.99375,0.81375 11.4775,8.90625 12.54875,9.77875 0.53625,0.43375 0.84375,1.1825 4.10125,1.23125 l 0,0.3175 -9.99125,-0.0125 z" />
      <path
         id="path9670"
         style="fill:#000000;fill-opacity:1;fill-rule:nonzero;stroke:none"
         d="m -557.64779,233.09974 c -6.15375,2.53125 -10.19625,2.69875 -12.45875,2.62375 -9.09,-0.29875 -13.09625,-7.415 -13.05,-13.54 0.0537,-7.13 5.205,-14.5975 15.23,-14.58625 4.75,0.007 7.81875,1.79375 8.58625,1.44125 0.18875,-0.0875 0.77125,0.004 0.8725,-0.83625 l 0.34375,-0.0437 -0.009,7.5325 -0.45875,-0.0125 c -1.115,-5.245 -5.01625,-6.97875 -8.87875,-6.9875 -7.51,-0.015 -11.93375,6.10375 -11.79625,13.2125 0.16375,8.66375 5.3725,12.76625 10.15125,12.7725 1.91,0.001 5.07125,-0.37875 8.02,-1.92625 l 0.007,-4.94125 c 0.003,-2.5675 -0.58375,-3.145 -2.96625,-3.125 l -2.30125,-0.002 0,-0.56625 11.495,0.0162 0,0.4975 c -2.32875,0.17375 -2.77625,0.0312 -2.78,2.28625 l -0.007,6.185 z" />
      <path
         id="path9674"
         style="fill:#000000;fill-opacity:1;fill-rule:nonzero;stroke:none"
         d="m -720.77042,207.18899 -0.001,1.2525 137.20125,0.1725 0.003,-1.2525 -137.2025,-0.1725 z" />
      <path
         id="path9678"
         style="fill:#000000;fill-opacity:1;fill-rule:nonzero;stroke:none"
         d="m -663.10804,234.48636 -19.115,-19.58375 -0.0213,16.42375 c -0.20125,2.13875 0.27625,2.98 2.99,2.785 l -0.001,0.47 -7.79625,-0.01 10e-4,-0.4925 0.13625,0 c 2.14875,0.2025 2.56375,-0.4225 2.7875,-2.47125 l 0.0213,-18.17 c -0.25125,-1.18625 -1.32375,-0.96 -2.85,-1.00625 l 0,-0.4925 5.68625,0.007 17.44375,18.0325 0.165,-0.24875 -10e-4,-15.305 c -0.0438,-1.73625 -1.05625,-2.1475 -3.415,-1.96875 l 0,-0.49125 8.32625,0.01 -0.001,0.55875 c -2.8275,-0.004 -3.135,-0.0625 -3.13875,1.84875 l -0.0263,20.105 -1.19125,-0.001 z" />
      <path
         id="path9682"
         style="fill:#000000;fill-opacity:1;fill-rule:nonzero;stroke:none"
         d="m -587.61117,234.58161 -19.555,-19.58375 -0.0213,16.33625 c -0.09,2.4475 0.27625,2.95625 3.16625,2.96125 l -10e-4,0.38125 -7.88625,-0.0113 10e-4,-0.38 0.1375,0 c 2.1075,0.004 2.74375,-0.75375 2.74625,-2.3175 l 0.0225,-18.47875 c -0.22375,-1.045 -2.195,-0.78875 -2.87625,-0.81 l 10e-4,-0.645 5.555,0.007 17.66625,17.7525 0.20625,-0.255 -0.0238,-14.6675 c 0.0238,-2.0725 -0.3675,-2.27 -3.0875,-2.34125 l 10e-4,-0.47 7.9525,0.009 0,0.4925 c -2.54875,-0.002 -3.08375,0.37125 -3.095,1.91625 l -0.0263,20.105 -0.88375,-0.001 z" />
      <path
         id="path9686"
         style="fill:#000000;fill-opacity:1;fill-rule:evenodd;stroke:none"
         d="m -649.38054,180.36774 c -0.87375,-0.0775 -1.53125,0.58 -2.15125,1.2125 -0.0362,0.10125 -0.26375,0.21375 -0.09,0.32625 0.8375,0.0775 1.63375,-0.16375 2.24125,-0.71875 0.17625,-0.16375 0.3,-0.3775 0.2125,-0.605 -0.0362,-0.0925 -0.1275,-0.17875 -0.2125,-0.215 m -2.0625,-0.1275 c -0.3425,0.0625 -0.725,0.21125 -0.935,0.45625 -0.20625,0.2425 -0.34,0.47875 -0.215,0.73 0.44375,-0.3275 0.65875,-0.7825 1.15,-1.05875 0,-0.0525 0.0775,-0.0888 0,-0.1275 m 2.03625,-0.45625 c 0.23875,0.015 0.45375,0.10375 0.62875,0.25375 0.2425,0.2275 0.30625,0.60625 0.19125,0.91 -0.4425,0.90875 -1.4925,1.5175 -2.2125,1.7175 -0.4275,0.1025 -0.97125,0.1025 -1.365,-0.0513 -0.1875,0.11625 -0.34625,0.48375 -0.5775,0.3325 -0.3375,-0.26375 -0.0475,-0.6725 -0.2375,-0.965 -0.0412,-0.06 -0.14375,-0.065 -0.195,-0.1625 -0.26125,-0.58 0.0638,-1.13625 0.4325,-1.57875 0.6075,-0.68 2.36,-1.44 3.335,-0.45625" />
      <path
         id="path9690"
         style="fill:#000000;fill-opacity:1;fill-rule:evenodd;stroke:none"
         d="m -641.82692,184.12999 c 0.4025,0.98625 0.7425,2.54125 0,3.48625 -0.2025,0.23 -0.55875,0.44 -0.78375,0.2675 -0.835,-0.67 -1.18875,-1.63 -1.70625,-2.4875 -0.0763,-0.0387 -0.0763,0.0625 -0.115,0.10125 -0.1875,0.87 0.16625,2.00625 -0.43,2.69 -0.22375,0.0362 -0.43875,-0.08 -0.515,-0.30375 -0.29,-0.8975 0.0125,-1.8325 0.0875,-2.73125 0.17625,-0.4525 0.255,-0.98375 0.645,-1.32375 0.63,0.2525 0.9325,0.9575 1.29875,1.47625 0.26625,0.3925 0.48125,0.83375 0.78375,1.19 0.26875,-0.11375 0.135,-0.4625 0.1275,-0.67125 -0.1025,-0.82 -0.33,-1.57875 -0.5425,-2.36125 -0.0125,-0.20125 -0.12625,-0.545 0.085,-0.67 0.57125,0.25125 0.81125,0.84625 1.065,1.3375" />
      <path
         id="path9694"
         style="fill:#000000;fill-opacity:1;fill-rule:evenodd;stroke:none"
         d="m -645.64279,183.82849 c 0,0.18875 -0.15125,0.42625 -0.27875,0.45375 -1.2125,0.1925 -2.565,0.0775 -3.70375,0.45625 -0.0362,0.13875 0.1275,0.1625 0.2175,0.2025 0.9725,0.15 1.995,0.1875 2.9425,0.42875 0.5025,0.1275 0.68375,0.71875 0.7225,1.21375 0.0213,0.38875 -0.13,0.85875 -0.5075,1.12375 -0.935,0.595 -2.36125,0.5675 -3.31125,0.0237 -0.36125,-0.2025 -0.705,-0.53 -0.73,-0.9325 0.003,-0.3225 0.1375,-0.57625 0.36625,-0.69625 0.90875,-0.36625 2.03375,-0.16375 2.815,0.30375 0.0512,0.25375 -0.2225,0.23625 -0.35375,0.32875 -0.87125,0.505 -1.52625,-0.57125 -2.33625,-0.1775 -0.115,0.0775 -0.195,0.2875 -0.0612,0.35375 0.99625,0.44125 2.10875,0.12625 3.09375,-0.15 0.11375,-0.0412 0.25375,-0.1525 0.265,-0.26625 -0.0388,-0.40625 -0.4925,-0.4925 -0.7825,-0.6075 -0.86,-0.21375 -1.8075,-0.21375 -2.7275,-0.3025 -0.18125,-0.0375 -0.4025,-0.16125 -0.45625,-0.3025 -0.1,-0.30375 -0.1,-0.72 0.12625,-0.97375 1.175,-1.035 2.955,-0.9475 4.44875,-0.66875 0.1,0.0388 0.215,0.075 0.25125,0.18875" />
      <path
         id="path9698"
         style="fill:#000000;fill-opacity:1;fill-rule:evenodd;stroke:none"
         d="m -651.16279,184.30824 c 0.1125,1.21375 0.17625,2.33875 0.15125,3.61375 -0.0263,0.1625 -0.215,0.2025 -0.34375,0.26625 -0.2,0.0362 -0.46125,-0.006 -0.5425,-0.115 -0.29,-0.4675 -0.1875,-1.09875 -0.215,-1.6675 0.0388,-0.8975 0.0275,-1.86875 0.27875,-2.705 0.0487,-0.12125 0.19,-0.2275 0.3025,-0.14875 0.305,0.14875 0.35625,0.45375 0.36875,0.75625" />
      <path
         id="path9702"
         style="fill:#000000;fill-opacity:1;fill-rule:evenodd;stroke:none"
         d="m -637.12967,184.12999 c 0.0613,0.105 0.125,0.26125 0,0.3275 -0.56875,0.25375 -1.335,0.14125 -1.995,0.2175 -0.175,0.15125 -0.315,0.405 -0.25375,0.63 0.0638,0.04 0.12,0.1 0.19125,0.0913 0.4025,0.0238 1.01,-0.1925 1.27625,0.18875 0.0663,0.1125 -0.01,0.5325 -0.19,0.5425 -0.49375,0.0625 -1.30375,-0.0625 -1.54125,0.0625 -0.305,0.20375 -0.2775,0.59375 -0.39,0.91 0.215,0.14 0.43875,-0.002 0.6925,-0.0375 0.46625,-0.0762 0.98625,-0.21375 1.45375,-0.115 0.0875,0.16625 0.21375,0.34125 0.12375,0.54375 -0.79625,0.6325 -1.82125,1.28 -2.9175,0.82375 -0.41,-0.1875 -0.5925,-0.81125 -0.45375,-1.34125 0.0875,-0.3775 0.48125,-0.74375 0.23875,-1.15 -0.0362,-0.17625 0.0638,-0.32625 0.215,-0.365 0.4175,0 0.33,-0.51875 0.545,-0.75875 -0.24,-0.265 -0.8475,-0.2525 -0.78375,-0.78375 0.29,-0.1525 0.64375,-0.10125 0.97125,-0.1525 0.7475,-0.15125 1.58,-0.23875 2.33875,-0.15125 0.15125,0.0312 0.35125,0.33 0.47875,0.5175" />
      <path
         id="path9706"
         style="fill:#000000;fill-opacity:1;fill-rule:evenodd;stroke:none"
         d="m -661.36054,184.63661 c -0.86875,0.0125 -1.7925,0.10125 -2.6,0.40375 -0.16625,0.0637 -0.36625,0.2425 -0.24125,0.45625 0.32875,0.4425 0.8,0.80625 1.2375,1.06 0.44125,0.25875 1.025,0.58375 1.555,0.6575 0.1275,-0.82125 0.1275,-1.62875 0.115,-2.47625 -0.0512,-0.0263 0,-0.075 -0.0662,-0.10125 m 6.19125,-3.38625 c 1.1675,0.95375 2.67875,2.57875 2.49,4.4475 -0.22875,1.47875 -1.79625,2.59 -3.12,2.94375 -1.29125,0.37875 -2.9075,0.3425 -4.22125,0.0388 -0.0875,0.24 -0.175,0.52875 -0.45375,0.63 -0.17875,0.0637 -0.405,0.025 -0.545,-0.0875 -0.39,-0.36625 -0.075,-1.07125 -0.64375,-1.30125 -1.11125,-0.465 -2.3125,-1.38875 -2.87875,-2.52625 -0.075,-0.2275 0.0125,-0.455 0.14875,-0.6325 0.87125,-0.69375 1.97,-0.9725 3.07125,-1.1875 0.0637,0.025 0.04,-0.0625 0.0888,-0.0875 0.06,-0.7575 0.09,-1.53 0.32625,-2.21125 0.0562,-0.095 0.19375,-0.1275 0.27875,-0.0637 0.69625,0.53 0.36875,1.52875 0.67125,2.25 1.32625,0.0613 2.65125,0.125 3.70125,0.87125 0.35375,0.28875 0.44,0.84625 0.33,1.1625 -0.1125,0.315 -0.48125,0.5425 -0.82375,0.5675 -0.22625,0 -0.65625,0.0225 -0.62875,-0.15125 0.0238,-0.1725 0.77125,-0.4575 0.54125,-0.695 -0.33125,-0.34125 -1.98,-0.54375 -3.0025,-0.6675 -0.1275,-0.0288 -0.245,0.0112 -0.245,0.15 -0.0237,0.95875 -0.1,2.02 0.0638,2.94375 0.0125,0.0625 0.0888,0.14125 0.15125,0.15125 1.8075,0.29 3.71625,0.12625 5.13,-0.91125 0.65625,-0.53 0.87125,-1.2775 0.75875,-2.0975 -0.57125,-2.285 -2.95875,-3.6625 -4.91375,-4.54625 -1.9075,-0.83625 -4.01875,-1.2625 -6.28,-1.15 -0.35875,0.0275 -0.9325,0.1525 -0.935,0.2775 -0.005,0.1275 0.6475,0.0888 0.56875,0.32875 -0.08,0.24125 -0.74,0.1 -0.935,0.0375 -0.195,-0.0575 -0.1775,-0.34 -0.12625,-0.51625 0.4925,-0.8725 1.8675,-0.94375 2.49,-0.97375 3.4325,-0.0888 6.7575,1.22 8.9425,3.00625" />
      <path
         id="path9710"
         style="fill:#000000;fill-opacity:1;fill-rule:evenodd;stroke:none"
         d="m -633.21117,184.85137 c -0.15125,-0.0263 -0.215,0.17875 -0.34125,0.21625 -0.58375,0.65625 -1.1625,1.31375 -1.45625,2.0975 0.39375,0.0487 0.72375,-0.20375 1.0625,-0.3425 0.58375,-0.36625 0.9475,-0.97125 0.90875,-1.67 -0.0225,-0.1125 -0.125,-0.2 -0.17375,-0.30125 m -2.03375,-1.36375 c -0.0388,1.09875 -1.065,1.77875 -1.065,2.88 0.04,0.0375 0.0663,0.0888 0.1175,0.0625 0.82,-0.89625 1.62875,-2.17375 2.83,-2.55125 0.3125,-0.025 0.6,0.25 0.72,0.455 0.4125,0.83375 0.315,2.00875 -0.26875,2.76625 -0.5975,0.74625 -1.64,1.4925 -2.82625,1.36625 -0.49375,1.21 -0.835,2.4875 -1.02375,3.8125 -0.1025,0.26625 -0.34125,0.0275 -0.495,-0.0238 -1.02125,-0.80875 -0.18125,-2.9475 -0.11,-3.2225 0.0662,-0.27125 0.34125,-0.915 0.54125,-1.4525 -0.48,-0.86 -0.1775,-1.895 0.215,-2.69125 0.3,-0.53 0.7175,-1.06 1.21125,-1.465 0.0638,0 0.115,0.0125 0.15375,0.0637" />
    </g>
  </g>
</svg>
