<?xml version="1.0" encoding="UTF-8"?>
<!DOCTYPE svg PUBLIC "-//W3C//DTD SVG 1.1//EN" "http://www.w3.org/Graphics/SVG/1.1/DTD/svg11.dtd">
<!-- Creator: CorelDRAW -->
<svg xmlns="http://www.w3.org/2000/svg" xml:space="preserve" width="600px" height="120px" style="shape-rendering:geometricPrecision; text-rendering:geometricPrecision; image-rendering:optimizeQuality; fill-rule:evenodd; clip-rule:evenodd"
viewBox="0 0 600 120"
 xmlns:xlink="http://www.w3.org/1999/xlink">
 <defs>
  <style type="text/css">
   <![CDATA[
    .fil0 {fill:black;fill-rule:nonzero}
   ]]>
  </style>
 </defs>
 <g id="Capa_x0020_1">
  <metadata id="CorelCorpID_0Corel-Layer"/>
  <path class="fil0" d="M71.1614 58.4256l-14.8783 0 -2.73071 -6.93307 -18.1098 0 -2.89843 6.93307 -14.7673 0 19.2815 -46.6665 14.8228 0 19.2803 46.6665zm-30.4819 -19.6665l7.46811 0 -3.73465 -9.19961 -3.73346 9.19961zm124.628 -27l13.2059 0 0 33.9331 23.1827 0 0 12.7335 -36.3886 0 0 -46.6665zm131.926 0l13.2071 0 0 46.6665 -13.2071 0 0 -46.6665zm143.53 29.6669l-21.522 0 0 4.2 23.1815 0 0 12.7996 -36.3886 0 0 -46.6665 36.3886 0 0 12.7335 -23.1815 0 0 4.2 21.522 0 0 12.7335zm110.405 -9.19961l0 26.1992 -13.2083 0 0 -46.6665 13.2083 0 17.4413 25.9996 0 -25.9996 13.2071 0 0 46.6665 -13.2071 0 -17.4413 -26.1992z"/>
  <polygon class="fil0" points="20.7319,108.455 20.7319,84.5941 38.4201,84.5941 38.4201,88.6323 25.5484,88.6323 25.5484,93.9213 37.526,93.9213 37.526,97.9382 25.5484,97.9382 25.5484,104.433 38.876,104.433 38.876,108.455 "/>
  <polygon id="1" class="fil0" points="55.4693,108.455 55.4693,84.7878 60.2858,84.7878 60.2858,104.433 72.2634,104.433 72.2634,108.455 "/>
  <path id="12" class="fil0" d="M95.7626 96.672c0,-2.43425 0.360236,-4.47283 1.08898,-6.12283 0.544488,-1.21063 1.28268,-2.30551 2.22165,-3.27165 0.938976,-0.961417 1.96654,-1.67835 3.08386,-2.14488 1.48819,-0.633071 3.19961,-0.944882 5.1437,-0.944882 3.51732,0 6.32835,1.08898 8.43898,3.27283 2.11063,2.17795 3.16654,5.21102 3.16654,9.09449 0,3.85512 -1.05,6.86575 -3.14409,9.0437 -2.09409,2.17205 -4.89449,3.26102 -8.39409,3.26102 -3.55039,0 -6.37205,-1.08307 -8.46732,-3.24449 -2.09409,-2.16614 -3.13819,-5.14961 -3.13819,-8.94331zm4.96063 -0.161811c0,2.7 0.628346,4.75039 1.87205,6.14409 1.24961,1.39488 2.83346,2.08937 4.7563,2.08937 1.91575,0 3.4937,-0.688583 4.72677,-2.07756 1.22835,-1.38307 1.84488,-3.45591 1.84488,-6.22205 0,-2.73425 -0.6,-4.77283 -1.79409,-6.12283 -1.2,-1.34409 -2.79449,-2.01614 -4.77756,-2.01614 -1.98898,0 -3.58937,0.682677 -4.80591,2.04449 -1.21181,1.36063 -1.82244,3.41102 -1.82244,6.16063z"/>
  <path id="123" class="fil0" d="M150.311 99.6827l4.66654 1.47756c-0.716929,2.60551 -1.90512,4.53898 -3.57165,5.80512 -1.66181,1.26142 -3.77835,1.89449 -6.33898,1.89449 -3.16654,0 -5.77205,-1.08307 -7.81063,-3.24449 -2.03976,-2.16614 -3.06142,-5.12717 -3.06142,-8.87717 0,-3.97205 1.02756,-7.05591 3.07795,-9.25512 2.04921,-2.19449 4.74449,-3.29528 8.08819,-3.29528 2.91732,0 5.28898,0.861024 7.11142,2.58898 1.08898,1.01693 1.90039,2.48386 2.44488,4.39488l-4.77283 1.13858c-0.277559,-1.23898 -0.866929,-2.21693 -1.76693,-2.93268 -0.894094,-0.716929 -1.98307,-1.07244 -3.26102,-1.07244 -1.76693,0 -3.20551,0.633071 -4.30512,1.90512 -1.09961,1.26732 -1.65,3.32244 -1.65,6.16654 0,3.01654 0.538583,5.16732 1.62756,6.44409 1.08307,1.28386 2.49449,1.92283 4.22835,1.92283 1.28268,0 2.38228,-0.405118 3.30472,-1.22244 0.922441,-0.811417 1.58386,-2.09409 1.98898,-3.83858z"/>
  <polygon id="1234" class="fil0" points="176.859,108.455 176.859,88.6323 169.782,88.6323 169.782,84.5941 188.743,84.5941 188.743,88.6323 181.682,88.6323 181.682,108.455 "/>
  <path id="12345" class="fil0" d="M223.276 108.455l-5.24409 0 -2.08346 -5.42244 -9.53976 0 -1.96654 5.42244 -5.11063 0 9.29409 -23.8606 5.09409 0 9.5563 23.8606zm-8.87244 -9.43937l-3.28937 -8.85472 -3.22205 8.85472 6.51142 0z"/>
  <polygon id="123456" class="fil0" points="241.819,108.455 233.291,84.5941 238.519,84.5941 244.552,102.255 250.396,84.5941 255.508,84.5941 246.964,108.455 "/>
  <path id="1234567" class="fil0" d="M269.368 96.672c0,-2.43425 0.360236,-4.47283 1.08898,-6.12283 0.544488,-1.21063 1.28268,-2.30551 2.22165,-3.27165 0.938976,-0.961417 1.96654,-1.67835 3.08386,-2.14488 1.48819,-0.633071 3.19961,-0.944882 5.1437,-0.944882 3.51732,0 6.32835,1.08898 8.43898,3.27283 2.11063,2.17795 3.16654,5.21102 3.16654,9.09449 0,3.85512 -1.05,6.86575 -3.14409,9.0437 -2.09409,2.17205 -4.89449,3.26102 -8.39409,3.26102 -3.55039,0 -6.37205,-1.08307 -8.46732,-3.24449 -2.09409,-2.16614 -3.13819,-5.14961 -3.13819,-8.94331zm4.96063 -0.161811c0,2.7 0.628346,4.75039 1.87205,6.14409 1.24961,1.39488 2.83346,2.08937 4.7563,2.08937 1.91575,0 3.4937,-0.688583 4.72677,-2.07756 1.22835,-1.38307 1.84488,-3.45591 1.84488,-6.22205 0,-2.73425 -0.6,-4.77283 -1.79409,-6.12283 -1.2,-1.34409 -2.79449,-2.01614 -4.77756,-2.01614 -1.98898,0 -3.58937,0.682677 -4.80591,2.04449 -1.21181,1.36063 -1.82244,3.41102 -1.82244,6.16063z"/>
  <path id="12345678" class="fil0" d="M317.911 108.455l0 -23.8606 7.72677 0c2.92795,0 4.83898,0.121654 5.72835,0.360236 1.36654,0.356693 2.51693,1.13386 3.43819,2.33386 0.922441,1.2 1.38425,2.74961 1.38425,4.64409 0,1.46693 -0.266929,2.7 -0.800787,3.69449 -0.532677,1.00039 -1.20472,1.78346 -2.02795,2.3563 -0.816142,0.565748 -1.65,0.943701 -2.49449,1.12677 -1.14921,0.227953 -2.81575,0.344882 -4.99961,0.344882l-3.13819 0 0 9 -4.81654 0zm4.81654 -19.8224l0 6.76654 2.63268 0c1.90039,0 3.17244,-0.121654 3.81142,-0.372047 0.638976,-0.249213 1.13858,-0.638976 1.50591,-1.17165 0.360236,-0.533858 0.543307,-1.15039 0.543307,-1.85551 0,-0.866929 -0.255118,-1.58386 -0.766535,-2.15079 -0.505512,-0.561024 -1.15512,-0.916535 -1.93228,-1.05472 -0.57874,-0.111024 -1.73386,-0.161811 -3.46772,-0.161811l-2.32677 0z"/>
  <path id="123456789" class="fil0" d="M371.565 108.455l-5.24409 0 -2.08346 -5.42244 -9.53976 0 -1.96654 5.42244 -5.11063 0 9.29409 -23.8606 5.09409 0 9.5563 23.8606zm-8.87244 -9.43937l-3.28937 -8.85472 -3.22205 8.85472 6.51142 0z"/>
  <path id="12345678910" class="fil0" d="M385.276 100.694l4.68898 -0.46063c0.277559,1.57677 0.849213,2.73307 1.71614,3.47126 0.861024,0.733465 2.02205,1.10551 3.48898,1.10551 1.54961,0 2.72244,-0.327165 3.50551,-0.988583 0.788976,-0.655512 1.18346,-1.42205 1.18346,-2.29961 0,-0.566929 -0.166535,-1.04409 -0.500787,-1.43858 -0.327165,-0.400394 -0.904724,-0.745276 -1.73268,-1.03346 -0.561024,-0.200787 -1.84961,-0.544488 -3.85512,-1.04528 -2.58425,-0.638976 -4.39488,-1.42677 -5.43425,-2.36102 -1.46575,-1.31102 -2.19921,-2.91024 -2.19921,-4.8 0,-1.21654 0.343701,-2.34921 1.03346,-3.41102 0.688583,-1.05472 1.68307,-1.86024 2.97756,-2.41654 1.29921,-0.549213 2.86063,-0.827953 4.6937,-0.827953 3,0 5.25,0.655512 6.76654,1.96654 1.51181,1.31693 2.30551,3.06732 2.38346,5.26181l-4.81654 0.211417c-0.205512,-1.22835 -0.649606,-2.11181 -1.32756,-2.64449 -0.677953,-0.539764 -1.69488,-0.805512 -3.04961,-0.805512 -1.40079,0 -2.50039,0.283465 -3.28937,0.861024 -0.511417,0.366142 -0.766535,0.861024 -0.766535,1.47756 0,0.566929 0.238583,1.05 0.716929,1.45039 0.605906,0.510236 2.08346,1.04409 4.42795,1.59331 2.34449,0.556299 4.07717,1.12795 5.19921,1.71732 1.12205,0.594094 2.00079,1.39961 2.63976,2.42717 0.633071,1.02874 0.949606,2.29488 0.949606,3.80079 0,1.36654 -0.377953,2.64921 -1.13858,3.83858 -0.761811,1.19409 -1.83425,2.08346 -3.22205,2.66102 -1.38898,0.583465 -3.12283,0.871654 -5.19449,0.871654 -3.01654,0 -5.33386,-0.693307 -6.95079,-2.08819 -1.61575,-1.39488 -2.58307,-3.42756 -2.8937,-6.09449z"/>
  <path id="1234567891011" class="fil0" d="M442.624 108.455l-5.24409 0 -2.08346 -5.42244 -9.53976 0 -1.96654 5.42244 -5.11063 0 9.29409 -23.8606 5.09409 0 9.5563 23.8606zm-8.87244 -9.43937l-3.28937 -8.85472 -3.22205 8.85472 6.51142 0z"/>
  <path id="123456789101112" class="fil0" d="M466.161 84.5941l4.80591 0 0 15.1051c0,1.97244 -0.177165,3.49488 -0.522047,4.55551 -0.466535,1.38898 -1.31102,2.50512 -2.53937,3.34488 -1.22717,0.844488 -2.84409,1.26024 -4.84961,1.26024 -2.35512,0 -4.16693,-0.655512 -5.43898,-1.97717 -1.26614,-1.31693 -1.91102,-3.25039 -1.91693,-5.80039l4.53898 -0.522047c0.0555118,1.36654 0.256299,2.33386 0.6,2.89961 0.523228,0.856299 1.31693,1.28386 2.37874,1.28386 1.07126,0 1.83307,-0.305906 2.27717,-0.922441 0.444094,-0.61063 0.666142,-1.88268 0.666142,-3.81614l0 -15.411z"/>
  <polygon id="12345678910111213" class="fil0" points="488.472,108.455 488.472,84.5941 506.16,84.5941 506.16,88.6323 493.289,88.6323 493.289,93.9213 505.266,93.9213 505.266,97.9382 493.289,97.9382 493.289,104.433 506.616,104.433 506.616,108.455 "/>
  <path id="1234567891011121314" class="fil0" d="M523.093 108.455l0 -23.8606 10.1445 0c2.55,0 4.39961,0.216142 5.55472,0.643701 1.1563,0.42874 2.08346,1.18937 2.77795,2.28425 0.694488,1.09961 1.03937,2.34921 1.03937,3.76063 0,1.78937 -0.527953,3.27165 -1.57795,4.43858 -1.05,1.16102 -2.62795,1.90039 -4.72205,2.20039 1.04409,0.61063 1.90512,1.27795 2.58307,2.00551 0.677953,0.727559 1.58858,2.01614 2.73898,3.87165l2.91614 4.65591 -5.76024 0 -3.48307 -5.19449c-1.23898,-1.85551 -2.08346,-3.02244 -2.53937,-3.50551 -0.455906,-0.483071 -0.938976,-0.811417 -1.45039,-0.994488 -0.510236,-0.177165 -1.31575,-0.266929 -2.42717,-0.266929l-0.972047 0 0 9.96142 -4.82244 0zm4.82244 -13.7717l3.56102 0c2.31024,0 3.75472,-0.0944882 4.33346,-0.28937 0.571654,-0.194882 1.02165,-0.533858 1.35,-1.01102 0.32126,-0.478346 0.488976,-1.07244 0.488976,-1.78937 0,-0.805512 -0.217323,-1.44921 -0.644882,-1.94409 -0.427559,-0.494882 -1.03346,-0.805512 -1.81654,-0.938976 -0.388583,-0.0496063 -1.56142,-0.0779528 -3.51732,-0.0779528l-3.75472 0 0 6.05079z"/>
  <path id="123456789101112131415" class="fil0" d="M558.553 96.672c0,-2.43425 0.360236,-4.47283 1.08898,-6.12283 0.544488,-1.21063 1.28268,-2.30551 2.22165,-3.27165 0.938976,-0.961417 1.96654,-1.67835 3.08386,-2.14488 1.48819,-0.633071 3.19961,-0.944882 5.1437,-0.944882 3.51732,0 6.32835,1.08898 8.43898,3.27283 2.11063,2.17795 3.16654,5.21102 3.16654,9.09449 0,3.85512 -1.05,6.86575 -3.14409,9.0437 -2.09409,2.17205 -4.89449,3.26102 -8.39409,3.26102 -3.55039,0 -6.37205,-1.08307 -8.46732,-3.24449 -2.09409,-2.16614 -3.13819,-5.14961 -3.13819,-8.94331zm4.96063 -0.161811c0,2.7 0.628346,4.75039 1.87205,6.14409 1.24961,1.39488 2.83346,2.08937 4.7563,2.08937 1.91575,0 3.4937,-0.688583 4.72677,-2.07756 1.22835,-1.38307 1.84488,-3.45591 1.84488,-6.22205 0,-2.73425 -0.6,-4.77283 -1.79409,-6.12283 -1.2,-1.34409 -2.79449,-2.01614 -4.77756,-2.01614 -1.98898,0 -3.58937,0.682677 -4.80591,2.04449 -1.21181,1.36063 -1.82244,3.41102 -1.82244,6.16063z"/>
 </g>
</svg>
