<?xml version="1.0" encoding="UTF-8" standalone="no"?>
<!-- Created with Inkscape (http://www.inkscape.org/) -->

<svg
   xmlns:dc="http://purl.org/dc/elements/1.1/"
   xmlns:cc="http://creativecommons.org/ns#"
   xmlns:rdf="http://www.w3.org/1999/02/22-rdf-syntax-ns#"
   xmlns:svg="http://www.w3.org/2000/svg"
   xmlns="http://www.w3.org/2000/svg"
   xmlns:sodipodi="http://sodipodi.sourceforge.net/DTD/sodipodi-0.dtd"
   xmlns:inkscape="http://www.inkscape.org/namespaces/inkscape"
   version="1.1"
   id="svg3713"
   width="1461.5001"
   height="199.80432"
   viewBox="0 0 1461.5001 199.80432"
   sodipodi:docname="Chernobyl_logo.svg"
   inkscape:version="0.92.3 (2405546, 2018-03-11)">
  <metadata
     id="metadata3719">
    <rdf:RDF>
      <cc:Work
         rdf:about="">
        <dc:format>image/svg+xml</dc:format>
        <dc:type
           rdf:resource="http://purl.org/dc/dcmitype/StillImage" />
        <dc:title></dc:title>
      </cc:Work>
    </rdf:RDF>
  </metadata>
  <defs
     id="defs3717" />
  <sodipodi:namedview
     pagecolor="#ffffff"
     bordercolor="#666666"
     borderopacity="1"
     objecttolerance="10"
     gridtolerance="10"
     guidetolerance="10"
     inkscape:pageopacity="0"
     inkscape:pageshadow="2"
     inkscape:window-width="1920"
     inkscape:window-height="1018"
     id="namedview3715"
     showgrid="false"
     fit-margin-top="0"
     fit-margin-left="0"
     fit-margin-right="0"
     fit-margin-bottom="0"
     inkscape:zoom="0.78754018"
     inkscape:cx="856.816"
     inkscape:cy="176.69165"
     inkscape:window-x="-8"
     inkscape:window-y="-8"
     inkscape:window-maximized="1"
     inkscape:current-layer="svg3713" />
  <path
     style="fill:#000000"
     d="M 78.325988,198.74286 C 48.466828,197.0126 25.828598,182.70394 12.483456,157.12661 8.0311463,148.59332 5.8620013,141.92495 2.7011323,127.05392 0.39064433,116.1837 9.973272e-4,111.97113 1.3271958e-6,97.85131 -8.706728e-4,85.498 0.42780933,79.71777 1.7057523,74.85131 c 0.938803,-3.575 2.14517,-8.21193 2.680815,-10.3043 C 7.3002993,53.165209 20.486348,32.390389 30.533798,23.351629 48.080128,7.5668492 66.558428,0.57265919 90.825988,0.53054919 107.7005,0.50124919 118.74093,3.6761792 131.56691,12.246459 c 15.61526,10.43406 33.19328,34.76198 28.87588,39.96412 -0.64942,0.7825 -6.45387,3.078791 -12.89878,5.102861 -6.44491,2.02408 -12.75169,4.09813 -14.01507,4.60901 -1.26338,0.51088 -3.75386,0.92887 -5.5344,0.92887 -2.57567,0 -3.62036,-0.6484 -5.11135,-3.17246 -14.65424,-24.807661 -47.752432,-26.380611 -68.369142,-3.24917 -9.90659,11.11493 -14.45359,24.6149 -14.27409,42.37952 0.17709,17.52582 3.73504,31.18413 11.03724,42.36999 9.69581,14.85248 25.37604,20.98943 45.1227,17.6602 14.475292,-2.4405 22.670282,-8.25663 29.230622,-20.74546 2.35069,-4.47498 4.42783,-7.24263 5.43564,-7.24263 2.15276,0 30.12037,6.78222 33.00983,8.00497 3.01541,1.27606 2.83922,3.57735 -0.8939,11.67526 -6.55633,14.22206 -15.71896,25.54887 -27.3561,33.81755 -16.5066,11.72861 -32.8577,15.82173 -57.500002,14.39377 z m 829.500032,-7e-4 c -18.65106,-2.68967 -34.39841,-10.9389 -46.58543,-24.40369 -10.21505,-11.28607 -15.54287,-20.58933 -20.81987,-36.35497 -8.63769,-25.8061 -8.76003,-51.834 -0.35935,-76.45137 11.05897,-32.407221 34.95347,-54.6264608 64.76462,-60.2239608 11.83993,-2.22313001 29.82384,-1.54603001 40.48374,1.52422 40.6745,11.7150898 67.77647,56.7951908 63.28107,105.2586908 -5.7627,62.12747 -46.21317,98.51798 -100.76478,90.65108 z m 24.06821,-40.43174 c 6.1702,-0.7995 15.3879,-5.61848 20.5913,-10.76509 5.7446,-5.68196 11.1153,-16.18405 13.5215,-26.44044 2.5615,-10.91866 2.5545,-34.34463 -0.013,-42.75358 -4.3687,-14.30899 -12.938,-26.643691 -22.337,-32.151851 -24.6176,-14.42685 -52.44732,-3.46162 -63.80997,25.141831 -4.49324,11.31094 -5.88775,21.87931 -4.61156,34.94899 1.98476,20.32639 8.05457,35.30065 17.41977,42.97473 10.58229,8.67139 21.93245,11.28784 39.23886,9.04541 z m -738.40287,35.40636 c -1.03794,-0.38396 -2.18729,-1.48021 -2.5541,-2.43611 -0.99931,-2.60415 -0.5612,-181.5721708 0.45087,-184.1793508 0.85915,-2.21326 1.1566,-2.25 18.21451,-2.25 12.35927,0 17.83566,0.36164 19.06263,1.25882 1.56047,1.14104 1.74208,4.3453498 1.94113,34.2499998 l 0.21959,32.991171 31.12219,0.26407 31.12218,0.26407 0.62782,-3.13907 c 0.34529,-1.72649 0.62781,-16.984671 0.62781,-33.907071 0,-27.1339198 0.18683,-30.8397098 1.58179,-31.3749998 0.86998,-0.33385 9.43112,-0.60699 19.02475,-0.60699 h 17.44296 l 1.01425,2.66768 c 1.2393,3.2596098 0.85437,184.7473408 -0.3945,185.9994208 -0.45691,0.45809 -8.55691,0.9698 -18,1.13713 -12.97208,0.22986 -17.58036,-0.0146 -18.85095,-1 -1.51317,-1.17354 -1.7136,-5.12913 -2,-39.47129 -0.17507,-20.99187 -0.61778,-38.46636 -0.98382,-38.83218 -0.36604,-0.36583 -14.42017,-0.74949 -31.23142,-0.85258 -24.04706,-0.14745 -30.67063,0.0855 -31.05701,1.0924 -0.27011,0.7039 -0.50451,18.24126 -0.52088,38.97191 -0.0188,23.79988 -0.39901,38.06134 -1.0316,38.69393 -1.14131,1.14131 -32.88441,1.54802 -35.8282,0.45904 z m 168.40606,-0.4369 c -1.40587,-1.40587 -1.57143,-11.29623 -1.57143,-93.87755 0,-76.683901 0.23056,-92.4974708 1.36232,-93.4367508 0.9866,-0.8188 17.32774,-1.05942 59.25,-0.87244 l 57.88768,0.25818 0.27159,19.2499998 c 0.14938,10.5875 0.14938,19.34924 0,19.47055 -0.14937,0.1213 -17.82159,0.4588 -39.27159,0.75 l -39,0.52945 V 57.85132 70.35131 l 33.41403,0.26368 c 22.6241,0.17854 33.84543,0.62173 34.75,1.37245 1.02329,0.84926 1.33239,5.23436 1.32066,18.73631 -0.008,9.69516 -0.36872,18.18397 -0.80065,18.86402 -0.59294,0.93354 -9.10252,1.30102 -34.73469,1.5 l -33.94935,0.26354 -0.1952,21.25 -0.19521,21.25 H 440.299 c 21.92488,0 40.57522,0.27314 41.4452,0.60699 1.36501,0.5238 1.58179,3.19143 1.58179,19.46482 0,17.62072 -0.12689,18.92573 -1.93426,19.89301 -1.26955,0.67944 -21.86397,1.03518 -59.92857,1.03518 -51.38877,0 -58.1733,-0.17899 -59.56574,-1.57143 z m 147.54584,0.21273 c -0.82314,-0.99183 -1.05872,-26.57618 -0.87245,-94.75 l 0.25518,-93.3912908 36,0.0119 36,0.0118 9.47913,3.29584 c 12.07452,4.1982598 18.06269,7.6511698 26.19995,15.1074898 13.78982,12.63587 19.69207,32.268721 15.30081,50.895541 -4.60596,19.53756 -20.57624,37.71191 -35.97698,40.94219 l -3.50525,0.73522 6.61628,10.5 c 3.63895,5.775 7.45003,11.85 8.46907,13.5 1.01904,1.65 8.17467,12.9 15.90141,25 17.06269,26.72 16.6755,25.99992 15.04016,27.97039 -1.06448,1.28261 -4.60991,1.52961 -21.9559,1.52961 -15.05736,0 -21.1074,-0.34014 -22.2335,-1.25 -1.51881,-1.22715 -8.16153,-11.21745 -20.90948,-31.4467 -3.53414,-5.60819 -8.0007,-12.64829 -9.9257,-15.64466 -1.925,-2.99638 -5.75,-9.08369 -8.5,-13.52737 -2.75,-4.44367 -5.2986,-8.09108 -5.66356,-8.10534 -0.36495,-0.0143 -0.71288,15.16157 -0.77316,33.72407 -0.0983,30.26457 -0.28186,33.87909 -1.77757,35 -2.48145,1.85963 -35.61529,1.76273 -37.16844,-0.1087 z M 579.64677,77.77919 c 5.29641,-1.47073 11.46414,-7.26447 12.26224,-11.51869 1.51486,-8.07491 -2.45932,-15.114161 -10.51884,-18.631421 -3.77289,-1.64652 -6.99137,-2.01664 -18.56418,-2.13481 l -14,-0.14295 -0.27418,16.750001 -0.27418,16.74999 13.77418,-0.006 c 7.5758,-0.003 15.49353,-0.48301 17.59496,-1.06654 z m 80.70555,115.60384 c -0.93868,-1.13103 -1.21901,-22.70669 -1.2205,-93.93683 -10e-4,-50.857701 0.29374,-92.9469808 0.65513,-93.5317208 0.42732,-0.69142 7.40056,-1.06316 19.94307,-1.06316 17.12657,0 19.45481,0.19594 20.79374,1.75 0.82925,0.9625 16.7615,26.1943198 35.40498,56.0707208 l 33.89725,54.32071 0.25861,-54.72863 c 0.18143,-38.392891 0.59108,-55.1292308 1.37245,-56.0707208 1.5133,-1.82342 36.85773,-1.95329 38.66894,-0.14208 1.59039,1.59039 1.75119,183.9015608 0.16482,186.8657308 -0.96713,1.8071 -2.27175,1.93426 -19.84502,1.93426 -16.66622,0 -18.9837,-0.19943 -20.33556,-1.75 -1.30126,-1.49252 -17.97458,-27.97901 -43.59308,-69.25 C 716.3069,107.40276 701.134,83.4233 700.44801,82.65128 c -0.34211,-0.38501 -0.56069,23.68999 -0.48572,53.5 0.11333,45.07102 -0.10109,54.579 -1.27306,56.45003 -1.37596,2.1967 -1.83232,2.25 -19.26385,2.25 -14.47926,0 -18.08486,-0.27756 -19.07306,-1.46828 z m 373.72368,0.38818 c -1.6468,-0.95915 -1.75,-6.49093 -1.75,-93.76959 0,-70.805791 0.2839,-93.0342208 1.2,-93.9503008 1.8399,-1.83988 63.0922,-1.63323 71.9429,0.24272 14.7593,3.12832 26.9945,9.6210098 36.6933,19.4715198 9.7683,9.92119 14.3309,21.56932 14.3002,36.508451 -0.024,11.50442 -2.6877,20.14975 -8.6777,28.16001 l -2.3053,3.08271 6.6733,6.9843 c 15.9568,16.70038 19.0853,35.49667 9.2959,55.85028 -2.1163,4.4 -5.7586,10.14975 -8.0941,12.77721 -10.7647,12.11045 -30.2917,21.79618 -49.7201,24.66199 -9.321,1.37491 -67.1922,1.35886 -69.5584,-0.0193 z m 73.9508,-40.96472 c 12.9587,-2.8212 18.7587,-9.38583 18.0941,-20.47941 -0.8103,-13.52464 -9.4993,-17.47577 -38.4314,-17.47577 h -15.3635 v 19.5 19.5 h 15.4508 c 8.4979,0 17.6104,-0.47017 20.25,-1.04482 z m -0.5351,-81.65088 c 5.7249,-2.5979 8.3343,-6.33768 8.3343,-11.94465 0,-3.30704 -0.6344,-4.890441 -2.9115,-7.267251 -4.7954,-5.00531 -11.1166,-6.57014 -26.5885,-6.58202 l -13.5,-0.0104 -0.2781,14.357501 -0.2781,14.35749 15.2781,-0.39674 c 12.8701,-0.33421 16.0135,-0.73044 19.9438,-2.51396 z m 126.3343,122.89742 c -1.1,-0.2382 -2.3306,-0.94353 -2.7347,-1.5674 -0.4041,-0.62388 -0.7416,-19.77233 -0.75,-42.55213 l -0.015,-41.4178 -4.6507,-8.5822 c -8.0919,-14.93234 -8.8369,-16.25696 -18.1877,-32.33879 -5.0392,-8.66611 -9.1619,-15.897831 -9.1619,-16.070471 0,-0.17264 -3.2244,-5.90717 -7.1654,-12.7434 -15.3255,-26.58483 -17.1538,-30.1999198 -16.1102,-31.8561198 0.8339,-1.32334 3.994,-1.61854 19.8835,-1.85738 10.3907,-0.15619 19.8665,-0.0447 21.0573,0.24778 1.9961,0.49021 5.9456,6.6897998 17.5422,27.5361998 2.9253,5.2586 12.3648,21.43346 14.5141,24.870331 1.4465,2.31313 1.5264,2.32519 3.312,0.5 1.7007,-1.73853 21.1312,-34.882061 25.7191,-43.870331 1.123,-2.2 3.1915,-5.2374998 4.5968,-6.7499998 l 2.5551,-2.75 h 19.3566 c 25.0859,0 24.6928,-0.23874 18.2673,11.0941798 -7.158,12.62493 -8.4717,14.95602 -11.4998,20.40582 -1.528,2.75 -7.506,13.325 -13.2845,23.500001 -5.7784,10.17499 -11.7576,20.74999 -13.287,23.49999 -1.5294,2.75 -5.1829,9.27198 -8.1189,14.4933 l -5.3382,9.4933 v 41.56557 c 0,33.43674 -0.2656,41.92877 -1.358,43.42271 -1.2157,1.66264 -3.0224,1.873 -17.25,2.00854 -8.7406,0.0833 -16.792,-0.0435 -17.892,-0.2817 z m 126.8347,0.003 c -3.4834,-0.16696 -6.6325,-0.85841 -7.2393,-1.58948 -0.9116,-1.09844 -1.3207,-67.58713 -1.1062,-179.767171 0.01,-5.4369498 0.1307,-5.6939698 3.16,-6.7499998 1.755,-0.61203 9.9138,-1.09806 18.4286,-1.09806 12.557,0 15.5593,0.27998 16.8508,1.57143 1.3998,1.39984 1.5714,9.5346298 1.5714,74.4999908 v 72.92857 l 11.75,0.0327 c 40.4784,0.11277 54.0662,0.56982 55.6345,1.87136 2.2865,1.89768 2.4282,35.17655 0.1577,37.06087 -1.0871,0.90222 -13.1012,1.25119 -47.25,1.37244 -25.1857,0.0894 -48.5666,0.0296 -51.9575,-0.13293 z"
     id="path3723"
     inkscape:connector-curvature="0" />
</svg>
