<?xml version="1.0" encoding="utf-8"?>
<!-- Generator: Adobe Illustrator 15.1.0, SVG Export Plug-In . SVG Version: 6.00 Build 0)  -->
<!DOCTYPE svg PUBLIC "-//W3C//DTD SVG 1.1//EN" "http://www.w3.org/Graphics/SVG/1.1/DTD/svg11.dtd">
<svg version="1.1" id="Capa_1" xmlns="http://www.w3.org/2000/svg" xmlns:xlink="http://www.w3.org/1999/xlink" x="0px" y="0px"
	 width="184px" height="156px" viewBox="0 0 184 156" enable-background="new 0 0 184 156" xml:space="preserve">
<g>
	<g>
		<g>
			<path fill="#364996" d="M31.509,7.488H20.233v25.674h3.434c3.317,0,5.577-3.707,6.779-11.12l0.171-1.085h2.232v26.126h-2.232
				l-0.171-0.994c-1.488-7.171-3.776-10.758-6.865-10.758h-3.347v29.291h6.049v2.169H7.876v-2.169h4.752V7.488H7.876v-2.17h35.168
				v19.075h-2.324l-1.034-4.882c-1.894-8.015-4.018-12.023-6.37-12.023H31.509z"/>
		</g>
		<g>
			<path fill="#364996" d="M72.05,77.429v16.435h-2.309l-0.247-1.363c-2.474-11.507-5.635-17.26-9.482-17.26
				c-5.112,0-8.878,2.574-11.296,7.718c-2.419,5.146-3.628,12.864-3.628,23.153c0,9.93,1.113,17.286,3.339,22.07
				c2.227,4.785,5.538,7.176,9.936,7.176c2.692,0,4.645-0.704,5.854-2.115c1.208-1.411,1.814-3.828,1.814-7.252v-15.313h-6.349
				v-2.169h16.82v2.169h-3.38v20.813c-1.814,1.803-3.986,3.214-6.514,4.234c-2.529,1.021-5.085,1.531-7.668,1.531
				c-6.542,0-11.764-2.843-15.667-8.53c-3.904-5.687-5.854-13.165-5.854-22.434c0-9.569,2.116-17.468,6.349-23.697
				c4.232-6.229,9.73-9.344,16.491-9.344c0.878,0,1.868,0.092,2.968,0.272c1.099,0.183,2.144,0.424,3.133,0.726
				C68.284,74.977,70.18,76.036,72.05,77.429z"/>
		</g>
		<g>
			<path fill="#364996" d="M75.277,93.563h9.31v31.901c0,2.764,0.352,4.88,1.06,6.347c0.706,1.466,1.766,2.199,3.179,2.199
				c1.968,0,3.506-1.272,4.617-3.816c1.109-2.543,1.665-6.104,1.665-10.684V95.599h-4.541v-2.035h10.445v40.277h3.33v2.035h-8.931
				v-7.462c-0.605,2.631-1.64,4.717-3.103,6.256c-1.464,1.539-3.179,2.309-5.146,2.309c-3.079,0-5.273-1.158-6.585-3.477
				c-1.313-2.317-1.968-6.784-1.968-13.398V95.599h-3.33V93.563z"/>
		</g>
		<g>
			<path fill="#364996" d="M105.373,135.875v-2.035h3.559V95.598h-3.559v-2.035h8.788v7.208c0.726-2.769,1.815-4.861,3.268-6.275
				c1.452-1.412,3.195-2.12,5.229-2.12c2.179,0,3.946,0.708,5.302,2.12c1.354,1.244,2.251,3.336,2.687,6.275
				c0.581-2.544,1.622-4.607,3.123-6.19c1.549-1.469,3.292-2.205,5.229-2.205c3.05,0,5.204,1.133,6.463,3.398
				c1.258,2.266,1.888,6.769,1.888,13.51v24.556h3.559v2.035h-12.056v-2.035h2.905v-26.345c0-4.814-0.327-8.045-0.98-9.688
				c-0.654-1.643-1.828-2.464-3.522-2.464c-2.033,0-3.607,1.274-4.72,3.824c-0.581,1.473-1.005,3.075-1.271,4.803
				c-0.267,1.728-0.399,3.724-0.399,5.99v23.88h3.486v2.035h-11.91v-2.035h2.905v-29.914c0-3.058-0.399-5.253-1.198-6.584
				s-1.9-1.998-3.304-1.998c-1.986,0-3.535,1.318-4.648,3.952c-1.114,2.634-1.67,6.161-1.67,10.58v23.965h3.341v2.035H105.373z"/>
		</g>
		<g>
			<path fill="#364996" d="M164.531,149.951h-13.528v-2.035h3.587V95.598h-3.587v-2.035h8.894v6.021
				c0.847-2.487,1.943-4.31,3.289-5.469c1.345-1.158,2.889-1.738,4.634-1.738c3.588,0,6.54,2.003,8.857,6.01
				c2.317,4.006,3.475,9.366,3.475,16.079c0,6.32-1.184,11.653-3.55,15.997c-2.367,4.345-5.295,6.517-8.782,6.517
				c-1.644,0-3.127-0.523-4.447-1.569c-1.321-1.045-2.38-2.529-3.177-4.451v16.959h4.335V149.951z M167.072,95.004
				c-2.193,0-3.887,1.58-5.083,4.738c-1.046,3.16-1.569,8.067-1.569,14.723c0,7.051,0.561,12.128,1.682,15.231
				c1.121,3.104,2.803,4.653,5.045,4.653s3.874-1.678,4.896-5.034c1.021-3.356,1.532-8.532,1.532-15.527
				c0-6.26-0.536-10.956-1.607-14.086C170.896,96.57,169.264,95.004,167.072,95.004z"/>
		</g>
		<g>
			<path fill="#364996" d="M52.066,23.292c3.834,0,7.063,2.103,9.688,6.305c2.623,4.204,3.936,9.522,3.936,15.953
				c0,6.433-1.313,11.764-3.936,15.996c-2.625,4.231-5.854,6.348-9.688,6.348c-3.835,0-7.039-2.102-9.612-6.306
				c-2.573-4.203-3.86-9.548-3.86-16.038c0-6.375,1.274-11.679,3.822-15.911C44.964,25.408,48.18,23.292,52.066,23.292z
				 M52.028,25.073c-2.308,0-4.04,1.594-5.194,4.781c-1.154,3.188-1.731,8.42-1.731,15.696c0,3.723,0.137,6.869,0.414,9.435
				c0.276,2.567,0.689,4.697,1.242,6.389c1.154,3.16,2.911,4.739,5.27,4.739c2.409,0,4.216-1.58,5.42-4.739
				c1.054-3.159,1.581-8.433,1.581-15.824c0-7.333-0.565-12.58-1.693-15.739C56.207,26.654,54.438,25.073,52.028,25.073z"/>
		</g>
		<g>
			<path fill="#364996" d="M66.731,66.792v-2.035h3.406V26.515h-3.406v-2.035h9.158v6.784c0.706-2.487,1.766-4.438,3.179-5.851
				c1.412-1.412,3.052-2.12,4.919-2.12h1.514l0.681,0.257c0.504,0.172,0.82,0.286,0.946,0.343c0.125,0.057,0.492,0.314,1.097,0.77
				v15.589l-1.993-0.085l-0.383-2.205c-1.431-7.857-2.861-11.787-4.291-11.787c-1.584,0-2.926,1.329-4.023,3.985
				c-1.099,2.658-1.647,6.247-1.647,10.769v23.827h4.919v2.035H66.731z"/>
		</g>
		<g>
			<path fill="#364996" d="M89.376,66.792v-2.035h3.406V26.515h-3.406v-2.035h9.158v6.784c0.706-2.487,1.766-4.438,3.179-5.851
				c1.412-1.412,3.052-2.12,4.919-2.12h1.514l0.681,0.257c0.504,0.172,0.82,0.286,0.946,0.343c0.125,0.057,0.492,0.314,1.097,0.77
				v15.589l-1.993-0.085l-0.383-2.205c-1.431-7.857-2.861-11.787-4.291-11.787c-1.584,0-2.926,1.329-4.023,3.985
				c-1.099,2.658-1.647,6.247-1.647,10.769v23.827h4.919v2.035H89.376z"/>
		</g>
		<g>
			<path fill="#364996" d="M135.238,50.257h1.665c0,2.7-0.303,5.12-0.908,7.258c-0.605,2.138-1.489,4.079-2.649,5.823
				c-2.12,3.038-4.996,4.557-8.628,4.557c-3.986,0-7.341-2.116-10.066-6.348c-2.725-4.232-4.087-9.591-4.087-16.081
				c0-6.319,1.336-11.595,4.011-15.826c2.674-4.232,6.029-6.348,10.066-6.348c3.683,0,6.609,1.555,8.78,4.664
				c2.119,3.336,3.179,7.688,3.179,13.059v1.187h-19.527l-0.076,1.689v1.859c0,6.59,0.706,11.534,2.119,14.829
				c1.412,3.295,3.557,4.942,6.433,4.942c2.674,0,4.894-1.349,6.66-4.047c0.403-0.618,0.807-1.362,1.211-2.234
				c0.403-0.872,0.73-1.785,0.984-2.741C134.96,54.53,135.238,52.45,135.238,50.257z M117.225,40.082l12.942,0.085v-1.696v-1.526
				c0-4.07-0.477-7.066-1.43-8.988c-0.953-1.921-2.383-2.883-4.289-2.883c-2.107,0-3.813,1.329-5.116,3.985
				c-0.251,0.565-0.516,1.258-0.791,2.077c-0.275,0.82-0.513,1.71-0.714,2.671C117.424,35.899,117.225,37.991,117.225,40.082z"/>
		</g>
		<g>
			<path fill="#364996" d="M160.199,26.006v12.295h-2.532l-0.95-4.07c-1.298-6.105-3.419-9.158-6.362-9.158
				c-2.146,0-3.893,0.621-5.24,1.861c-1.348,1.241-2.021,2.935-2.021,5.078c0,2.821,2.422,5.557,7.266,8.208l3.406,1.863
				c3.077,1.749,5.247,3.583,6.509,5.501c1.26,1.918,1.892,4.203,1.892,6.854c0,3.837-1.237,7.039-3.709,9.605
				c-2.473,2.568-5.651,3.851-9.536,3.851c-2.373,0-4.503-0.423-6.396-1.266c-1.892-0.844-3.419-1.913-4.579-3.208v-12.91h2.649
				c1.211,7.478,2.309,11.934,3.292,13.367s2.611,2.15,4.882,2.15s4.137-0.845,5.601-2.539c1.563-1.692,2.346-3.751,2.346-6.178
				c0-1.974-0.492-3.583-1.476-4.824c-0.984-1.24-3.52-2.947-7.606-5.12c-4.087-2.171-6.762-4.132-8.023-5.881
				c-1.362-1.692-2.043-3.751-2.043-6.178c0-3.44,1.249-6.304,3.747-8.589c2.498-2.284,5.664-3.427,9.499-3.427
				c1.463,0,3.027,0.254,4.692,0.763c0.555,0.169,1.236,0.424,2.043,0.763C158.356,25.158,159.239,25.554,160.199,26.006z"/>
		</g>
		<g>
			<path fill="#364996" d="M164.88,15.406h5.828v9.073h6.812v2.035h-6.812v30.187c0,2.77,0.252,4.89,0.757,6.359
				c0.503,1.244,1.362,1.865,2.573,1.865c1.412,0,2.472-1.011,3.179-3.035c0.605-1.966,0.908-5.48,0.908-10.539v-1.096h1.362v1.604
				v1.941c0,5.064-0.59,8.68-1.769,10.844c-1.18,2.165-3.15,3.249-5.911,3.249c-2.46,0-4.268-0.99-5.422-2.968
				c-1.004-1.978-1.505-5.821-1.505-11.532v-26.88h-3.557v-2.035h3.557V15.406z"/>
		</g>
	</g>
</g>
</svg>
