<?xml version="1.0" encoding="UTF-8" standalone="no"?>
<!-- Created with Inkscape (http://www.inkscape.org/) -->
<svg
   xmlns:svg="http://www.w3.org/2000/svg"
   xmlns="http://www.w3.org/2000/svg"
   version="1.0"
   width="600"
   height="600"
   id="RAF_roundel_svg">
  <defs
     id="defs2255" />
  <desc
     id="desc2244">The Royal Air Force Roundel</desc>
  <g
     transform="translate(300,300)"
     id="g2246">
    <circle
       cx="0"
       cy="0"
       r="300"
       style="fill:#000099"
       id="circle2248" />
    <circle
       cx="0"
       cy="0"
       r="200"
       style="fill:#ffffff"
       id="circle2250" />
    <circle
       cx="0"
       cy="0"
       r="100"
       style="fill:#cc0033"
       id="circle2252" />
  </g>
  <g
     transform="matrix(2.7131062,0,0,2.7131062,130.54171,-588.32663)"
     style="fill:#000000"
     id="g2325">
    <g
       transform="matrix(1.5175013,0,0,1.3001257,-295.07247,-144.18882)"
       style="opacity:1;fill:#000000"
       id="g2300">
      <path
         d="M 183.88231,303.4119 L 227.37219,303.4119 L 227.37219,325.80456 C 230.52031,319.78226 241.62465,316.58596 244.52641,328.26041 L 244.51551,383.47274 C 247.75869,377.7843 259.43981,375.56177 260.93971,386.85601 L 260.79625,422.63432 L 251.88497,422.57851 L 251.9013,389.83018 C 251.66889,385.19007 244.26784,386.24888 244.24775,391.22555 L 244.33794,422.63432 L 235.18526,422.59442 L 235.23308,330.25298 C 232.6041,327.27938 229.97512,327.36934 227.34614,331.53672 L 227.29832,362.77945 L 218.14796,362.72363 L 218.16431,311.17453 L 205.61318,311.23034 L 205.44914,362.72363 L 195.56972,362.72363 L 195.56972,311.14203 L 183.83449,311.19784 L 183.88231,303.4119 z "
         style="opacity:1;fill:#000000;fill-rule:evenodd;stroke:none;stroke-width:1px;stroke-linecap:butt;stroke-linejoin:miter;stroke-opacity:1"
         id="path2269" />
      <path
         d="M 276.6141,301.90641 L 265.62543,315.00933 L 265.76889,324.84794 L 273.28924,315.80519 L 273.62398,391.22591 C 269.79886,391.22592 267.04912,393.59452 267.04912,397.31032 L 266.85784,415.70305 C 266.85784,422.93534 272.72788,423.57625 277.1631,423.57625 C 281.6915,423.57625 285.93004,423.63624 285.93004,416.14956 C 285.93004,416.14956 285.76635,397.56668 285.76635,397.56668 C 285.76635,394.92963 284.35662,391.25427 279.49012,391.29759 L 279.49012,315.58193 L 287.37646,324.84794 L 287.37646,314.78607 L 276.6141,301.90641 z M 279.54119,398.05146 L 279.52651,416.38184 C 278.92712,418.84169 274.30243,418.78614 273.58997,416.38184 L 273.65436,398.21327 C 274.09114,395.47132 279.07018,395.53273 279.54119,398.05146 z "
         style="opacity:1;fill:#000000;fill-rule:evenodd;stroke:none;stroke-width:1px;stroke-linecap:butt;stroke-linejoin:miter;stroke-opacity:1"
         id="path2277" />
      <path
         d="M 249.10491,340.25063 L 249.23619,358.70554 C 252.13485,367.61112 267.13236,367.54151 268.36744,358.21875 L 268.19462,354.29944 L 261.74142,354.32401 L 261.73953,358.58706 C 259.72219,360.77699 257.70484,361.01534 255.6875,358.59375 L 255.63968,349.49347 L 268.29215,349.6051 L 268.27558,339.7477 C 267.56869,330.36871 251.00495,326.88553 249.10491,340.25063 z M 256.23008,338.35293 C 256.55085,336.81687 259.70587,335.88036 261.00756,338.40874 L 260.94506,344.95787 L 256.21352,345.0695 L 256.23008,338.35293 z "
         style="opacity:1;fill:#000000;fill-rule:evenodd;stroke:none;stroke-width:1px;stroke-linecap:butt;stroke-linejoin:miter;stroke-opacity:1"
         id="path2284" />
    </g>
    <path
       d="M 47.994734,405.36604 L 30.737053,405.36604 L 22.261387,371.46337 L 12.356091,405.36604 L -4.5952405,405.36604 L -15.725934,351.44855 L -2.1444453,351.44855 L 5.4121716,385.35121 L 15.113236,351.44855 L 30.941286,351.44855 L 39.519067,385.45333 L 46.66722,351.44855 L 59.227544,351.44855 L 47.994734,405.36604 z "
       style="opacity:1;fill:#000000;fill-rule:evenodd;stroke-width:1px;stroke-linecap:butt;stroke-linejoin:miter;stroke-opacity:1"
       id="path2323" />
  </g>
</svg>
