<?xml version="1.0" encoding="UTF-8" standalone="no"?>
<!-- Created with Inkscape (http://www.inkscape.org/) -->
<svg xmlns:rdf="http://www.w3.org/1999/02/22-rdf-syntax-ns#" xmlns="http://www.w3.org/2000/svg" version="1.1" xmlns:cc="http://creativecommons.org/ns#" xmlns:dc="http://purl.org/dc/elements/1.1/" viewBox="0 0 604.1 107.4">
 <metadata>
  <rdf:RDF>
   <cc:Work rdf:about="">
    <dc:format>image/svg+xml</dc:format>
    <dc:type rdf:resource="http://purl.org/dc/dcmitype/StillImage"/>
    <dc:title/>
   </cc:Work>
  </rdf:RDF>
 </metadata>
 <g fill-rule="nonzero" transform="translate(200.12984,308.67738)" fill="#de1608">
  <path d="m-192-303.1s-4.133,11.48-4.133,11.48h9.645s-8.497,22.96-8.497,22.96h11.94s9.185-22.96,9.185-22.96h6.429s3.674-11.02,3.674-11.02-28.24-0.4602-28.24-0.4602z"/>
  <path d="m-161-302.2h11.71s-4.822,12.86-4.822,12.86h5.511s4.822-12.86,4.822-12.86h13.09s-13.78,33.98-13.78,33.98h-12.86s5.511-12.4,5.511-12.4h-5.97s-5.052,11.71-5.052,11.71h-11.48s13.32-33.3,13.32-33.3z"/>
  <path d="m-125.6-301.7s-13.09,34.67-13.09,34.67h25.95s2.755-8.956,2.755-8.956h-12.86s-0.6885-4.363,2.067-4.363h10.79s3.215-8.267,3.215-8.267h-10.56s-1.148-4.822,1.837-4.822h10.79s2.985-8.726,2.985-8.726-23.88,0.459-23.88,0.459z"/>
  <path d="m-76.03-207.8c-14.93,2.756-44.55-1.608-44.55-1.608s9.874-29.16,9.874-29.16,31.12,7.923,32.84-4.822c1.379-9.414-22.39-7.233-18.6-28.02,9.415-39.27,71.64-29.85,71.64-29.85s-8.956,26.87-8.956,26.87h-16.76l-7.808,4.594c-2.412,7.463,18.6,8.495,13.09,28.01-5.51,14.01-10.1,31.23-30.77,33.99z"/>
  <path d="m-17.48-300.1s-34.44,88.41-34.44,88.41h34.21s13.78-36.51,13.78-36.51,12.63-0.6891,12.63-0.6891-15.84,43.63-15.84,43.63h34.9s32.84-88.41,33.76-96.9c0,0-33.76,0.918-33.76,0.918s-9.414,28.47-9.414,28.47h-13.78s8.036-26.87,8.036-26.87-30.08-0.459-30.08-0.459z"/>
  <path d="m69.78-301.2s-5.511,17.91-5.511,17.91,31.23-2.067,31.23-2.067,4.134-15.84,4.134-15.84h-29.85z"/>
  <path d="m62.2-276.9s31.46-2.296,31.46-2.296-18.83,65.21-18.83,65.21h-34.21s21.58-62.92,21.58-62.92z"/>
  <path d="m198.9-301.2s-5.511,17.91-5.511,17.91,31.23-2.067,31.23-2.067,4.133-15.84,4.133-15.84h-29.85z"/>
  <path d="m191.3-276.9s31.46-2.296,31.46-2.296-18.83,65.21-18.83,65.21h-34.21s21.58-62.92,21.58-62.92z"/>
  <path d="m109.3-302.6h28.94s7.346,35.36,9.872,35.36c2.527,0,12.63-32.38,12.63-32.38s27.56-0.459,27.56-0.459-28.24,85.88-28.24,85.88h-33.3s2.065-35.36,0.2295-35.36c-1.837,0-15.84,41.56-15.84,41.56h-29.62s27.79-94.61,27.79-94.61z"/>
  <path d="m242.3-304.2h34.2s2.71,31.71,5.278,31.71c2.57,0,8.04-30.98,8.04-30.98s32.84-1.171,32.84-1.171-24.11,90.37-24.11,90.37h-33.07s-3.322-37.98-5.189-39.85c-3.151-3.151-13.18,46.16-13.18,46.16h-33.07s28.26-96.24,28.26-96.24z"/>
  <path d="m392.6-274.4s7.347-24.8,7.347-24.8-35.36-8.267-62,0c-12.23,5.496-17.45,21.12-17.45,21.12s-23.42,55.57,10.1,63.84c33.53,8.267,47.76,3.215,47.76,3.215s18.83-54.19,18.83-54.19-33.07-2.756-33.07-2.756-8.267,22.04-8.267,22.04,3.214-1.252,3.214,4.593c0,2.922-2.296,4.134-2.296,4.134s-19.27,3.674-12.4-13.78c9.987-21.7,6.887-30.31,48.22-23.42z"/>
 </g>
</svg>
