<?xml version="1.0" encoding="UTF-8" standalone="no"?>
<svg xmlns:rdf="http://www.w3.org/1999/02/22-rdf-syntax-ns#" xmlns="http://www.w3.org/2000/svg" viewBox="0 0 623.92643 353.49981" height="100%" width="100%" version="1.1" xmlns:cc="http://creativecommons.org/ns#" xmlns:xlink="http://www.w3.org/1999/xlink" xmlns:dc="http://purl.org/dc/elements/1.1/">
 <defs>
  <filter id="t" height="1.45549" width="1.3453" color-interpolation-filters="sRGB" y="-.227746" x="-.172649">
   <feGaussianBlur stdDeviation="57.947918"/>
  </filter>
  <linearGradient id="a">
   <stop stop-color="#9594a5" offset="0"/>
   <stop stop-color="#9594a5" stop-opacity="0" offset="1"/>
  </linearGradient>
  <linearGradient id="b">
   <stop stop-color="#30e9ff" offset="0"/>
   <stop stop-color="#1224ff" stop-opacity="0" offset="1"/>
  </linearGradient>
  <radialGradient id="c" xlink:href="#b" gradientUnits="userSpaceOnUse" cy="493.248" cx="400.143" gradientTransform="matrix(1.95046 .0218754 -.0129896 1.1582 -421.772 -113.926)" r="208.094"/>
  <filter id="s" height="1.63295" width="1.10988" color-interpolation-filters="sRGB" y="-.316474" x="-.0549385">
   <feGaussianBlur stdDeviation="21.938659"/>
  </filter>
  <radialGradient id="r" xlink:href="#a" gradientUnits="userSpaceOnUse" cy="579.505" cx="28.5714" gradientTransform="matrix(1.64336 0 0 1.2539 -14.5852 -470.187)" r="2.96061"/>
  <radialGradient id="q" xlink:href="#a" gradientUnits="userSpaceOnUse" cy="682.362" cx="52.8571" gradientTransform="matrix(1.64336 0 0 1.52201 -34.773 -701.285)" r="2.96061"/>
  <radialGradient id="p" xlink:href="#a" gradientUnits="userSpaceOnUse" cy="665.219" cx="638.571" gradientTransform="matrix(1.22773 0 0 1.2539 -255.015 -511.897)" r="2.96061"/>
  <radialGradient id="o" xlink:href="#a" gradientUnits="userSpaceOnUse" cy="556.648" cx="597.143" gradientTransform="matrix(1.22773 0 0 1.2539 -237.796 -461.075)" r="2.96061"/>
  <radialGradient id="n" xlink:href="#a" gradientUnits="userSpaceOnUse" cy="542.362" cx="671.429" gradientTransform="matrix(1.50482 0 0 1.2539 -453.895 -454.388)" r="2.96061"/>
  <radialGradient id="m" xlink:href="#a" gradientUnits="userSpaceOnUse" cy="483.791" cx="711.429" gradientTransform="matrix(1.50482 0 0 1.2539 -758.609 -426.972)" r="2.96061"/>
  <radialGradient id="l" xlink:href="#a" gradientUnits="userSpaceOnUse" cy="362.362" cx="694.286" gradientTransform="matrix(1.64336 0 0 1.38796 -565.507 -419.106)" r="2.96061"/>
  <radialGradient id="k" xlink:href="#a" gradientUnits="userSpaceOnUse" cy="315.219" cx="624.286" gradientTransform="matrix(1.64336 0 0 1.2539 -507.319 -348.064)" r="2.96061"/>
  <radialGradient id="j" xlink:href="#a" gradientUnits="userSpaceOnUse" cy="342.362" cx="42.8571" gradientTransform="matrix(1.50482 0 0 1.2539 -18.4719 -357.595)" r="2.96061"/>
  <radialGradient id="i" xlink:href="#a" gradientUnits="userSpaceOnUse" cy="265.219" cx="217.143" gradientTransform="matrix(1.50482 0 0 1.2539 -139.203 -321.485)" r="2.96061"/>
  <radialGradient id="h" xlink:href="#a" gradientUnits="userSpaceOnUse" cy="309.505" cx="117.143" gradientTransform="matrix(1.18591 0 0 .936209 -32.9827 -243.491)" r="4.38918"/>
  <radialGradient id="g" xlink:href="#a" gradientUnits="userSpaceOnUse" cy="449.505" cx="184.286" gradientTransform="matrix(1.36628 0 0 1.11984 -91.3207 -347.885)" r="2.96061"/>
  <radialGradient id="f" xlink:href="#a" gradientUnits="userSpaceOnUse" cy="548.007" cx="122.469" gradientTransform="matrix(1.18591 0 0 1.02663 -36.6144 -330.901)" r="4.38918"/>
  <radialGradient id="e" xlink:href="#b" gradientUnits="userSpaceOnUse" cy="493.248" cx="400.143" gradientTransform="matrix(1.46082 .0144031 -.00972873 .762575 -299.424 -182.162)" r="208.094"/>
  <radialGradient id="d" gradientUnits="userSpaceOnUse" cy="493.248" cx="400.143" gradientTransform="matrix(2.95349 -.0171538 -.00190474 .117605 -824.807 550.187)" r="208.094">
   <stop stop-color="#30e9ff" offset="0"/>
   <stop stop-color="#1224ff" stop-opacity="0" offset="1"/>
  </radialGradient>
 </defs>
 <path d="m0 176.75v-176.75h311.963 311.963v176.75 176.75h-311.963-311.963v-176.75z"/>
 <g>
  <g fill-rule="evenodd">
   <path opacity=".694690" d="m-3.38873 323.371c27.4675 10.9407 182.574 132.865 285.539 133.405 4.24311-6.10154 162.227-129.213 180.684-130.344 25.9472-1.59112 58.465-2.91314 92.6171-19.6641 14.8399-7.27871 36.9193-11.5062 2.29364-34.427 9.307-86.916 96.286-197.455-108.399-204.538-22.077 10.423-386.418-56.5739-425.376 39.539-49.5906 206.511-53.4567 127.73-27.3587 216.029z" fill="url(#e)"/>
   <path d="m-26.5116 653.876c36.6741 16.6167 243.769 201.795 381.247 202.615 5.66532-9.26698 216.603-196.248 241.246-197.967 34.6442-2.41657 78.0614-4.42445 123.661-29.8658 19.814-11.0549 49.294-17.4756 3.06243-52.2875 12.425-132.008 128.558-299.893-144.733-310.651-29.477 15.83-515.938-85.924-567.954 60.052-66.2121 313.647-71.374 193.995-36.5286 328.104z" transform="matrix(.584604 0 0 .769229 104.428 -227.271)" filter="url(#t)" fill="url(#c)"/>
   <path d="m-94.6074 652.489c43.6333 4.52719 290.026 54.9787 453.591 55.2021 6.74035-2.5248 257.705-53.4674 287.025-53.9357 41.2182-0.65839 92.8741-1.20543 147.126-8.13688 23.5738-3.01189 58.6479-4.76119 3.64354-14.2457 14.7827-35.9653 152.953-81.7053-172.198-84.6362-35.0697 4.31286-613.841-23.41-675.728 16.3609-78.7762 85.4528-84.9177 52.8539-43.46 89.3915z" transform="matrix(.969335 0 0 2.62745 -40.7134 -1287.41)" filter="url(#s)" fill="url(#d)"/>
  </g>
  <path d="m109.812 236.073c0.92646 0.21329 1.24712 0.18355 1.75318-0.16271 0.74018-0.50642 1.47954-2.30146 1.17253-2.84675-0.12601-0.22385 0.0581-1.14856 0.43583-2.18873l0.65404-1.80111-0.84156-0.69909c-0.74174-0.61612-0.92795-0.66333-1.5698-0.39808-0.64022 0.2646-0.78888 0.22801-1.23014-0.30262-0.63707-0.76608-1.85227-0.57863-2.10209 0.32422-0.0915 0.33079-0.4886 0.73455-0.88239 0.8973-0.39378 0.16274-0.71596 0.47204-0.71596 0.68737 0 0.2153-0.24492 0.39147-0.54429 0.39147-0.29934 0-0.95478 0.39475-1.45649 0.87725-0.69975 0.67292-0.93917 1.16156-1.02787 2.09778-0.10889 1.14929-0.0537 1.267 0.9466 2.01738 1.21704 0.913 3.11966 1.45492 3.81655 1.08702 0.28879-0.15242 0.87698-0.14532 1.59186 0.0193z" fill="url(#f)"/>
  <path d="m161.389 158.705c0.71995 0.15692 0.96914 0.13504 1.36241-0.1197 0.57521-0.37262 1.14979-1.69336 0.91121-2.09455-0.0979-0.1647 0.0452-0.84508 0.33869-1.61038l0.50825-1.32518-0.65399-0.51438c-0.57641-0.45334-0.72111-0.48807-1.21992-0.29291-0.49752 0.19469-0.61304 0.16779-0.95594-0.22266-0.49509-0.56364-1.43944-0.42572-1.63358 0.23858-0.0711 0.24338-0.37972 0.54044-0.68571 0.66017-0.30603 0.11975-0.55639 0.34733-0.55639 0.50574 0 0.15842-0.19035 0.28804-0.42298 0.28804-0.23264 0-0.74199 0.29044-1.13187 0.64545-0.54379 0.4951-0.72984 0.85464-0.79878 1.54347-0.0846 0.84561-0.0417 0.93223 0.73563 1.48432 0.94576 0.67175 2.42433 1.07048 2.96591 0.79977 0.22441-0.11213 0.6815-0.10691 1.23706 0.0142z" fill="url(#g)"/>
  <path d="m107.127 50.2565c0.92646 0.19452 1.24713 0.16739 1.75319-0.14836 0.74017-0.46182 1.47954-2.09875 1.17253-2.59602-0.12601-0.20413 0.0581-1.0474 0.43583-1.99594l0.65403-1.64248-0.84156-0.63751c-0.74173-0.56186-0.92794-0.60491-1.56979-0.36302-0.64022 0.24129-0.78888 0.20793-1.23014-0.27597-0.63707-0.6986-1.85227-0.52766-2.10209 0.29567-0.0915 0.30165-0.4886 0.66985-0.88238 0.81827-0.39378 0.1484-0.71597 0.43046-0.71597 0.62683 0 0.19633-0.24493 0.35698-0.54429 0.35698-0.29935 0-0.95478 0.35998-1.45649 0.79999-0.69976 0.61365-0.93917 1.05925-1.02787 1.913-0.1089 1.04807-0.0537 1.15541 0.9466 1.83969 1.21703 0.83259 3.11966 1.32677 3.81655 0.99128 0.2888-0.13899 0.87697-0.13253 1.59185 0.0176z" fill="url(#h)"/>
  <path d="m188.576 14.6746c0.79297 0.17572 1.06743 0.15122 1.50058-0.13403 0.63353-0.41722 1.26636-1.89606 1.00359-2.34529-0.10786-0.1844 0.0497-0.94623 0.37303-1.80316l0.55979-1.48382-0.72029-0.57595c-0.63487-0.5076-0.79424-0.54649-1.34362-0.32797-0.54799 0.21799-0.67522 0.18787-1.0529-0.24931-0.54529-0.63112-1.58539-0.47669-1.79922 0.26713-0.0784 0.27252-0.41821 0.60514-0.75524 0.73921-0.33706 0.13408-0.61281 0.38889-0.61281 0.56628s-0.20964 0.32252-0.46587 0.32252c-0.25622 0-0.81721 0.32521-1.24663 0.72272-0.59893 0.55437-0.80386 0.95694-0.87978 1.72823-0.0932 0.94684-0.0459 1.04383 0.81021 1.66201 1.04168 0.75217 2.67017 1.19864 3.26666 0.89551 0.24719-0.12555 0.75061-0.11971 1.3625 0.0159z" fill="url(#i)"/>
  <path d="m47.0386 75.2939c0.79297 0.175722 1.06743 0.15122 1.50058-0.134027 0.63353-0.417223 1.26637-1.89606 1.00359-2.34529-0.10786-0.184404 0.0497-0.946234 0.37304-1.80315l0.55979-1.48383-0.7203-0.575948c-0.63487-0.507606-0.79424-0.546487-1.34362-0.327971-0.54799 0.217998-0.67522 0.18787-1.0529-0.249312-0.54528-0.631119-1.58539-0.476685-1.79922 0.267134-0.0783 0.272517-0.41821 0.605141-0.75524 0.739207-0.33705 0.134082-0.61281 0.388902-0.61281 0.566282 0 0.177387-0.20964 0.322518-0.46586 0.322518-0.25623 0-0.81722 0.325213-1.24664 0.72272-0.59893 0.554369-0.80386 0.956945-0.87978 1.72824-0.0932 0.946839-0.0459 1.04382 0.81021 1.662 1.04168 0.752172 2.67017 1.19864 3.26667 0.895519 0.24718-0.125556 0.7506-0.119702 1.36249 0.01591z" fill="url(#j)"/>
  <path d="m519.722 50.7897c0.86597 0.17572 1.1657 0.15122 1.63872-0.13403 0.69186-0.41722 1.38296-1.89606 1.096-2.34529-0.1178-0.1844 0.0543-0.94623 0.40737-1.80316l0.61134-1.48382-0.78662-0.57595c-0.69332-0.50761-0.86737-0.54649-1.46732-0.32797-0.59844 0.218-0.73738 0.18787-1.14983-0.24931-0.59549-0.63112-1.73136-0.47669-1.96488 0.26713-0.0856 0.27252-0.45671 0.60514-0.82477 0.73921-0.36808 0.13408-0.66923 0.3889-0.66923 0.56628 0 0.17739-0.22894 0.32252-0.50875 0.32252s-0.89246 0.32521-1.36141 0.72272c-0.65408 0.55437-0.87787 0.95694-0.96078 1.72823-0.10178 0.94684-0.0502 1.04383 0.88481 1.66201 1.13758 0.75217 2.91599 1.19864 3.56741 0.89551 0.26994-0.12555 0.81971-0.1197 1.48794 0.0159z" fill="url(#k)"/>
  <path d="m576.569 87.8229c0.86597 0.19451 1.1657 0.167384 1.63873-0.14836 0.69186-0.461825 1.38296-2.09877 1.096-2.59603-0.1178-0.204113 0.0543-1.0474 0.40737-1.99594l0.61134-1.64246-0.78662-0.637524c-0.69332-0.561874-0.86737-0.604912-1.46733-0.363034-0.59843 0.241305-0.73738 0.207964-1.14983-0.275966-0.59549-0.698588-1.73135-0.527652-1.96487 0.29569-0.0856 0.301655-0.45671 0.669836-0.82477 0.818243-0.36809 0.148415-0.66923 0.430479-0.66923 0.626828s-0.22894 0.356999-0.50875 0.356999c-0.27982 0-0.89247 0.359977-1.36141 0.799981-0.65408 0.613642-0.87787 1.05926-0.96078 1.91301-0.10178 1.04807-0.0501 1.15542 0.8848 1.8397 1.13759 0.832583 2.916 1.32678 3.56742 0.991261 0.26994-0.138985 0.8197-0.13251 1.48793 0.01761z" fill="url(#l)"/>
  <path d="m312.981 183.254c0.79297 0.17572 1.06743 0.15122 1.50058-0.13403 0.63353-0.41722 1.26637-1.89606 1.00359-2.34528-0.10786-0.18441 0.0497-0.94624 0.37303-1.80317l0.55979-1.48382-0.72029-0.57594c-0.63487-0.50761-0.79424-0.54649-1.34362-0.32797-0.54798 0.21799-0.67522 0.18787-1.0529-0.24932-0.54529-0.63112-1.58539-0.47668-1.79922 0.26714-0.0783 0.27251-0.41821 0.60514-0.75524 0.7392-0.33705 0.13409-0.61281 0.38891-0.61281 0.56629s-0.20964 0.32251-0.46586 0.32251c-0.25623 0-0.81722 0.32522-1.24664 0.72272-0.59893 0.55437-0.80386 0.95695-0.87978 1.72824-0.0932 0.94684-0.0459 1.04382 0.81021 1.662 1.04168 0.75217 2.67017 1.19864 3.26666 0.89552 0.24719-0.12556 0.75061-0.1197 1.3625 0.0159z" fill="url(#m)"/>
  <path d="m557.503 229.28c0.79296 0.17572 1.06742 0.15122 1.50057-0.13403 0.63353-0.41722 1.26637-1.89606 1.0036-2.34529-0.10786-0.1844 0.0497-0.94623 0.37303-1.80316l0.55979-1.48382-0.72029-0.57594c-0.63487-0.50761-0.79425-0.54649-1.34363-0.32798-0.54798 0.218-0.67521 0.18787-1.05289-0.24931-0.54529-0.63112-1.58539-0.47668-1.79923 0.26714-0.0783 0.27251-0.4182 0.60514-0.75523 0.7392-0.33706 0.13408-0.61282 0.38891-0.61282 0.56628 0 0.17739-0.20963 0.32252-0.46586 0.32252-0.25622 0-0.81722 0.32522-1.24663 0.72272-0.59894 0.55437-0.80386 0.95695-0.87978 1.72824-0.0932 0.94684-0.0459 1.04382 0.81021 1.662 1.04168 0.75217 2.67016 1.19864 3.26666 0.89552 0.24719-0.12556 0.75061-0.1197 1.3625 0.0159z" fill="url(#n)"/>
  <path d="m496.167 240.505c0.64695 0.17572 0.87088 0.15122 1.22427-0.13403 0.51688-0.41722 1.03319-1.89606 0.8188-2.34529-0.088-0.1844 0.0406-0.94623 0.30434-1.80316l0.45672-1.48382-0.58767-0.57595c-0.51796-0.5076-0.648-0.54649-1.09621-0.32797-0.44708 0.218-0.55089 0.18787-0.85903-0.24931-0.44488-0.63112-1.29346-0.47669-1.46792 0.26713-0.0639 0.27252-0.3412 0.60514-0.61618 0.73921-0.27498 0.13408-0.49997 0.3889-0.49997 0.56628 0 0.17739-0.17103 0.32252-0.38008 0.32252s-0.66674 0.32521-1.01709 0.72272c-0.48865 0.55437-0.65585 0.95694-0.71779 1.72824-0.076 0.94683-0.0375 1.04382 0.66103 1.662 0.84987 0.75217 2.17851 1.19864 2.66517 0.89551 0.20167-0.12555 0.61239-0.1197 1.11161 0.0159z" fill="url(#o)"/>
  <path d="m529.812 325.821c0.64695 0.17573 0.87088 0.15122 1.22427-0.13402 0.51687-0.41723 1.03318-1.89606 0.8188-2.34529-0.088-0.18441 0.0406-0.94624 0.30434-1.80316l0.45672-1.48382-0.58767-0.57595c-0.51797-0.50761-0.648-0.54649-1.09622-0.32797-0.44708 0.218-0.55089 0.18787-0.85902-0.24931-0.44488-0.63112-1.29346-0.47669-1.46793 0.26713-0.0639 0.27252-0.34119 0.60514-0.61617 0.73921-0.27499 0.13408-0.49997 0.3889-0.49997 0.56628 0 0.17739-0.17104 0.32252-0.38008 0.32252-0.20905 0-0.66674 0.32521-1.01709 0.72272-0.48865 0.55437-0.65585 0.95694-0.71779 1.72823-0.076 0.94684-0.0375 1.04383 0.66103 1.662 0.84987 0.75217 2.1785 1.19865 2.66516 0.89552 0.20167-0.12555 0.61239-0.1197 1.11162 0.0159z" fill="url(#p)"/>
  <path d="m53.2025 341.65c0.86597 0.2133 1.16571 0.18355 1.63873-0.16268 0.69186-0.50644 1.38296-2.3015 1.09599-2.84677-0.11779-0.22384 0.0543-1.14857 0.40738-2.18872l0.61133-1.8011-0.78661-0.69911c-0.69332-0.61614-0.86737-0.66334-1.46733-0.3981-0.59843 0.26461-0.73738 0.22805-1.14983-0.30262-0.59549-0.76606-1.73135-0.57861-1.96487 0.32425-0.0856 0.33079-0.45671 0.73454-0.82477 0.89727-0.36808 0.16275-0.66923 0.47206-0.66923 0.68737s-0.22894 0.39148-0.50875 0.39148c-0.27982 0-0.89247 0.39475-1.36142 0.87726-0.65407 0.6729-0.87786 1.16156-0.96077 2.09778-0.10178 1.14929-0.0502 1.26701 0.8848 2.01738 1.13759 0.913 2.916 1.45493 3.56742 1.087 0.26994-0.15241 0.81971-0.1453 1.48793 0.0193z" fill="url(#q)"/>
  <path d="m33.48 260.054c0.86597 0.17572 1.16571 0.15121 1.63873-0.13403 0.69186-0.41722 1.38296-1.89607 1.096-2.34529-0.1178-0.1844 0.0543-0.94624 0.40737-1.80316l0.61133-1.48383-0.78661-0.57594c-0.69332-0.50761-0.86737-0.54649-1.46733-0.32797-0.59843 0.21799-0.73738 0.18787-1.14983-0.24932-0.59549-0.63111-1.73135-0.47668-1.96487 0.26714-0.0856 0.27251-0.45671 0.60514-0.82477 0.7392-0.36808 0.13409-0.66923 0.38891-0.66923 0.56629s-0.22894 0.32252-0.50875 0.32252c-0.27982 0-0.89246 0.32521-1.36141 0.72271-0.65408 0.55437-0.87787 0.95695-0.96078 1.72824-0.10178 0.94684-0.0502 1.04382 0.8848 1.66201 1.13759 0.75216 2.916 1.19863 3.56742 0.89552 0.26994-0.12556 0.81971-0.11971 1.48793 0.0159z" fill="url(#r)"/>
 </g>
 <g transform="translate(-2.51985)">
  <path d="m124.146 268.206c-1.1125 0.0559-2.63928-0.36418-3.34375 0.71875-0.31055 0.48149-0.2688 1.26549 0.39075 1.3892 0.66147 0.21601 0.88682 0.94958 1.29675 1.45455-0.70812 1.35911-1.1458 2.88403-1 4.43125 0.16346 0.62691-0.24834 1.0717-0.59375 1.5375-0.33888 0.52903-0.41194 1.40265-1.15567 1.48806-0.78504 0.55585-1.63639-0.46007-2.44511 0.0367-0.74662 0.38031-1.51138-0.20738-2.29092-0.18486-1.74791-0.24935-3.52696-0.13404-5.26782 0.0108-0.68867-0.0184-0.29481-0.89749-0.20895-1.31436 0.16181-0.62451 0.83399-1.33174 0.17929-1.86297-0.6181-0.43517 0.27526-0.93751 0.40793-1.42342 0.23178-0.98647 0.36408-2.074 0.65625-3 0.59107-0.66458 1.28932-1.16488 2.0625-1.59375 0.18795-0.44521 0.83322-1.12194 0.1875-1.46875-0.99908-0.49672-2.1428-0.49867-3.20669-0.20637-0.63313 0.0709-1.30398 0.32715-1.91831 0.30012-0.80233-0.20427-1.6831-0.49816-2.5-0.15625-0.48496 0.14581-0.91631-0.18646-1.34376-0.1875-0.33422 0.24482-0.27772 0.85824-0.4375 1.25 0.37451 0.70696 1.19559 1.00021 1.65785 1.62659 0.27735 0.54391-0.10187 1.31253 0.21716 1.87341-0.42784 1.88756-0.85707 3.80084-0.80626 5.74979 0.13772 0.68463-0.7315 1.00518-0.61549 1.71284-0.22707 1.68304-0.60795 3.36383-0.74033 5.04825 0.16834 0.68737 0.13294 1.35966-0.15819 2.00895-0.346 1.16636-0.93343 2.24958-1.17974 3.44892-0.82899 0.58979-1.855 0.98329-2.59375 1.65625-0.126743 0.36045-0.456091 0.92909-0.17 1.2475 0.368699 0.1672 0.776393 0.7126 1.32 0.53375 1.00322 0.0838 1.99557-0.12948 2.98595-0.16269 1.91619 0.38479 3.83491-0.18138 5.70781-0.55606 0.41675-0.12106 0.93958-0.445 0.6875-0.9375-0.64771-0.48981-1.4285-0.81126-1.98847-1.27567-0.65631-0.25992-0.23901-1.07942-0.35528-1.61808-0.15902-1.08177 0.50891-2.03986 0.53125-3.10625-0.62574-0.30964-0.0109-0.88212 0.15625-1.28125 0.28306-0.84654 0.39608-1.829 0.78125-2.59375 0.46528-0.52306 1.25588-0.74477 1.9375-0.5 1.61723 0.12013 3.24848-0.18394 4.875-0.0937 1.12005 0.0224 2.27675-0.0437 3.375 0.0312 0.52389 0.40002 1.03099 0.74394 0.60088 1.42636-0.26485 1.46148 0.13058 2.99721-0.35872 4.43311-0.17222 0.7826-0.37791 1.5853-0.42966 2.35928-0.3621 0.50604-0.95282 0.748-1.5 1.0625-0.23502 0.24071-0.68161 0.72413-0.78125 1.125 0.29417 0.39563 0.48086 1.04213 0.875 1.28125 0.47154-0.0981 0.87616-0.41397 1.40625-0.28125 1.16761 0.0345 2.32912 0.28567 3.48559 0.31 0.73623-0.005 1.55976-0.38584 2.23316 0.0337 0.55341-0.26597 1.55765-0.36882 1.34375-1.21875-0.15327-0.66396-0.99468-0.92146-1.43689-1.40576-0.67983-0.35165-0.33723-1.28047-0.34998-1.91029 0.13845-2.56997 0.51364-5.11567 1.09937-7.62145-0.0448-0.67588-0.58008-1.40052-0.0442-2.00541 0.7645-1.13725 0.73825-2.53116 0.91917-3.83834-0.14077-0.52491-0.2727-0.90526-0.11135-1.43494 0.33144-0.84022 0.72188-1.67998 0.98635-2.53381-0.43587-0.43819-0.2295-0.92581 0.0625-1.375 0.69483-0.2041 1.35355-0.46529 1.80917-1.05693 0.34544-0.32966 1.06151-0.79436 0.53458-1.28682-0.70696-0.2885-1.355-0.82573-2.12578-0.54414-1.1039 0.15013-2.20781 0.30026-3.31172 0.45039zm19.5312-0.3125c-1.11782 0.11616-2.2313 0.30239-3.35272 0.31867-0.87585 0.12475-1.75178 0.50403-2.63022 0.19169-1.27085-0.16926-2.59453-0.59493-3.86081-0.29161-0.26942 0.2942-0.45197 0.78713-0.625 1.15625 0.47589 0.65143 1.18075 1.40084 1.87804 1.87069 0.68363 0.24592 0.35552 0.96277 0.38143 1.5029-0.10413 0.90638 0.0106 1.87151-0.22392 2.7428-0.42718 0.93562-0.97059 1.85471-1.28555 2.82111-0.0268 0.34809 0.41587 0.99369-0.125 1.09375-0.23479 0.52787-0.25235 1.11996 0.0937 1.59375-0.33786 1.03763-0.99223 2.01159-0.84375 3.15625-0.26342 1.61674-0.80064 3.19892-1.16809 4.80254-0.19372 0.8934-0.48534 1.89775-1.40166 2.25806-0.59105 0.43118-1.41518 0.61441-1.899 1.09565-0.21646 0.43015-0.67709 1.18444-0.005 1.38955 0.56763 0.28072 1.08994 0.69986 1.7611 0.54795 1.28574 0.00016 2.57704 0.0572 3.84365-0.18296 1.25391-0.0102 2.49396 0.0813 3.72904 0.30677 0.94431-0.009 1.89521-0.20347 2.85231-0.12381h4.69375c0.63982-0.51749 1.09711-1.30147 1.53125-2-0.22891-0.60436 0.14907-1.2911 0.0937-1.90625 0.80495-0.33934 0.40767-1.33041 0.5-2.025 0.0112-0.46957-0.46038-0.85814-0.875-0.975-0.59251 0.0881-1.14351 0.27708-1.45982 0.8246-0.5268 0.52961-0.99336 1.11074-1.19643 1.83165-0.53082 0.41721-1.06514 0.82999-1.59375 1.25-0.25184-0.15187-1.04832 0.2982-1.53494 0.27249-0.79868 0.14162-1.59758 0.49179-2.40311 0.47548-0.62596-0.20375-1.15579-0.53007-1.3432-1.12297-0.0501-1.27401 0.63854-2.52288 0.53125-3.83125 0.17979-0.73027-0.36669-0.60276 0-1.1375 0.18963-0.31655 0.49935-0.7017 0.64749-1.28494 0.19364-0.75786 0.32492-1.5787 0.10251-2.34006 0.0515-0.69697 0.88159-0.089 1.34375-0.1875 0.54641 0.67554 1.38174 0.8418 2.15625 1.125 0.003 0.59153 0.35038 1.00427 0.87718 1.2346 0.48397 0.54137 1.09539 0.11649 1.54981-0.22335 0.69105-0.32338 0.41777-1.25564 0.6311-1.86349 0.27581-0.91396-0.10766-1.92486 0.44839-2.75642 0.31384-0.53938 0.4508-1.09876 0.36852-1.72259 0.0876-0.47317-0.0722-0.97723-0.62465-0.99284-0.65885-0.38824-1.1232 0.45511-1.67448 0.69464-0.57962 0.35133-0.7644 1.15933-1.52008 1.19419-0.79448 0.16833-1.59157 0.82407-2.39954 0.37276 0.0865-0.48778-0.18405-1.15688 0.15625-1.53125 0.43191-0.18413-0.0101-0.88558 0.34375-1.21875-0.41134-0.39775 0.0929-0.75289-0.0941-1.15737 0.0142-0.53007 0.4808-1.01513 0.58966-1.55931 0.36938-0.84911 0.44638-1.79222 0.22321-2.68957 0.40702-0.77288 1.37512-0.67768 2.11348-0.559 0.59895-0.18755 0.77472 0.51944 1.26677 0.54189 0.75883 0.0251 1.49337-0.53127 2.24475-0.13914 0.88147 0.29759 1.70183 0.83569 2.40625 1.40625-0.025 0.77476 0.60238 1.27706 1.15625 1.6875 0.49343 0.19306 1.13842 0.066 1.26925-0.51304 0.64462-0.83944 0.39882-1.94665 0.5697-2.92936 0.19157-0.59799-0.19296-1.0778-0.6202-1.46385-0.83472-0.29682-1.68361-0.66735-2.56619-0.72751-0.82357 0.26205-1.72266 0.24616-2.49631-0.14749-0.84281-0.0317-1.68943-0.24065-2.5312-0.15625zm-61.75 0.46875c-0.863701 0.30784-1.77336 0.51798-2.43514 1.20095-0.489693 0.40866-1.11839 0.7221-1.43986 1.3303-0.10521 0.63229-0.392285 1.2748-0.375 1.90625 0.369538 0.84142 1.13218 1.46086 1.625 2.21875 0.59429 0.0842 1.2278 0.48463 1.79875 0.3775 0.32573-0.31794 1.08852-0.66066 1.01207-1.3041 0.118561-0.73691 0.198523-1.5008 0.439177-2.1984 0.532433-0.48147 1.22273-0.78824 1.93969-0.75303 0.831596 0.26668 1.73061 0.0652 2.59156 0.12803 0.159654 0.99121 0.107725 1.98322-0.139367 2.95276-0.212739 1.39527-0.367966 2.81511-0.798133 4.14724 0.10311 0.33491 0.207109 0.61712-0.03001 1.37426-0.258706 0.96189-0.148311 2.01418-0.754162 2.86103-0.705592 1.31192-0.710707 2.86107-1.08796 4.2834-0.368488 1.41399-0.338549 3.09983-1.50286 4.13131-0.371219 0.62906-1.13472 0.90786-1.59375 1.375-0.204123 0.40302-0.722867 1.03685-0.108371 1.34239 0.422423 0.32294 0.733967 0.73869 1.32087 0.59511 1.20705-0.063 2.47246 0.2124 3.6-0.34375 0.497941 0.33801 0.962381-0.20072 1.49486 0.0403 1.20016 0.15552 2.4059 0.33696 3.56764 0.6472 0.586746-0.37041 1.51346-0.44528 1.8125-1.125-0.03858-0.63913-0.827733-0.92709-1.1875-1.40625-0.700375-0.35481-1.63989-0.73116-2.26048-1.31844-0.55441-0.23592-0.423111-0.96383-0.236093-1.42143 0.413036-0.57711 0.0682-1.32343 0.402824-1.94763 0.484937-1.09796 0.522154-2.31829 0.5-3.5 0.629713-0.78051 0.482985-1.88405 0.6875-2.81875-0.04099-0.54183-0.04611-1.05507 0.303222-1.46631 0.381846-1.79056 0.821474-3.5756 1.2624-5.34614 0.02168-0.94418 0.06287-2.03434 0.572803-2.80888 0.455313-0.35096 1.15356-0.0576 1.70532-0.15367 0.637564-0.19837 1.0181 0.5151 1.65 0.34375 1.00152 0.0965 2.093-0.24528 3.00625 0.28125 0.453537 0.13392 0.95295-0.27289 1.375-0.4375 0.4041-0.39135 0.0311-1.09131 0.29993-1.58095 0.16334-0.47846 0.15429-1.23926-0.52426-1.2257-0.772957-0.13415-1.55673-0.76019-2.33817-0.3496-0.01749 0.33369-1.03465-0.21039-1.43862-0.28162-1.08075-0.14203-2.20807 0.30006-3.2965 0.00099-0.938428-0.23976-1.85711 0.12423-2.7703 0.23645-0.849233-0.10516-1.72314-0.31513-2.55709-0.0183-1.38293-0.10665-2.7588-0.46028-4.14266-0.16933-0.650363 0.0669-1.30073 0.13372-1.95109 0.20058z" fill-rule="evenodd" fill="#fff"/>
  <g transform="translate(-1.25992 -13.8592)">
   <path d="m183.297 275c-1.29113 0.22821-2.58841 0.59939-3.90625 0.3125-0.88751 0.12071-1.77285 0.44184-2.65926 0.47476-1.6718-0.42025-3.43928-0.94531-5.14761-0.41169-0.6083-0.0429-0.81526 0.65474-1.13063 0.99943-0.13703 0.55142 0.61639 0.85852 0.86355 1.29973 0.55093 0.70298 1.26063 1.28212 1.88645 1.88777 0.18601 1.99219 0.2818 4.13075-0.7091 5.94247-0.3037 0.85919-0.84615 1.67098-1.00965 2.55753 0.34775 0.55986-0.0603 0.95773-0.18383 1.48167-0.19839 0.55323-0.1786 1.09741 0.10761 1.61602 0.21262 0.44769-0.32238 0.89899-0.44144 1.36679-0.67844 1.89192-0.78902 3.92833-1.28364 5.87305-0.37245 1.51651-0.59825 3.08786-1.115 4.55751-0.28661 1.13963-1.44831 1.56754-2.3962 2.07371-0.6654 0.25963-1.3033 0.52202-1.49715 1.25025-0.45113 0.64215 0.44139 0.96021 0.89685 1.17663 0.48046 0.33694 0.99827 0.47024 1.58155 0.38562 1.54289-0.009 3.09279 0.0739 4.61868-0.1838 1.26903 0.0798 2.54107 0.18321 3.80881 0.21095 0.6997 0.25895 1.41131 0.39099 2.14764 0.20617 2.55967-0.15989 5.12757-0.25917 7.69362-0.23332 0.4712 0.38599 1.05581-0.0904 1.60434 0.0108 0.43856-0.0518 0.99597 0.44166 1.27373-0.0863 0.55848-0.61207 1.14395-1.20873 1.28191-2.06068 0.38367-0.83694-0.0961-1.92254 0.3766-2.6873 0.79117-0.57621 0.46561-1.63384 0.62863-2.47153 0.21215-0.65362-0.5647-1.02603-1.07146-1.17374-0.64247 0.26006-1.41884 0.33146-1.74876 1.03187-0.57876 0.70339-1.20464 1.38766-1.37624 2.31188-0.73546 0.62689-1.66986 1.11924-2.10815 2.01199-0.25137 0.60642-1.06233 0.15429-1.5666 0.27502-1.63159 0.0154-3.27816-0.17268-4.88272 0.18995-0.59449 0.10459-1.34626 0.25533-1.70074-0.36017-0.40034-0.38018-0.78556-0.77194-0.77304-1.36679-0.26922-1.19132 0.27163-2.3778 0.56607-3.50619 0.1228-0.88199-0.1388-1.83601 0.15542-2.67151 0.50205-1.10727 0.94787-2.3185 0.90233-3.54189-0.11345-0.29217-0.61981-1.64882-0.0926-0.96791 0.10019-0.66232 0.98742-0.1809 1.45848-0.22468 2.28956 0.28001 4.59035 0.0548 6.88527-0.0253 0.34434 0.56447 0.65846 1.03267 1.21875 1.375 0.0543 0.56785 0.0755 1.21273 0.69981 1.42095 0.42571 0.34492 1.02595 0.86783 1.51254 0.31021 0.46463-0.38689 1.14816-0.56554 1.05601-1.28432 0.20835-1.37228 0.28706-2.77476 0.51842-4.13492 0.34831-0.93323 0.76325-1.85963 0.64238-2.88043 0.12779-0.58613-0.17719-0.98792-0.78796-1.02014-0.73138-0.33642-1.2623 0.48605-1.8769 0.75884-0.69285 0.34198-0.62765 1.38378-1.4278 1.57791-1.10003 0.62585-2.38649 0.47702-3.59275 0.34565-1.18269 0.0577-2.32979 0.48033-3.53125 0.34375-0.46443 0.0122-1.16569-0.0482-1.4625-0.28125 0.0653-0.64429-0.0915-1.12547-0.0309-1.56362 0.12321-0.46369 0.52888-0.6612 0.49963-1.21763 0.094-0.52255 0.20502-1.0441 0.0625-1.56875-0.15312-0.95433 0.38948-1.77394 0.70343-2.6397 0.58001-1.04712 0.24574-2.28578 0.17157-3.41655 0.13795-0.56574 0.54321-0.84553 1.11463-0.8513 0.7405-0.22017 1.48588 0.18149 2.22912 0.2263 0.44723 0.24112 0.82844 0.75517 1.36206 0.45841 0.83345-0.17933 1.70458-0.4429 2.51741-0.0194 1.02843 0.42273 2.03819 0.9849 2.90178 1.65476 0.0473 0.67036 0.20101 1.17804 0.74497 1.55747 0.35759 0.37927 0.78032 0.94735 1.35387 0.5718 0.7105-0.11805 0.74121-1.03665 1.05741-1.56677 0.0469-1.14316 0.2114-2.30616 0.1875-3.4375-0.33091-0.98468-1.47-1.21589-2.25-1.75-1.14188-0.0548-2.3133-0.10194-3.4375 0.15625-1.25914-0.44063-2.60646-0.4858-3.91189-0.67646l-0.0994 0.0111-0.0825 0.009zm141.25 0.0625c-0.46451 0.30227-1.20438 0.41507-1.78125 0.59375-0.63498-0.054-1.31616-0.38352-1.92696-0.28828-1.16332 0.36001-2.42619-0.0899-3.62591-0.10219-1.92952-0.24724-3.86253 0.19541-5.79088 0.26547-1.19956 0.35481-1.98752 1.3278-3.013 2.06557-0.55964 0.55292-1.45272 0.94726-1.3749 1.86621-0.009 0.72584-0.5266 1.55736 0.0625 2.16122 0.49969 0.79842 1.13243 1.51109 1.6692 2.282 0.70645 0.10098 1.43154 0.35354 2.125 0.375 0.50077-0.28645 0.91234-0.94749 1.2126-1.50305 0.32471-0.95798 0.39316-1.98668 0.50615-2.9657 0.50179-0.52618 1.16025-0.69388 1.85652-0.79442 0.46205-0.31429 0.92811 0.16487 1.36223 0.0132 0.74104-0.28993 0.81492-0.0654 1.5125-0.0937 0.65715-0.10898 1.16356 0.0122 1.09653 0.77955 0.19403 0.57464 0.13504 0.94681-0.008 1.50496-0.0372 1.28088-0.16571 2.58517-0.45797 3.83618-0.28382 0.74833-0.16367 1.60941-0.48664 2.36189-0.27988 0.82879 0.0324 1.72744-0.28114 2.54867 0.0259 1.45559-0.41451 2.85754-1.03424 4.16229-0.56665 1.82685-0.52378 3.79697-1.03202 5.64774-0.38128 1.58373-0.50969 3.4038-1.82516 4.51889-0.58228 0.63433-1.46902 1.02306-1.98358 1.67108-0.13617 0.47078-0.64828 1.04594-0.1875 1.4375 0.6038 0.38581 1.20374 0.7675 1.95406 0.6841 1.02207 0.10897 2.04243 0.18244 3.04594-0.0904 2.01421-0.31845 4.05438 0.0569 6.05316 0.31496 0.58844 0.0387 1.25584 0.49818 1.72847-0.0427 0.46798-0.39587 1.17973-0.60541 1.49962-1.116 0.13423-0.59936-0.6762-0.90635-0.96214-1.35977-0.85711-0.92183-2.30468-1.03079-3.11832-1.9861-0.63928-0.30673-0.58288-0.92313-0.54454-1.52913 0.13063-0.52814 0.40403-1.02901 0.32965-1.61103 0.0634-0.56284 0.44458-1.03632 0.4851-1.62251 0.24988-1.1536 0.72765-2.32086 0.44475-3.50977-0.19978-0.66786 0.63023-1.08484 0.51282-1.77809 0.26108-1.43357-0.0789-3.00067 0.61997-4.32709 0.37443-2.11917 0.66509-4.25792 1.377-6.29823 0.22687-1.28773 0.28244-2.67532 0.69946-3.88453 0.43067-0.55211 1.26298-0.26847 1.875-0.4375 0.45662 0.34321 1.02543-0.0202 1.41275 0.21 0.49934 0.58568 1.36462 0.22144 2.056 0.32125 1.35111-0.0526 2.68388 0.58256 4.02404 0.17219 0.81695-0.0953 0.46416-1.08044 0.54613-1.6469 0.0534-0.57177 0.0238-1.17083-0.35142-1.61904 0.1228-0.55704-0.79115-0.41119-1.16181-0.6069-1.24657-0.4981-2.59848-0.0756-3.86944-0.42435-1.57171 0.031-3.13988-0.0009-4.7-0.1875-0.15942 0.0282-0.44789-0.0516-0.55 0.0312zm197.125 5.09375c-0.49903 0.0455-0.98255 0.4964-1.25 0.84375-0.48556 1.7757-0.91985 3.6329-2.02529 5.14238-0.94525 1.49052-1.98244 3.02477-2.53721 4.67012-0.99968 1.08701-1.59722 2.37099-2.40269 3.64033-0.94874 1.54017-1.91051 3.0676-2.50494 4.78614-0.31361 0.43604-0.92695 0.59037-1.15487 1.13603-0.58326 0.94611-1.28906 1.74436-2.12764 2.47378-0.75573 0.80615-1.45102 1.66471-2.51334 2.03999-0.50935 0.20492-0.95677 0.48467-1.10617 1.04898-0.43652 0.61711 0.40191 0.98202 0.86458 1.17862 1.19024 0.51512 2.52254 0.56775 3.80691 0.59109 1.10142 0.0146 2.46447 0.44361 3.32566-0.42621 0.68792-0.52826 0.10307-1.42971-0.0625-2.09375-0.32049-0.50414-1.03917-0.96658-0.88984-1.58791 1.09328-1.88516 1.98799-3.88923 3.01484-5.78709 0.55043-0.5856 1.1396-1.35199 2.04651-1.32687 1.25714-0.14697 2.61104-0.48062 3.82849-0.0169 0.41105 0.37778 0.90852 0.88727 0.75 1.53125 0.0527 0.54621 0.27415 1.09666 0.0937 1.625 0.3323 0.78513 0.77085 1.52783 1.15625 2.28125-0.53079-0.41457-0.36961 0.84682-0.26257 1.1747 0.10369 0.71377 0.16269 1.50455-0.17493 2.16905-0.57048 0.66431-1.59403 0.72943-2.28125 1.21875-0.26194 0.4969 0.24766 1.25416 0.82924 1.1909 0.62748 0.10777 1.25191 0.16678 1.85826-0.0659 1.80193 0.002 3.62416 0.14126 5.41399-0.0746 0.67348-0.0962 1.35924-0.71806 1.24226-1.42536-0.25937-0.59883-0.70955-1.19281-1.375-1.3125-0.48427-0.43825-0.61133-1.03074-0.65625-1.65625-0.27315-0.47763-0.86587-0.88191-0.58929-1.4955 0.2146-1.00452-0.27081-1.98725-0.44149-2.97138-0.28473-1.40662-0.90321-2.746-1.20656-4.13231 0.18857-0.92462 0.20644-1.85868-0.10762-2.75962-0.17862-0.76247 0.36177-1.60271-0.0925-2.32869-0.1253-1.77204-0.75109-3.45164-1.1875-5.15625 0.37013-0.46629-0.0297-0.85672 0-1.35-0.0402-0.92346 0.17336-2.08036-0.4375-2.80625-0.24219-0.0273-0.70092-0.0979-0.84375 0.0312zm-241.219 0.0312c-0.53506 0.35485-1.17927 0.71803-1.17372 1.45784-0.29958 1.1884-0.69202 2.38103-1.21727 3.48028-0.91545 1.41339-1.82162 2.81641-2.51496 4.35572-0.40139 1.02575-1.10193 1.8479-1.71625 2.7452-1.4222 2.30138-2.72628 4.72685-3.90905 7.11721-1.06093 0.97592-1.78972 2.23063-2.81585 3.23151-0.6188 0.6536-1.25342 1.39847-1.9654 1.89349-0.73204 0.43929-1.81934 0.51323-2.05965 1.469-0.42629 0.59386 0.30238 0.94542 0.77568 1.13282 1.22074 0.58555 2.62012 0.60487 3.95221 0.63118 0.92597-0.0149 1.93173 0.39469 2.75292-0.1959 0.67104-0.13365 0.91972-0.56322 0.82884-1.2246-0.11753-0.61752-0.14254-1.27961-0.74053-1.62241-0.21288 0.35796-0.44722-0.45061-0.57197-0.94009 0.99092-1.84603 1.9004-3.77889 3.03207-5.5149 0.40473-0.48713 0.82829-1.02586 1.21793-1.4851 1.48146-0.20267 3.01356-0.74926 4.49816-0.33561 0.65715 0.22275 1.13488 0.90152 0.93934 1.61686 0.16333 0.66115 0.48554 1.2719 0.34375 1.96875 0.092 0.59418 0.40251 1.13204 0.6875 1.625-0.0567 1.1336 0.10713 2.2897-0.0625 3.40625-0.30646 1.06445-1.71039 0.93193-2.4375 1.53125-0.28531 0.50978 0.23601 1.26298 0.82915 1.19171 0.62739 0.11879 1.25003 0.1547 1.85835-0.0667 1.802 0.003 3.62385 0.14062 5.41399-0.0746 0.65179-0.0507 0.95758-0.64996 1.36726-1.01911 0.18732-0.6335-0.52859-1.06766-0.875-1.4375-0.49747-0.14933-0.79168-0.48255-1-0.96875-0.0422-0.95676-0.98281-1.64773-0.78125-2.6375-0.0272-1.43019-0.59139-2.7965-0.86228-4.19508-0.17951-0.92561-0.51643-1.83251-0.71881-2.73536 0.13992-0.83342 0.26031-1.67554-0.0652-2.47943-0.23519-0.8903 0.0477-1.83808-0.30359-2.70811-0.14653-1.97334-1.04779-3.82998-1.05571-5.81609-0.25335-0.82908 0.13377-1.73917-0.072-2.54826-0.1934-0.46382-0.45213-1.03333-1.0661-0.88017-0.16649 0.0221-0.35856-0.0421-0.5125 0.0312zm154.438 0.6875c-1.3003 0.43048-2.69492 0.69718-3.76352 1.60451-0.90413 0.40171-1.25429 1.31039-1.79898 2.08299-0.67984 0.58465-1.18442 1.42789-1.58499 2.22244-0.21584 0.90033-0.35579 1.72458-0.66501 2.52756-0.53209 0.18818-0.13433 0.98448-0.11957 1.40649 0.14609 0.5765 0.18734 1.17845 0.27582 1.74976 0.36789 0.27841-0.10412 0.65859 0.1875 1.09375 0.3014 0.55944 0.76697 1.07861 1.46335 1.05517 0.5075 0.004 0.62602 0.45117 0.84915 0.75733 0.4508 0.48806 1.27382-0.33567 1.6875 0.1875 0.43186 0.26596 1.20163 0.22171 1.59375 0.46875 0.11903 0.61629 0.88951 0.7816 1.29259 1.23452 0.66734 0.53983 1.5584 0.68653 2.05435 1.42492 0.43204 0.53254 1.19124 0.67519 1.68431 1.09056-0.24531 0.56324-0.14299 1.24949 0.0312 1.81875-0.0279 0.64897-0.26682 1.26804-0.80747 1.64497-0.50402 0.43604-0.94774 1.07305-1.47754 1.40219-0.90424 0.15651-1.78425 0.53268-2.68871 0.61817-0.94814-0.17438-1.94354-0.28086-2.85554-0.54505-0.75848-0.48262-1.15254-1.0467-1.57699-1.78278-0.40629-0.47739-0.68774-0.45012-0.9733-0.80638-0.23958-0.34951-0.35199-0.80479-0.7767-1.00612-0.0163-0.62366-0.22723-1.20157-0.81736-1.49336-0.36722-0.4757-0.92448-0.50202-1.38407-0.13542-0.60839 0.32114-0.68237 1.11537-0.86107 1.72253 0.1614 0.62545-0.28176 1.18949-0.28125 1.84375-0.13054 0.96041-0.31352 1.99392-0.15625 2.9375 0.36852 0.37206 0.83757 0.81092 1.34375 1 1.24717 0.10364 2.46493 0.51822 3.64573 0.90565 0.65065 0.35549 1.44997 0.4146 2.17795 0.44643 2.01244-0.26531 4.07354-0.33288 6.00956-1.01727 0.82964-0.0116 1.45351-0.74813 2.19581-1.07995 1.05062-0.65165 2.24403-1.22861 2.8772-2.19236 1.1277-1.37002 1.87984-3.17741 1.71838-4.96987-0.31707-0.77536 0.12981-1.70759-0.4619-2.40726-0.4433-0.77834-0.79527-1.621-1.16761-2.41552-0.61582-0.65822-1.22342-1.40308-1.93262-1.9261-0.51817-0.15651-1.10049 0.0915-1.52694-0.32597-0.42141-0.17875-0.90323-0.44395-1.06681-0.83028-1.06579-0.46457-2.19612-0.76309-3.10708-1.51946-0.4793-0.20823-0.82953-0.54742-1.04917-0.98054-0.49416-0.27183-1.00035-0.536-0.9375-1.1875 0.11817-0.25076 0.37773-0.83679 0.57166-1.23708 0.31385-0.46172 0.34664-1.12349 0.6705-1.53285 0.6935-0.36552 1.30204-0.97404 2.14086-0.90286 1.04847-0.0996 2.10246-0.37478 3.13674-0.0367 1.10155 0.13045 1.98824 0.9133 2.88178 1.5177 0.32966 0.342 1.0741 0.45471 0.87971 1.06678 0.27891 0.71194 0.51795 1.46748 1.10558 1.8794 0.28741 0.34761 0.76091 0.5091 1.14163 0.10689 0.726-0.34287 0.56716-1.30524 0.89766-1.93737 0.23063-0.5364-0.13688-1.19255-0.24583-1.76623-0.39556-0.58079 0.60088-1.13876 0.29213-1.79561-0.23865-0.5851-0.0219-1.5781-0.69117-1.83083-1.90265-0.32173-3.84603-0.38619-5.76875-0.53125-1.28226-0.0354-2.55988-0.0176-3.81163 0.29544-0.15029 0.0265-0.30058 0.053-0.45087 0.0796zm-7.5 7.4375c-0.15815-0.25359-0.12156 0.31969 0 0zm-80.1875-7.5625c-0.39724 0.23969-1.02937 0.28622-1.63156 0.36513-0.94651 0.11549-1.90498 0.0351-2.83298 0.31562-1.02351 0.3187-2.04739-0.2073-3.07412-0.28374-0.70601-0.11695-1.50455-0.22675-2.18009-0.022-0.23812 0.47458-1.08907 0.91567-0.59375 1.46875 0.78394 0.74166 1.54907 1.53957 2.28125 2.3125-0.0806 1.18271-0.0563 2.39243-0.19916 3.55908-0.43269 1.07659-1.16282 2.07945-1.36334 3.22217 0.17394 0.44593 0.23398 0.92277-0.15625 1.28125-0.39856 0.48824 0.0254 0.99163 0.1875 1.46875-0.079 0.61976-0.68677 1.07155-0.63703 1.74685-0.41333 2.44304-1.12209 4.82625-1.45672 7.2844-0.24793 0.56111-0.53272 1.0377-1.109 1.2904-0.80187 0.58178-1.93927 0.71614-2.3285 1.7096-0.1954 0.70762 0.80257 0.87298 1.1875 1.28125 1.08244 0.21931 2.23468 0.0311 3.34375 0.0937 1.19075-0.21736 2.41233-0.21328 3.61424-0.0963 0.92892 0.11532 1.85121 0.42832 2.77977 0.12787 2.09288-0.0736 4.1965-0.0104 6.29349-0.0315 0.64331-0.51114 1.11836-1.32522 1.53125-2.03125-0.0806-0.49634-0.39263-1.08452 0-1 0.12254-0.48094-0.0695-1.02213 0.46875-1.3125 0.24545-0.60012 0.10357-1.32964 0.0937-1.96875-0.18657-0.48715-0.66209-1.00228-1.23036-0.71617-0.5965 0.005-0.96103 0.30916-1.1939 0.84194-0.45486 0.58728-0.77048 1.32218-1.21464 1.87625-0.6405 0.44258-1.1064 1.20584-1.92445 1.284-1.10343 0.3341-2.25686 0.50422-3.37415 0.77648-0.6777-0.18343-1.22172-0.56811-1.53125-1.21875 0.39274-0.14371-0.13861-0.94512 0.0625-1.34375-0.0157-0.63783 0.47286-1.19511 0.51164-1.78556-0.37738-0.61175 0.18632-1.20577 0.0509-1.84569 0.21918-1.02075 0.8495-1.98056 0.86584-3.06753-0.11942-0.32945-0.33321-1.04245-0.0501-1.21447 0.65369 0.10144 1.32557 0.14384 1.79584 0.67068 0.46908 0.35126 1.17066 0.37364 1.6384 0.68007 0.005 0.75832 0.65422 1.21124 1.21875 1.5625 0.58728 0.30597 1.07446-0.52976 1.53125-0.8125 0.252-1.2369 0.27915-2.54258 0.28125-3.8125 0.34142-0.86175 0.81466-1.69596 0.6795-2.65598 0.15915-0.5911-0.33509-0.96895-0.867-1.03152-0.62396-0.0652-0.96601 0.6415-1.5 0.96875-0.36125 0.48911-0.58186 1.16397-1.29296 1.174-0.67706 0.14879-1.34025 0.52236-2.0225 0.55055-0.83534 0.0597-0.49891-0.79516-0.55954-1.32455-0.10981-0.51482 0.45164-0.56989 0.46875-0.99375 0.19141-0.45016-0.0264-0.95032-0.125-1.34375 0.35511-0.35517-0.20476-0.82216 0.22821-1.20957 0.39213-1.11052 1.07669-2.24693 0.70701-3.46263-0.15679-0.59322 0.36095-0.90767 0.88806-0.92776 0.61563-0.11048 1.26895 0.17242 1.85561 0.34565 0.482 0.45449 0.94188 0.20624 1.48179-0.0154 0.39483-0.0437 0.80524-0.0132 1.27794 0.14509 0.89424 0.31184 1.75783 0.82201 2.49888 1.37463-0.007 0.77959 0.62022 1.25433 1.03125 1.84375 0.61214 0.17091 1.33252-0.22065 1.46814-0.85616 0.57116-0.75962 0.27348-1.72032 0.34436-2.60009 0.0351-0.68953-0.0446-1.64382-0.8738-1.74865-0.69069-0.28376-1.43099-0.51208-2.16114-0.58511-0.82357 0.26205-1.72267 0.24616-2.49631-0.14749-0.89488-0.0298-1.79445-0.23425-2.6875-0.15625zm-150.625 0.15625c-0.41894 0.23584-1.34629 0.29197-1.15625 0.96875 0.23743 0.79798 0.7775 1.49706 1.26849 2.1524 0.63376 0.56733 1.56931 0.87676 1.95026 1.62885-0.20955 0.55251 0.20967 0.42838 0.38021 1.05347 0.13505 0.67183 0.74043 1.04205 1.21354 1.41528 0.53578 0.53492 0.15717 1.23034 0.1875 1.875 0.87122 1.53794 1.10701 3.34713 1.9375 4.90625 0.0177 0.43681-0.0887 0.97089-0.5 1.3125-0.793 0.88011-1.20272 2.06136-2.15625 2.78125-0.25756 0.68387-0.54086 1.28536-1.12119 1.745-0.51056 0.58319-1.18979 1.11816-1.54013 1.76622-0.43582 0.48235-0.74536 1.10787-1.30743 1.55128 0.60377 0.14606-0.87146 0.41042-1.1866 0.56839-0.65017 0.42765-1.45564 0.51852-2.1884 0.71286-0.51098 0.4649-1.2102 0.99739-0.9375 1.78125 0.37889 0.62154 1.28826 0.7309 1.96875 0.875 1.93941-0.0295 3.88396 0.11913 5.81576 0.132 0.59225-0.29962 1.16303-0.84178 1.52799-1.382-0.10197-0.73604-0.48514-1.35137-0.98491-1.8068-0.40164-0.45385 0.17136-0.93123 0.29741-1.4432 0.24908-1.09727 1.18588-1.79273 1.85196-2.66446 0.69351-0.63818 1.34103-1.44537 2.05648-1.98876 0.52053-0.35092 0.95748 0.14378 1.05301 0.65087 0.6713 1.60601 1.22743 3.33173 1.41355 5.0336-0.57457 0.70473-1.38565 1.26716-1.84375 2.03125 0.0316 0.5555 0.16364 1.37411 0.88967 1.33057 0.89573 0.0904 1.82657 0.52833 2.68066 0.0418 0.86435-0.24699 1.80906-0.0695 2.70275-0.052 1.16635 0.10551 2.40076 0.28298 3.53942 0.0546 0.30194-0.43146 1.20299-0.8666 0.75922-1.45962-0.43572-0.85678-1.10865-1.48999-1.91547-2.07163-0.42095-0.55067-1.13823-0.89706-1.16475-1.672-0.55329-1.59691-1.38114-3.08996-2.08525-4.60925 0.2455-0.39148-0.14625-0.47439-0.10789-1.00524-0.003-0.87409-0.85141-1.39487-0.87812-2.25129-0.0925-0.63403-0.46283-1.30056-0.36552-1.92092 1.29912-1.98432 3.26785-3.44596 4.76456-5.29429 0.69399-0.83082 1.41394-1.87015 2.18072-2.71576 1.42115-0.73812 2.92734-1.39763 4.25821-2.25821 0.28843-0.35062 0.74117-0.88089 0.23358-1.25-0.4761-0.72909-1.40804-0.22571-2.1122-0.28075-1.21072 0.0375-2.4353 0.38379-3.62959 0.0702-0.72805 0.14707-1.46193 0.52893-2.1875 0.15625-0.57278 0.10225-1.15427 0.1863-1.71875 0.34375-0.12186 0.53747-0.4754 1.09815-0.46875 1.625 0.41913 0.37358 0.83138 0.80047 1.1875 1.21875 0.14217 0.73046-0.38109 1.37599-0.65625 1.96875-0.77701 0.97374-1.6406 2.07646-2.53287 3.02904-0.46099 0.2096-0.83342 1.03128-1.37338 0.62721-0.36664-0.80845-0.44055-1.86253-0.84431-2.67136-0.78929-0.85675-1.2646-2.04673-0.93818-3.21 0.0977-0.65266 0.85217-0.99489 1.24537-1.49074 0.36262-0.30057 0.2995-0.99788 0.0684-1.3154-0.53963-0.26794-1.2556-0.0898-1.86038-0.0894-0.92878 0.0484-1.8847 0.35064-2.79672 0.24086-1.40751-0.65-2.98579-0.55493-4.49171-0.76949-0.12723-0.0114-0.26024-0.0204-0.38244 0.0243zm221.812 0c-1.12682 0.13908-2.25077 0.31327-3.38397 0.31867-0.87585 0.12475-1.75178 0.50403-2.63022 0.19169-1.19893-0.15869-2.45107-0.556-3.64206-0.32286-0.3468 0.4039-1.15982 1.05023-0.55429 1.57071 0.70055 0.70117 1.43806 1.43723 2.11679 2.11679 0.11831 0.47138-0.12313 0.82536 0 1.33125 0.14052 1.53895-0.53702 2.93931-1.09578 4.32555-0.14118 0.55404-0.57258 1.0859-0.27922 1.6557-0.21987 0.60354-0.74239 1.36799-0.22736 1.98277 0.16921 0.6006-0.44912 1.18699-0.43398 1.81773-0.31875 2.02375-0.88382 3.99535-1.32051 5.99861-0.23873 0.82025-0.31247 1.76343-0.75303 2.48142-0.77548 0.71362-1.86584 0.92415-2.70262 1.50072-0.19163 0.46303-0.4022 1.0922 0.19606 1.30081 0.52038 0.38317 1.05264 0.82667 1.74769 0.66794 1.19412-0.003 2.39402 0.0576 3.56875-0.15625 1.42422-0.0632 2.84047 0.0727 4.2375 0.34375 1.90976-0.36299 3.86754-0.11388 5.8-0.1875 0.69976-0.0847 1.62954 0.29654 2.01517-0.49759 0.7856-0.75561 0.96276-1.87228 0.92418-2.91276 0.0109-0.64616 0.63484-1.03622 0.53782-1.71123 0.0358-0.61019 0.37957-1.37689-0.31001-1.75501-0.44569-0.39037-1.15184-0.0507-1.62341 0.12659-0.71505 1.09919-1.43834 2.29308-2.47353 3.16103-0.36831 0.61339-1.08077 0.58637-1.6979 0.77082-0.98954 0.20506-1.99688 0.46892-2.98869 0.57771-0.42048-0.14159-0.67292-0.46645-1.02738-0.72831-0.14114-0.59768-0.46487-1.16486-0.17344-1.7798 0.3343-1.23682 0.41236-2.5067 0.36094-3.7827 0.86182-1.16746 0.89881-2.6948 0.90625-4.09375 0.61031 0.0612 1.3063-0.016 1.70555 0.54672 0.43929 0.43806 1.19072 0.41197 1.66945 0.73453-0.0568 0.78083 0.77444 1.26817 1.25 1.59375 0.58888 0.23609 0.91751-0.47088 1.40625-0.75 0.41477-0.70157 0.30279-1.62713 0.50902-2.41899 0.039-0.75323-0.0701-1.52406 0.3649-2.19447 0.42348-0.7093 0.35662-1.58319 0.31358-2.35529-0.32262-0.55191-1.20153-0.68225-1.63562-0.17046-0.70725 0.39232-1.1458 0.97505-1.58313 1.63921-0.81848 0.1908-1.6162 0.64741-2.44046 0.72455-0.83534 0.0597-0.49891-0.79516-0.55954-1.32455 0.0939-0.49859 0.28259-1.03194 0.46875-1.525 0.32981 0.13119-0.38546-1.02093-0.125-1.09375-0.11473-0.69715 0.47384-1.20639 0.62069-1.86639 0.39066-0.5974 0.22478-1.29862 0.21928-1.94851 0.13439-0.41834-0.14628-1.10329 0.38061-1.33951 0.73837-0.42077 1.51751-0.0244 2.27942 0.0919 0.49993 0.33187 0.93984 0.50259 1.5 0.1875 1.35958-0.41025 2.52549 0.59774 3.60409 1.2628 0.45796 0.29135 0.39462 1.00122 0.85905 1.33501 0.26428 0.37972 0.59786 0.94171 1.13401 0.62379 0.75308-0.0968 0.85891-0.98548 1.1841-1.5341-0.0363-0.89827 0.0715-1.83647-0.0514-2.71075-0.24789-0.59613-0.73311-0.938-1.33585-1.11416-0.53916-0.25728-1.16219-0.26314-1.7377-0.42509-0.8391 0.32648-1.78845 0.25157-2.59375-0.125-0.83219-0.0303-1.66951-0.23825-2.5-0.15625zm-30.875 0.125c-1.09443 0.31104-2.25071-0.093-3.33575 0.0514-0.56167 0.30785-0.93903 0.7736-1.008 1.4173 0.38418 0.52441 0.28567 1.43214 1.07221 1.59861 0.65844 0.14387-0.0299 0.85728 0.20904 1.30764-0.1113 1.23186-0.30313 2.45433-0.27004 3.69172-0.64334 2.8275-1.00386 5.71551-1.55279 8.55548-0.72689 1.26481-0.66111 2.76973-0.96657 4.1622-0.0967 1.14188-0.42736 2.3377-1.42935 2.99685-0.60539 0.53536-1.48234 0.94966-1.71875 1.78125 0.11136 0.78303 1.17337 0.60299 1.76831 0.82284 0.49996 0.22337 0.90615-0.19747 1.4246-0.0858 1.92193-0.37167 3.89818-0.0149 5.82432-0.25302 0.52574-0.16813 1.42046-0.10041 1.51402-0.79655-0.36981-1.02462-1.87276-1.07142-2.25-2.03125 0.0801-0.97822 0.3329-1.96286 0.3125-2.9375-0.37374-0.4735-0.79906-0.98441-0.10783-1.39159 0.51613-0.39219 0.26064-1.20387 0.39277-1.84877 0.0566-0.58123 0.0608-1.19858 0.12131-1.75964 0.63311-0.29489 1.36787-0.49293 2.0625-0.59375 1.04841 0.22083 1.39212 1.39132 1.875 2.21875-0.10553 1.33404-0.48136 2.6745-0.125 4 0.0428 1.55029 0.76434 2.95896 1.32576 4.35646 0.32663 0.48814 0.51588 1.14121 1.22608 1.08999 0.80762 0.13482 1.60197 0.4041 2.41691 0.4598 0.53933-0.18937 1.23861 0.40766 1.70421-0.14165 0.57853-0.34213 1.1913-0.65347 1.36726-1.35764 0.27096-0.56388 0.74143-1.12622 0.22338-1.69618 0.0247-0.72543-0.74137-0.22593-0.87696-0.65259-0.10435-0.73219-1.10946-0.30431-1.56122-0.7236-0.65148-0.0912-0.6338-0.64507-0.71537-1.17466-0.1783-0.91849-0.0992-1.86325-0.29755-2.78493 0.0402-1.22939 0.32422-2.47848-0.1066-3.67086-0.0272-0.55028-0.49228-0.88809-0.86215-1.23539 0.90599-0.45247 2.03553-0.5541 2.66605-1.41605 0.94392-0.84601 1.9199-1.71634 2.36049-2.94207 0.22861-0.96833 0.27873-1.99603 0.44221-2.98563-0.42183-1.05426-0.61561-2.23631-1.47207-3.04352-0.44435-0.65563-0.99429-1.19168-1.72606-1.5142-0.86855-0.56074-1.81618-1.11877-2.89562-0.97353-0.88546-0.31781-1.77951-0.58102-2.73105-0.49056-1.2556 0.03-2.53928 0.0336-3.76895 0.27181-0.18203-0.0525-0.37644-0.37584-0.53125-0.28125zm-164.312 0.34375c-0.83892 0.22575-1.68022 0.45901-2.31534 1.08996-0.63841 0.42242-1.1517 1.09825-1.59091 1.66004-0.0296 0.87208-0.40787 1.82481 0.1875 2.59375 0.43968 0.81177 1.0899 1.62806 2.08187 1.72376 0.50015 0.22355 0.89458 0.29491 1.25563-0.18001 0.50074-0.27777 0.8942-0.68348 0.85-1.29375 0.0841-0.71432 0.12053-1.46403 0.25-2.15625 0.61778-0.59533 1.54971-0.46591 2.34375-0.53125 0.70347 0.0456 1.51809-0.0887 2.15625 0.0625 0.20599 0.57247 0.32113 1.14452 0.0892 1.72802 0.0246 0.29284 0.21596 0.48998-0.036 1.21091-0.28696 1.51581-0.47006 3.05156-0.89966 4.53941-0.31842 1.43206 0.0962 3.03704-0.7502 4.3257-0.69204 1.24825-0.67393 2.73297-1.02916 4.09318-0.36324 1.37357-0.31337 2.91612-1.08791 4.13778-0.46026 0.68156-1.08103 1.16728-1.84875 1.49625-0.36377 0.3103-0.54534 0.98522-0.34375 1.4375 0.51152 0.32681 0.91785 0.87359 1.59228 0.7571 1.13311 0.16249 2.28756 0.14575 3.35305-0.32221 0.34697 0.0591 0.68675 0.14319 1.08592-0.0911 1.392 0.19891 2.8056 0.34694 4.15625 0.71875 0.50069-0.40335 1.35761-0.5298 1.625-1.125-0.052-0.64566-0.82944-0.96719-1.1875-1.46875-0.74243-0.37641-1.66083-0.83979-2.29343-1.4911-0.48888-0.24643-0.45417-1.03397-0.14416-1.39941 0.38375-0.47661 0.006-1.16898 0.42394-1.66098 0.23279-0.83386 0.23268-1.74736 0.6074-2.54226-0.0106-0.62712-0.36306-1.30959 0.125-1.84375 0.24724-1.14969 0.37161-2.33738 0.44906-3.49662 0.51008-1.10531 0.46395-2.38364 0.73466-3.56341 0.28261-1.34675 0.79699-2.64719 0.87878-4.03372 0.2337-0.46183-0.0206-1.33335 0.6-1.46875 0.61569-0.0328 1.22391-0.005 1.80625 0.1875 0.44544-0.29248 0.84744 0.36689 1.36875 0.15625 1.07765-0.11212 2.11091 0.17422 3.1625 0.34375 0.46749-0.18107 1.32323-0.008 1.28914-0.72912 0.21831-0.75825 0.19613-1.60522 0.0859-2.36463-0.68575-0.2847-1.46097-0.48425-2.1875-0.6875-0.49158 0.0817-0.81845 0.43776-1.2482 0.11322-0.46952-0.10264-0.84068-0.31114-1.33233-0.24869-1.13437 0.11122-2.26645 0.17027-3.39447-0.0208-0.91663-0.11158-1.74523 0.56954-2.66257 0.24452-0.64088-0.0862-1.32561-0.20107-1.92493 0.0992-1.50278-0.20812-3.01908-0.46939-4.52911-0.18013-0.58405 0.0601-1.16809 0.12009-1.75214 0.18013zm22.1562-0.3125c-0.25259 0.48008-0.73145 1.05282-0.875 1.5625 0.3217 0.5519 0.41919 1.25725 1.10729 1.49038 0.41057 0.33278-0.29312 1.16491 0.33021 1.44712-0.33068 1.11724-0.52608 2.26715-0.46875 3.4375-0.56479 2.87828-1.0729 5.77404-1.60286 8.65399-0.68595 1.21005-0.55193 2.64732-0.80306 3.97877-0.10196 0.96736-0.14112 2.07419-0.96908 2.71099-0.53246 0.63838-1.2823 0.97598-1.87494 1.53117-0.35227 0.28129-0.65714 0.88331-0.18756 1.15633 0.58956 0.29191 1.34392 0.32318 2 0.46875 0.82645-0.24294 1.72034-0.26134 2.58125-0.34375 1.7758-0.0926 3.62034 0.26644 5.325-0.375 0.68599-0.27583 0.19779-1.20653-0.31975-1.40435-0.5554-0.41075-1.61214-0.63753-1.37656-1.52627 0.004-0.85888 0.1859-1.75718 0.0824-2.59263-0.44553-0.50633-0.64817-0.98997 0.009-1.41278 0.47408-0.56032 0.21346-1.56577 0.3367-2.32479 0.1263-0.45188-0.23445-1.27907 0.42685-1.36065 0.84324-0.21446 1.82758-0.76523 2.59142-0.066 0.54472 0.46605 0.88744 1.19962 1.01996 1.91186-0.1142 1.30346-0.45292 2.60948-0.12071 3.9039 0.37529 1.1802 0.41754 2.44592 1.00882 3.55326 0.17688 0.70343 0.63721 1.3226 1.20337 1.76095 0.55627 0.2347 1.12564 0.9422 1.71939 0.42337 0.66248-0.42258 1.54203-0.5866 2.06522-1.16982 0.43929-0.78095 1.01163-1.52955 1.3852-2.32102-0.22909-0.93772-1.55175-0.75026-2.125-1.25-0.16521-0.75705-0.0111-1.54107-0.28125-2.28125-0.0564-1.40821 0.11552-2.84223-0.0893-4.23364-0.14476-0.6659-0.21055-1.38114-0.82187-1.79703-0.46769-0.40014 0.85495-0.45045 1.162-0.70087 0.57785-0.16816 1.12939-0.36022 1.37531-0.96236 0.94475-0.95826 2.28872-1.88159 2.3703-3.37918 0.0648-0.89319 0.36721-1.79729 0.29755-2.68312-0.26405-0.93269-0.35657-1.9789-1.15486-2.63539-0.57143-0.71601-1.19487-1.3745-2.04954-1.74614-0.86362-0.531-1.77143-1.1393-2.83954-0.95602-0.79646-0.32278-1.60364-0.58403-2.47481-0.48912-1.28859 0.0206-2.60132 0.0645-3.86894 0.27037-0.44594-0.35147-0.95582-0.29118-1.46875-0.15625-0.87151 0.0166-1.7651-0.17248-2.625-0.0937zm114.5 0c-0.25259 0.48008-0.73145 1.05282-0.875 1.5625 0.32921 0.55349 0.41681 1.25922 1.10729 1.49038 0.41057 0.33278-0.29312 1.16491 0.33021 1.44712-0.33068 1.11724-0.52608 2.26715-0.46875 3.4375-0.54672 2.84788-1.08973 5.69591-1.53125 8.5625-0.49971 0.78285-0.60831 1.67678-0.68733 2.58201-0.1798 1.07025-0.18738 2.18918-0.46892 3.23049-0.47978 1.10358-1.58013 1.72301-2.49997 2.42184-0.303 0.31081-0.72609 0.80236-0.34378 1.17191 0.61052 0.37225 1.40234 0.36693 2.09375 0.53125 0.79361-0.24418 1.65493-0.23656 2.48125-0.34375 1.6089-0.0778 3.25135 0.18321 4.83125-0.1875 0.48156-0.0629 1.26833-0.42315 0.83028-0.99569-0.33791-0.86473-1.64608-0.86866-1.95528-1.72306 0.0118-0.99212 0.20048-2.02326 0.1048-2.992-0.44553-0.50633-0.64817-0.98997 0.009-1.41278 0.47408-0.56032 0.21346-1.56577 0.3367-2.32479 0.12557-0.45428-0.23305-1.27449 0.42584-1.36393 0.7426-0.2238 1.58155-0.71545 2.2988-0.16088 0.60637 0.50635 1.10988 1.29196 1.14382 2.10909-0.10484 1.22757-0.49077 2.45891-0.13144 3.67654 0.30697 1.27323 0.456 2.58566 1.03968 3.77408 0.20914 0.63901 0.63083 1.27438 1.17851 1.64076 0.76209 0.26872 1.51017 0.61688 2.28181 0.83516 0.9884-0.32263 2.08807-0.36933 2.90625-1.0625 0.37251-0.42458 0.47763-1.07797 0.71875-1.59375-0.0217-0.53586 0.0981-1.15441-0.1875-1.59375-0.46115 0.2854-0.63324-0.12873-1.00326-0.243-0.71333-0.0816-1.67525-0.31536-1.84049-1.10075 0.27384-0.81443-0.2743-1.73708-0.10501-2.61225-0.0283-1.44115 0.19205-2.91911-0.30404-4.30519 0.0291-0.5028-0.78772-0.87606-0.7481-1.15095 0.74847-0.3072 1.57819-0.51845 2.28215-0.86911 0.39605-0.82424 1.4734-1.44385 2-2.15625 0.97958-1.20034 0.86093-2.8312 1.09375-4.28125-0.31693-0.84176-0.23524-1.89162-0.93915-2.52979-0.65866-0.85608-1.39922-1.6491-2.39719-2.10303-0.81599-0.52996-1.70992-1.06032-2.72616-0.89843-0.79646-0.32282-1.60364-0.58407-2.47482-0.48875-1.23733 0.009-2.49651 0.0705-3.71268 0.27-0.43655-0.34259-0.93082-0.30567-1.4375-0.15625-0.88192 0.0204-1.78597-0.17328-2.65625-0.0937zm90.4375 0.3125c-0.82118 0.30805-1.71837 0.49711-2.36363 1.15056-0.53294 0.45129-1.18135 0.89565-1.50759 1.50809-0.098 0.6617-0.34049 1.34408-0.34753 1.9976 0.47305 0.78346 1.12328 1.56842 1.72213 2.21129 0.59235 0.0586 1.19988 0.46346 1.77787 0.31996 0.59041-0.27424 1.02125-0.96351 0.99652-1.68692 0.12331-0.64845 0.16091-1.33731 0.28473-1.96933 0.649-0.61282 1.5632-0.58561 2.4-0.625h2.225c0.15223 1.0224 0.12558 2.04965-0.12425 3.05145-0.14845 0.77583-0.0799 1.5708-0.35151 2.31121-0.0827 0.72896-0.43877 1.4412-0.33837 2.14712-0.26574 1.17032-0.21708 2.4068-0.5418 3.55346-0.86499 2.02089-1.01862 4.23846-1.51331 6.36304-0.18404 1.3245-0.63296 2.75472-1.65615 3.62143-0.59735 0.31763-1.29054 0.57028-1.47176 1.29629-0.47316 0.65529 0.49487 1.04643 0.9034 1.37475 1.40076 0.16926 2.91092 0.3473 4.21875-0.3125 0.51156 0.33791 1.00827-0.22473 1.56325 0.0498 1.15826 0.14038 2.31786 0.33162 3.43675 0.63768 0.59547-0.26394 1.22174-0.54543 1.75-0.90625 0.36978-0.6605-0.59961-1.02913-0.92398-1.49163-0.81643-0.67421-1.97155-0.87305-2.61046-1.76156-0.32095-0.30189-0.2857-1.00249 0.003-1.32482 0.3182-0.58537 0.0435-1.337 0.34384-1.95324 0.0492-0.81985 0.32031-1.59514 0.5-2.38125-0.0221-0.64334-0.0694-1.30367 0.34375-1.8375-0.0604-2.4834 0.75832-4.86384 1.21875-7.28125 0.17532-0.84046 0.61815-1.761 0.50378-2.53365-0.0182-0.8019 0.25514-1.67634 0.49622-2.40385 0.38357-0.42061 1.05752-0.16537 1.5651-0.19199 0.49203 0.32271 0.92707-0.10755 1.3724 0.25449 0.85414 0.23509 1.79905-0.0305 2.67167 0.22469 0.66996 0.19773 1.33738 0.18407 2.01583 0.0253 0.73268-0.6668 0.57011-1.84048 0.53125-2.75-0.21377-0.52263-1.00182-0.40973-1.46189-0.65732-0.45445-0.18551-1.05387-0.32699-1.44436 0.001-0.2538 0.23506-1.05388-0.29923-1.5-0.375-1.26533 0.0836-2.52941 0.22982-3.7875 0-0.99492-0.11553-1.92033 0.56746-2.91203 0.24028-0.65767-0.17281-1.31812-0.0395-1.96229 0.0605-1.44194-0.1433-2.88725-0.43328-4.32953-0.13999-0.56539 0.061-1.13077 0.12195-1.69615 0.18292zm22.5-0.25c-0.57091 0.36034-1.22401 1.13938-0.71875 1.78125 0.0768 0.64146 0.45852 1.14533 1.09375 1.3125 0.0722 0.38948-0.12965 0.95862-0.0221 1.44878-0.14234 1.14129-0.2752 2.28062-0.2792 3.43044-0.64189 2.82814-1.00677 5.71423-1.5506 8.55644-0.72332 1.43985-0.69567 3.1002-1.04177 4.65081-0.0687 1.24644-0.81879 2.27101-1.84535 2.90735-0.52071 0.35773-1.02516 0.77577-1.22974 1.38118 0.16128 0.79442 1.17165 0.5992 1.76831 0.82284 0.52986 0.21152 0.9758-0.18819 1.52383-0.0982 1.92258-0.3644 3.90057 0.0174 5.82375-0.25718 0.53515-0.14574 1.45606-0.14659 1.41536-0.87374-0.37276-0.75733-1.43697-0.92523-1.91691-1.55955-0.32173-0.72251 0.0161-1.56975-0.0334-2.34355 0.12465-0.62879 0.0219-1.2425-0.45655-1.69776-0.16566-0.41069 0.62067-0.72062 0.65687-1.11789 0.11969-1.04006 0.0857-2.13193 0.21875-3.15625 0.63311-0.29489 1.36787-0.49293 2.0625-0.59375 1.09357 0.18801 1.33698 1.40274 1.90625 2.1875-0.10912 1.34458-0.52344 2.69329-0.15625 4.03125 0.0381 1.48278 0.70613 2.81197 1.25 4.15625 0.30542 0.60898 0.63902 1.24756 1.32228 1.50392 1.11475 0.79137 2.5445 0.28018 3.71193-0.11796 0.61902-0.16987 1.10817-0.71494 1.44718-1.22756 0.24558-0.54711 0.5485-1.09613 0.19475-1.67331 0.0598-0.42741-0.38974-0.44997-0.51989-0.49134-0.006-0.81469-1.10679-0.4084-1.58083-0.81541-0.6521-0.10138-0.64681-0.71417-0.73033-1.24233-0.15233-0.89815-0.0937-1.8179-0.28259-2.71726 0.0376-1.19436 0.37891-2.41422-0.0742-3.56843-0.0325-0.58952-0.48108-0.97509-0.89459-1.33782 0.77628-0.37196 1.73187-0.46854 2.40622-0.98434 0.70283-1.08889 1.99989-1.73699 2.44909-3.01228 0.48391-0.98487 0.37201-2.14813 0.59922-3.21042-0.14084-0.81607-0.5467-1.62525-0.82983-2.40203-0.70919-0.80063-1.22644-1.82544-2.26788-2.2417-0.90035-0.54346-1.83837-1.20697-2.95057-1.02423-0.89723-0.31221-1.80035-0.5858-2.7623-0.49056-1.24675 0.0147-2.50664 0.0961-3.7377 0.27181-0.57217-0.56834-1.33065 0.0188-2.01787-0.17926-0.63305 0.014-1.36379-0.22603-1.95088-0.008zm25.1562-0.0312c-0.59573 0.32091-1.22022 0.64765-1.78125 1.03125-0.11549 0.40907 0.0409 0.92903 0.25 1.28125 0.63484 0.57192 1.71751 0.91575 1.59375 1.9375 0.31575 1.03706-0.53385 1.99828-0.47253 3.0024 0.25487 0.68206 0.12761 1.45169 0.0847 2.14988-0.47863 0.90084-0.93082 1.81034-0.99765 2.84611-0.17927 0.62642-0.19319 1.26764 0.0417 1.87661-0.25517 1.04851-0.18857 2.14289-0.61682 3.15343-0.37325 0.5976 0.39596 1.39798-0.13318 1.87782-0.29335 0.31797-0.41782 0.99323-0.52733 1.47937-0.11134 0.71507-0.0839 1.48454-0.63873 2.02764-0.29084 0.51971-0.68734 1.02919-1.17769 1.24299-0.45132 0.40547-1.00241 0.85128-1.15625 1.375 0.18745 0.37928 0.73454 0.66351 0.90625 1.15625 0.46362 0.26458 0.98696 0.41327 1.46785 0.11911 0.53345-0.35475 0.5794 0.49236 1.29959 0.0767 0.60474-0.13802 1.22817-0.33979 1.82631-0.0708 0.97136-0.0343 1.99703 0.1656 2.9375-0.0625 0.35799-0.37062 0.90688-1.04779 0.30371-1.46116-0.72956-0.77039-1.27202-1.9209-0.98291-3.01349 0.007-1.19198 0.58945-2.29896 0.4292-3.50035-0.0218-1.18683 0.71936-2.23514 0.76353-3.42544 0.28921-1.74536 0.50952-3.52576 0.79897-5.25581 0.61643-0.61822 0.30776-1.60925 0.48036-2.39603 0.13901-1.01309 0.33822-2.04695 0.57456-3.03129 0.34297-0.3697 0.45011-1.05904 1.00758-1.13518 0.63291-0.56131 1.54743-1.25402 1.90625-2.125-0.049-0.47906-0.57177-0.84155-0.96875-1.0625-0.71231 0.15522-1.45106 0.25036-2.15625 0-0.73812 0.12836-1.44496 0.49207-2.19792 0.2286-0.92407-0.12192-1.84458-0.29306-2.77083-0.38485l-0.0832 0.0555-0.0105 0.007zm39.375 0.0625c-0.85957 0.11614-0.9758 1.17367-0.6919 1.87083 0.11484 0.72161 1.09793 0.7793 1.5044 1.28542 0.49456 0.84187 0.001 1.76715-0.0684 2.65438-0.25027 1.21372-0.3229 2.48316-0.58079 3.67883-0.40854 0.57961-0.83986 1.13832-0.86004 1.87481-0.13814 0.57345-0.18567 1.14393 0.0405 1.69823-0.42857 0.96266-1.05929 1.93623-1.07617 3.01173 0.14829 0.66603-0.10921 1.23617 0.14113 1.85583-0.001 0.56443 0.28602 1.28988-0.28371 1.66369-0.40348 0.75803-0.43462 1.71665-0.70421 2.54824-0.0122 0.54183-0.32634 0.821-0.73329 1.10801-0.51574 0.33569-1.06651 0.94082-1.71875 1.21875-0.39972 0.29824-0.96675 0.83396-0.45385 1.29291 0.26438 0.74399 1.1706 0.62672 1.80385 0.76959 1.07125 0.069 2.10705-0.34634 3.18125-0.1875 0.5601-0.19497 1.0747-0.51352 1.63845-0.25637 2.1567 0.42024 4.37096 0.16587 6.55521 0.25566 1.91465 0.0173 3.83984-0.0502 5.74384-0.18679 0.94294-0.3492 0.85107-1.49652 1.10046-2.31115 0.24016-0.86033 0.36765-1.74462 0.40768-2.62451 0.21901-0.41101 0.52387-1.0041-0.0727-1.24913-0.36482-0.31212-0.83368-0.78176-1.29038-0.33076-0.98074 0.44714-1.28843 1.50693-1.89306 2.37274-0.33074 0.62914-0.79071 1.41488-1.62705 1.23656-0.62259-0.0617-1.23095-0.25531-1.84696 0.00064-0.44834 0.0598-0.99045-0.16061-1.52966-0.16881-0.86909-0.15012-1.84783 0.0797-2.56354-0.54891-0.42075-0.18483-0.32884-0.7532-0.71609-0.93917 0.27768-0.51887 0.18814-0.99888 0.18372-1.3774 0.14262-0.61378 0.86436-0.94178 0.78492-1.64271 0.30288-0.90846-0.10783-1.81817-0.20624-2.70412 0.16429-1.29454 0.27689-2.72008 0.9251-3.83827 0.35288-0.3048 0.19864-0.64689 0.0625-1-0.0997-0.50966-0.80463-0.76848-0.16875-1.24375 0.7901-0.79247 0.618-2.00457 0.88826-3.01617 0.22111-1.02631 0.14378-2.15868 0.8548-3.00543 0.46199-0.88925 1.33622-1.47553 2.2055-1.92936 0.58619-0.10085 0.83063-0.87405 0.68894-1.36779-0.41868-0.4291-0.96241-0.73732-1.5625-0.5-0.80627-0.004-1.70148-0.29912-2.47112 0.14335-0.53288 0.20737-0.97024 0.44434-1.49763 0.16915-0.85414-0.10319-1.7178-0.0179-2.55537-0.27165-0.51966-0.12806-1.01988-0.17221-1.53838-0.01zm-285.25 2.78125c0.89516-0.0697 1.81019 0.29455 2.625 0.5 0.74766 0.6334 1.45797 1.38265 1.52862 2.41247-0.0768 0.87771 0.0407 1.74744 0.12763 2.61878-0.40207 0.69686-1.15464 1.15974-1.4375 1.9375-0.30827 0.082-0.84422 0.5279-1.30387 0.87607-0.37846 0.12608-1.3465 0.048-1.41919 0.1999-0.26324 0.0192-0.94331 0.086-1.21717-0.11216-0.56301 0.21239-1.23722-0.40016-0.96677-0.98401 0.10289-0.91991 0.3561-1.85686 0.407-2.76105 0.0767-0.54873-0.97427-0.56863-0.4394-1.06975 0.51066-0.80151 0.59433-1.88495 1.07261-2.65721 0.38724-0.26591 0.67027-0.6794 1.02304-0.96054zm114.344 0c0.89348-0.0604 1.80951 0.29813 2.625 0.5 0.63981 0.62615 1.36958 1.22184 1.46978 2.17547 0.0004 0.94988 0.029 1.90945 0.18647 2.85578-0.50132 0.76318-1.18471 1.20941-1.5227 2.08328-0.32627 0.36449-0.14529-0.41624-0.7895 0.35398-0.47715 0.62493-1.28898 0.4073-1.96905 0.53149 0.18532 0.0457-0.88126 0.21708-1-0.0937-0.62488 0.26676-1.17966-0.48815-0.89156-1.05651 0.10154-0.89831 0.34694-1.80584 0.39156-2.69349 0.0212-0.45882-0.82078-0.52751-0.49452-0.9549 0.62724-0.96924 0.65536-2.24277 1.33827-3.1701 0.21639-0.1447 0.41441-0.41513 0.65625-0.53125zm24.4062 0c0.89387-0.0659 1.81095 0.29233 2.625 0.5 0.45658 0.72591 1.31548 1.15305 1.44694 2.03676 0.23676 0.65357-0.32863 1.35511 0.0282 2.01742 0.1239 0.55694 0.39198 1.04591-0.15829 1.40219-0.74407 0.92634-1.64143 1.79816-2.66063 2.41863-0.67299-0.004-1.40958 0.22747-2.04875 0.0962-0.43611-0.12107-0.98225 0.18393-1.31296-0.47337-0.45801-0.38571 0.0677-1.10713 0.0221-1.63002-0.0466-0.69782 0.63347-1.33614 0.30832-1.99286-0.49814-0.33692-0.61668-0.58414-0.1527-1.10777 0.28369-0.74762 0.54023-1.59709 0.8402-2.29848 0.40529-0.2317 0.68149-0.70948 1.0625-0.96875zm88.6875 0c0.89387-0.0659 1.81095 0.29233 2.625 0.5 0.45658 0.72591 1.31548 1.15305 1.44694 2.03676 0.18355 0.79352-0.04 1.64785 0.17969 2.45519 0.23536 0.58558-0.3049 0.86834-0.56525 1.25702-0.45023 0.45447-0.59345 1.20801-1.15513 1.62603 0.28209-0.81337-0.70323 0.31424-1.05317 0.42785-0.66307 0.20039-1.43276 0.13513-2.13433 0.2284-0.49326-0.2597-1.04269 0.16753-1.40478-0.52003-0.45663-0.34391 0.14179-1.07785 0.1194-1.59559 0.10222-0.60629 0.34208-1.25558 0.28538-1.85313-0.0782-0.45385-0.9642-0.4998-0.39529-1.0348 0.418-0.79342 0.60642-1.69894 0.95779-2.5277 0.40665-0.1841 0.71715-0.73364 1.09375-1zm-200.688 5.125c-0.31536 0.54793 0.18384 1.09218 0.34375 1.625-0.40652 0.17686-0.2851 0.94106-0.24411 1.34285 0.0314 0.34662 0.18482 0.84148 0.11911 1.3134-0.044 0.67898-0.88768 0.40105-1.33463 0.63492-0.47209 0.0349-1.34695 0.14413-1.28043-0.52604 0.16205-1.71429 1.27274-3.10198 2.20881-4.48388 0.2292-0.172 0.24999-0.32373 0.1875 0.0937zm240.719 0.375c-0.0615 0.5311 0.79094 0.95888 0.39011 1.54086-0.1275 0.61448-0.15822 1.31148 0.0786 1.89664-0.0498 0.69025-0.31897 1.05513-1.04064 1.00391-0.46413 0.0708-1.41166 0.31612-1.53252-0.23072-0.0854-0.54047 0.0354-1.15326 0.16538-1.66495 0.71915-0.90855 1.12569-2.04416 1.97028-2.85824-0.0104 0.10417-0.0208 0.20833-0.0312 0.3125zm-227.094 3.375c-1.02649 0.42377-1.18596 1.81227-1.375 2.84375 0.0222 0.59442 0.30554 1.19008 0.90625 1.375 0.93978 0.52626 2.02388 0.0002 3.02852-0.008 0.84802-0.21159 0.72934 0.10547 1.38044 0.13598 1.62382 0.28898 3.29227-0.0683 4.90354 0.27868 0.58446-0.0511 0.71617-0.80849 1.11946-1.1682 0.46359-0.4841 0.11912-1.25508 0.22429-1.8693 0.0647-0.74722-0.42503-1.57102-1.2625-1.43125-1.45115-0.0318-2.90574-0.384-4.34167-0.0172-1.48964 0.10143-3.00388-0.24587-4.4907-0.1699l-0.0926 0.0309zm-6.65625 10.7812c0.2304-0.0564-0.11907-0.27257 0 0z" fill-rule="evenodd" fill="#fff"/>
  </g>
 </g>
 <path d="m358.281 218.394c-1.85329-2.22058-2.80937-3.2102-2.00749-6.81876 0.80187-3.60857 0.23551-6.94774-0.16554-12.5582-0.39813-5.61315 0.42337-5.10555 2.82889-11.1198 2.40563-6.01397 2.80377-6.48792 2.80377-10.5 0-4.00939-1.74394-3.24385 0.25795-5.6497 2.00469-2.40272 1.60095-4.01231 2.80376-10.0236 1.20562-6.01397 1.20562-4.0123 0-7.62064-1.20281-3.60856-1.99908-9.22148-0.39813-12.8327 1.60375-3.60857 3.62516-2.0047 2.8262-13.2311-0.80188-11.229 0.27196-19.1217 0.27196-25.9405 0-6.81608 2.0075-11.2263-0.80187-11.63-2.80646-0.400939-6.81608-1.20001-12.4319 0-5.61023 1.20282-8.67778 2.40563-10.6824 1.60656-2.00189-0.801877-2.13086-0.656081-5.33838 1.34861-3.20751 2.00469-8.35253 2.25692-14.8936 2.02152-6.99821-0.249535-4.09911-2.44219-6.9058-6.85241-2.80937-4.41313-4.0123-4.81396-6.41771-6.01397-2.40563-1.20282 2.33543-1.90096 0.69253-4.68521-2.85984-4.8476-3.28041-9.07569-0.0729-8.27403 3.20751 0.799074 14.3468 0.400939 19.9601 0 5.61315-0.403742 12.5972 2.0047 15.8047-0.403742 3.20751-2.40563 1.43833-3.20751 6.24949-2.40563 4.81115 0.801877 5.87109 0.235516 10.301-0.672905 4.04304-0.832719 10.974-3.29992 14.9833-2.49827 4.00939 0.799074 4.68229 2.66358 7.48898 1.45796 2.80937-1.20282 7.49436-1.8589 10.301-1.8589 2.80646 0 1.60376-4.41022 7.61773-2.80646 2.45879 0.653278 10.7189 0.406546 13.1077-0.274769 2.80377-0.799074 6.91701-2.69431 11.7254-1.4916 4.81126 1.20001 4.67668-2.5373 8.28794-0.933655 3.60856 1.60656 2.38881 2.02712 6.39819 2.42515 4.00648 0.400939 7.18326 1.58974 10.4244 4.81396 3.3533 3.33357 2.32712 3.38964 5.76185 5.02996 2.51487 1.20282 7.69354 3.86651 7.69354 8.68047 0 4.81127-0.54393 6.09831-7.42169 5.77307 0 0-2.08039 0.367294-4.36266-1.23085-2.28518-1.59815-4.0206-4.70181-6.07296-2.87375-2.05516 1.82525-4.57014 0.68412-6.84972 0.68412-2.28227 0-0.91122 1.59815-3.19629 1.82525-2.28508 0.227105-4.11033-0.914028-5.47857-2.05516-1.37104-1.13833-2.05516 0.914028-4.33754 0.914028-2.28227 0-3.1936-0.457014-5.02166-0.914028-1.82806-0.454211-1.37385 1.37104-3.19899 2.05516-1.82525 0.686923-5.93277 0.227105-9.58619 0-3.65343-0.227105-5.25135-0.684119-6.3926 3.65342-1.14113 4.33754-0.68972 5.47856-2.51217 8.90208-1.82526 3.4262-2.64945 4.7018-0.82151 7.4412 1.82806 2.73647 2.60459 2.28226 1.46077 5.25134-1.14114 2.96931 0.45701 3.65342-1.59815 6.84972-2.05236 3.1963-2.92444 4.65986-3.60565 8.31037-0.68412 3.65342-1.36824 2.28518-0.68692 7.30662 0.68692 5.02166 2.74209 10.046 1.37104 12.5553-1.37104 2.51218-1.37104 6.61959-1.37104 10.7301 0 4.11032-0.91122 2.74208-1.36543 8.44764-0.45702 5.70578-2.73917 7.94296-2.28519 14.3385 0.45702 6.39259 2.74209 8.44495 0 11.4113-2.73648 2.9693-2.19255 2.33004-1.96264 6.43745 0.22711 4.11032 2.51487 6.84972 0.45702 9.81879-2.05516 2.96639-2.73917 2.73917-2.51218 7.07672 0.22991 4.33754 1.05141 9.35897 0.1375 13.6963-0.91403 4.33754-1.60095 4.79444-7.53653 3.1963-5.93277-1.59535-6.71222-1.92058-8.76458-3.51593-2.05236-1.59815-3.69828-2.60459-7.5787-1.91778-3.88041 0.68412-6.68418-3.61686-7.38221-4.45507zm-181.258 19.6488c-5.24305-1.49441-4.90099-5.06921-4.49994-10.6794 0.39814-5.61315 1.43553-8.5432 0.68132-14.2741-0.81309-6.16829-1.64862-11.6861-0.4458-16.4974 1.20282-4.81127 3.53275-15.6562 2.33273-22.0713-1.20281-6.41772-0.47383-10.2645 1.53086-15.4768 2.0047-5.21231 0.80188-12.8327 1.60376-18.8469 0.80187-6.01688-0.13458-8.87112 1.60375-13.6348 2.16732-5.9413-0.16822-7.63747 0.82992-13.9908 1.00935-6.41502 1.21964-11.5825 2.42245-17.1983 1.20282-5.61314-0.25514-12.2554-1.33739-15.3732-1.60096-4.6094 0.49066-8.37766-0.71216-9.98142-1.20001-1.60095 0.72898-3.08975 4.33754-4.28977 7.45802-2.48705 1.33179-5.15893 9.0869-4.05716 2.80646 0.398135 3.47667 4.42726 7.48606 2.42246 4.00648-2.00469 8.36376-4.09911 11.9721-3.70097 3.61126 0.400939 6.41772 1.20282 8.42252-0.799074 2.0047-2.0075 4.41022-1.60376 8.01878-0.400939 3.60856 1.20001 4.72424-1.36824 8.3328-2.17012 3.60856-0.799074 9.19367-1.1159 14.4058-1.51404 5.21232-0.400939 5.33568 0.636455 9.34216-1.36824 4.00938-2.00189 6.89166-1.67665 9.69834-0.473837 2.80938 1.20562 6.60837-2.65797 9.41506-0.653278 2.80646 2.00469 6.55521 0.330845 10.1608 3.53544 3.60564 3.20482 6.59177 7.13548 3.44572 10.3235-2.28585 2.3103-5.73449 1.83927-7.61862 1.05422-2.75891-1.15235-0.94768-0.02243-0.5944 5.1392 0.3 4.41605-5.51512 1.69348-7.69354 2.71674-2.40272 1.12992-9.19367 1.65142-12.8049 2.45049-3.60856 0.801878-5.61315-2.40563-6.81608 0.400939-1.20281 2.80938-4.41021 2.80938-5.61314 0.804681-1.20282-2.0075-3.61125-0.804681-4.81396 1.20001-1.20281 2.00469-6.41502 4.00939-12.429 3.2102-6.01689-0.801878-8.01878 2.80646-12.0311 2.80646-4.00939 0-10.0263-0.400939-10.0263 3.20751v10.618c0 3.60856-0.28318 11.4842-1.48319 14.6918-1.20282 3.20482 0 7.61772-2.0075 10.4244-2.00469 2.80646-2.00469 4.0123 1.20282 5.21501 3.20751 1.20001 5.87109-2.12246 10.6824-0.91964 4.80857 1.20001 2.40563-0.33084 6.41233-1.53366 4.00938-1.20001 2.35516-4.16348 6.9336-3.1317 6.67028 1.50002 15.7179-2.68892 18.1236-1.88693 2.40563 0.79907 6.37285 1.52805 7.57578-0.47664 1.20001-2.00189 7.2169-5.21232 7.61773-2.0047 0.40094 3.20751-1.43833 6.79073 0.96449 9.19367 3.33088 3.33088 9.41797 5.17284 9.01692 9.18245-0.40374 4.00939-3.0478 1.17478-5.04947 4.78032-2.0047 3.60856-4.22248 2.90739-7.83081 2.10843-3.60565-0.79907-2.59629 2.73379-6.20463 1.52805-3.61125-1.20001-5.33277-0.72617-8.13945 0.87758-2.80646 1.60656-13.2338 1.20562-16.0402 1.60656-2.80646 0.39814-2.40563 1.20001-6.01397 3.60856-3.61125 2.40272-6.09248 1.15516-8.89916 1.15516-2.80646 0-6.34212 4.21956-9.54963 3.01685-3.20482-1.20282-5.21232-0.40094-5.21232 4.81396 0 5.21232-2.16731 5.28499-1.36824 10.4973 0.80188 5.21231 1.64862 10.2618 0.4486 13.0682-1.20281 2.80646-0.28318 8.34962-2.69161 11.1563-2.40272 2.80646 0.80468 2.0075 1.20562 6.41772 0.40093 4.41021 0.40093 3.20751 5.21231 0 4.81127-3.2102 5.66092-4.81396 10.873-4.01231 5.21231 0.80188 3.16265-4.80857 9.57767-4.41021 6.41771 0.39813 18.3452-1.36544 22.3543-2.9693 4.00939-1.60656 14.8402-3.20482 18.045-1.20562 3.20751 2.00469 2.10844 2.36077 6.9197 3.16265 4.81127 0.80187 7.21982 3.13752 7.21982 8.75044 0 5.61315 3.53544 5.71408-4.48603 11.9104-2.5207 1.94582-6.89458 1.11871-9.68713 2.17853-4.65695 1.76918-8.63 3.16265-10.6319 2.91592-3.20751-0.39814-3.19069-4.21687-5.59901-1.81124-2.40564 2.40564-3.68124 3.89164-8.09168 3.89164-4.41313 0-9.2244-0.40375-12.8327 1.60375-3.60857 2.00469-4.81127-2.0075-7.62065 1.60376-2.80646 3.60856-8.82065 6.81607-13.2338 5.61022-4.40753-1.20001-4.41022 0.80749-8.01878 2.80938-3.60856 2.00469-2.88227 2.80938-9.2973 1.20562-6.41502-1.60656-6.41771-2.00469-9.62522 0-3.20751 2.00189-5.66092 3.72071-8.46469 2.92444zm248.997 0.10093c-3.35599 1.52525-3.71488-1.58132-5.47856-2.19254-1.55609-0.54113-3.56078-0.52711-4.62061-2.19535-2.48705-3.81874 0.12068-1.93741-4.11324-3.90016-1.37665-0.63645-2.44489-2.2457-3.52153-2.99173-2.37199-1.6374-4.41022-3.36452-3.80191-6.43476 0.51589-2.6158 0.69253-3.39548-0.65048-4.79736-1.74674-1.82245-0.90561-3.38134 0.36169-4.93194 0.75702-0.91964 1.2617-3.05611 2.79816-3.66464 1.77759-0.70374 3.51032-2.3915 3.89163-3.56639 0.53272-1.65422 1.7832-2.16451 2.65528-4.20565 0.79627-2.18975 2.27935-3.84117 4.07376-4.9122 2.16732-1.29254 4.37658-1.65423 5.43932 0.13188 1.83366 3.08415 3.70658 0.40935 6.56934 2.24571 2.92982 1.87853 1.06543 4.58427 3.03928 7.81421 2.87958 4.71034 5.77846 0.93646 6.42355 5.83453 0.39533 2.99712-0.40655 2.50097 1.69908 4.00379 2.10283 1.50282 2.49827 5.78697-1.10749 7.28979-3.60856 1.50282-3.97866 0.67851-4.27855 3.38695-0.3 2.70553-0.32804 2.85985-2.43367 5.86549-0.48225 1.55889-1.91778 3.59734-3.65342 4.48603-1.44114 0.73739-2.17853 2.22619-3.29163 2.73378zm-112.577-11.855c0.17653-1.4131 0.88599-3.47398 3.10658-1.44674 2.21778 2.02432 0.58879 2.46171 2.81229 3.47106 2.21778 1.01497 5.17867 1.73834 6.51035-1.30095 1.33179-3.03928 1.18319-0.86916 2.66358-4.34023 1.48039-3.47398 0.14871-2.17292 0-5.78967-0.1458-3.61686-0.5916-4.63182 0.44299-6.65614 1.0374-2.02713 1.4832-2.75039 2.51779-4.92073 1.03739-2.17292 2.22058-6.65615 0.44299-7.09353-1.77478-0.43178-2.96078-1.58974-3.70097-2.60459-0.73739-1.01216-0.88599-1.88133-3.10658-0.57758-2.22058 1.30095-3.25506 2.17292-3.99256 0.14311-0.743-2.02432-6.07005-4.77493-6.66176-1.44675-0.59439 3.33088 0.2944 4.63452-1.92338 4.48603-2.22059-0.1431-3.99817 0.86917-3.99817 3.33088 0 2.45879 1.77758 2.45879-1.62619 3.18239-3.40377 0.72337-6.21584 1.88133-7.39926 4.34292-1.18319 2.45879-4.29268 5.35228-2.96078 8.24869 1.39908 3.04781 3.14875 3.73193 3.84677 5.64387 0.7402 2.02713 1.62899 3.61686 4.44117 3.03929 2.81229-0.58038 1.92339 1.59254 4.58697 2.31299 2.66358 0.72618 3.84677-0.86636 3.99817-2.02432" fill-rule="evenodd" fill="#fff"/>
</svg>
