<?xml version="1.0" encoding="UTF-8" standalone="no"?>
<svg
   xmlns:dc="http://purl.org/dc/elements/1.1/"
   xmlns:cc="http://creativecommons.org/ns#"
   xmlns:rdf="http://www.w3.org/1999/02/22-rdf-syntax-ns#"
   xmlns:svg="http://www.w3.org/2000/svg"
   xmlns="http://www.w3.org/2000/svg"
   viewBox="0 0 1302.7333 1131.8533"
   height="1131.8533"
   width="1302.7333"
   xml:space="preserve"
   id="svg2"
   version="1.1"><metadata
     id="metadata8"><rdf:RDF><cc:Work
         rdf:about=""><dc:format>image/svg+xml</dc:format><dc:type
           rdf:resource="http://purl.org/dc/dcmitype/StillImage" /></cc:Work></rdf:RDF></metadata><defs
     id="defs6" /><g
     transform="matrix(1.3333333,0,0,-1.3333333,0,1131.8533)"
     id="g10"><g
       transform="scale(0.1)"
       id="g12"><path
         id="path14"
         style="fill:#231f20;fill-opacity:1;fill-rule:evenodd;stroke:none"
         d="m 4524.15,5035.42 c 0,1096.67 -0.95,2193.35 1.75,3290.03 0.23,88.69 -26.62,116.56 -114.66,115.95 -484.18,-3.33 -968.4,-1.67 -1452.6,-1.78 -132.09,-0.04 -133.47,-1.14 -133.48,-134.84 -0.09,-1911.18 -0.12,-3822.35 -0.04,-5733.53 0.01,-227.51 6.56,-455.22 -0.37,-682.53 -9.46,-309.91 -261.4,-545.83 -571.28,-545.98 -327.51,-0.14 -571.05,243.42 -571.24,583.31 -0.3,570.67 9.21,1141.35 8.69,1712 -1.37,1471.7 -5.97,2943.41 -9.26,4415.12 -0.22,96.2 -3.15,192.51 0.51,288.58 2.9,75.99 -29,99.53 -102.95,99.2 -490.61,-2.2 -981.24,-2.05 -1471.849,0.21 C 30.9805,8441.52 0.757813,8421.49 0.859375,8337.65 2.93359,6606.05 2.14844,4874.45 1.83984,3142.86 1.82422,3075.54 0.28125,3008.2 0.648438,2940.88 2.94531,2511.87 -7.86328,2082.14 14.4648,1654.17 23.9063,1473.31 78.9648,1284.87 155.395,1119.29 416.57,553.578 898.16,252.629 1477.68,96.9297 c 383.59,-103.05079 778.17,-118.418 1173.62,-72 575.63,67.5391 1083.97,273.7893 1473.15,721.6213 246.59,283.759 377.92,618.639 396.04,989.989 15.76,322.9 3.64,647.15 3.67,970.86 0.07,776 0.02,1552 -0.01,2328.02" /><path
         id="path16"
         style="fill:#231f20;fill-opacity:1;fill-rule:evenodd;stroke:none"
         d="m 7292.71,188.168 c 724.75,0 1449.54,1.203 2174.27,-1.566 88.15,-0.34 115.42,25.738 114.26,115.789 -4.82,375.129 -1.64,750.369 -1.62,1125.599 0,135.83 -0.25,136.12 -139.92,136.17 -811.35,0.33 -1622.68,0.49 -2434.04,0.76 -35.28,0 -70.58,-0.34 -105.81,1.2 -73.94,3.25 -108.26,40.06 -84.06,113.36 33.05,100.05 63.41,202 107.75,297.16 289.31,620.39 758.92,1097.5 1247.16,1559.41 353.92,334.79 711.84,665.7 1003.27,1059.85 262.11,354.5 457.7,737.81 544.1,1174.96 66.15,334.77 65.22,669.95 22.02,1004.49 -40.74,315.6 -154.92,606.9 -344.45,866.18 -336.1,459.78 -812.65,687.01 -1352.16,789.54 -564.02,107.18 -1122.79,67.67 -1663.9,-138.02 -659.43,-250.7 -1069.46,-712.28 -1136.51,-1424.77 -41.65,-442.41 -33.3,-889.55 -46.78,-1334.57 -2.08,-69.11 43.4,-85.63 101.5,-85.63 509.9,0.11 1019.79,0.43 1529.69,-0.19 66.76,-0.08 103.36,26.77 102.04,96.46 -2.24,121.78 -5.44,243.56 -6.23,365.35 -1.5,230.37 -12.55,461.37 0.13,691.01 22.61,409.31 455.54,667.48 827.05,469.15 224.03,-119.61 297.33,-320.22 300.5,-551.91 6.11,-445.1 -156.02,-838.6 -396.5,-1204.12 C 7425.33,4965.5 7115.17,4688.8 6829.85,4390.65 6443.73,3987.13 6075.83,3569.85 5767.43,3102.17 5457.2,2631.73 5239.89,2123.75 5117.87,1573.28 5025.56,1156.76 5008.53,735.359 5014.58,311.332 c 1.73,-121.023 0.98,-122.902 123.09,-122.902 718.36,-0.059 1436.71,-0.039 2155.04,-0.262" /><path
         id="path18"
         style="fill:#231f20;fill-opacity:1;fill-rule:evenodd;stroke:none"
         d="m 4524.16,5035.42 c 0.02,-776.02 0.07,-1552.02 0,-2328.02 -0.03,-323.71 12.09,-647.96 -3.67,-970.86 C 4502.37,1365.19 4371.04,1030.31 4124.45,746.551 3735.27,298.719 3226.93,92.4688 2651.3,24.9297 2255.85,-21.4883 1861.27,-6.12109 1477.68,96.9297 898.16,252.629 416.57,553.578 155.395,1119.29 78.9648,1284.87 23.9063,1473.31 14.4648,1654.17 -7.86328,2082.14 2.94531,2511.87 0.648438,2940.88 0.28125,3008.2 1.82422,3075.54 1.83984,3142.86 2.14844,4874.45 2.93359,6606.05 0.859375,8337.65 0.757813,8421.49 30.9805,8441.52 107.371,8441.16 c 490.609,-2.26 981.239,-2.41 1471.849,-0.21 73.95,0.33 105.85,-23.21 102.95,-99.2 -3.66,-96.07 -0.73,-192.38 -0.51,-288.58 3.29,-1471.71 7.89,-2943.42 9.26,-4415.12 0.52,-570.65 -8.99,-1141.33 -8.69,-1712 0.19,-339.89 243.73,-583.45 571.24,-583.31 309.88,0.15 561.82,236.07 571.28,545.98 6.93,227.31 0.38,455.02 0.37,682.53 -0.08,1911.18 -0.05,3822.35 0.04,5733.53 0.01,133.7 1.39,134.8 133.48,134.84 484.2,0.11 968.42,-1.55 1452.6,1.78 88.04,0.61 114.89,-27.26 114.66,-115.95 -2.7,-1096.68 -1.75,-2193.36 -1.74,-3290.03" /><path
         id="path20"
         style="fill:#231f20;fill-opacity:1;fill-rule:evenodd;stroke:none"
         d="m 7292.71,188.27 c -718.33,0.121 -1436.68,0.101 -2155.04,0.16 -122.11,0 -121.36,1.879 -123.09,122.902 -6.05,424.027 10.98,845.428 103.29,1261.948 122.02,550.47 339.33,1058.45 649.56,1528.89 308.4,467.68 676.3,884.96 1062.42,1288.48 285.32,298.15 595.48,574.85 824.62,923.18 240.48,365.52 402.61,759.02 396.5,1204.12 -3.17,231.69 -76.47,432.3 -300.5,551.91 -371.51,198.33 -804.44,-59.84 -827.05,-469.15 -12.68,-229.64 -1.63,-460.64 -0.13,-691.01 0.79,-121.79 3.99,-243.57 6.23,-365.35 1.32,-69.69 -35.28,-96.54 -102.04,-96.46 -509.9,0.62 -1019.79,0.3 -1529.69,0.19 -58.1,0 -103.58,16.52 -101.5,85.63 13.48,445.02 5.13,892.16 46.78,1334.57 67.05,712.49 477.08,1174.07 1136.51,1424.77 541.11,205.69 1099.88,245.2 1663.9,138.02 539.51,-102.53 1016.06,-329.76 1352.16,-789.54 189.53,-259.28 303.71,-550.58 344.45,-866.18 43.2,-334.54 44.13,-669.72 -22.02,-1004.49 C 9631.67,5333.71 9436.08,4950.4 9173.97,4595.9 8882.54,4201.75 8524.62,3870.84 8170.7,3536.05 7682.46,3074.14 7212.85,2597.03 6923.54,1976.64 c -44.34,-95.16 -74.7,-197.11 -107.75,-297.16 -24.2,-73.3 10.12,-110.11 84.06,-113.36 35.23,-1.54 70.53,-1.2 105.81,-1.2 811.36,-0.27 1622.69,-0.43 2434.04,-0.76 139.67,-0.05 139.92,-0.34 139.92,-136.17 -0.02,-375.23 -3.2,-750.47 1.62,-1125.599 1.16,-90.051 -26.11,-116.129 -114.26,-115.789 -724.73,2.769 -1449.52,1.566 -2174.27,1.668" /></g></g></svg>