<?xml version="1.0" encoding="UTF-8"?>
<!DOCTYPE svg PUBLIC "-//W3C//DTD SVG 1.1//EN" "http://www.w3.org/Graphics/SVG/1.1/DTD/svg11.dtd">
<!-- Creator: CorelDRAW -->
<svg xmlns="http://www.w3.org/2000/svg" xml:space="preserve" width="236px" height="86px" style="shape-rendering:geometricPrecision; text-rendering:geometricPrecision; image-rendering:optimizeQuality; fill-rule:evenodd; clip-rule:evenodd"
viewBox="0 0 236 85.6815"
 xmlns:xlink="http://www.w3.org/1999/xlink">
 <defs>
  <style type="text/css">
   <![CDATA[
    .fil0 {fill:none}
    .fil1 {fill:#611F0A}
   ]]>
  </style>
 </defs>
 <g id="Capa_x0020_1">
  <metadata id="CorelCorpID_0Corel-Layer"/>
  <g id="_48161136">
   <rect id="_48549328" class="fil0" width="236" height="85.6815"/>
   <path id="_48676440" class="fil1" d="M33.7139 10.6892l0.268679 38.188c-0.759878,5.02087 -9.73638,5.31914 -10.6797,-0.636782 0.0295903,-3.69996 0.675841,-4.84333 1.17888,-8.30421l-14.6046 5.20552c-8.58354,39.5681 44.0871,41.1529 47.4426,15.3514l0.125463 -49.4181 -23.7314 -0.385857z"/>
   <path id="_48232896" class="fil1" d="M54.5609 75.5108l17.8962 -64.7671 27.0999 0 17.8962 64.5967 -21.8163 0.17044 -2.5566 -11.4195 -17.5553 -0.17044 -1.36352 11.4195 -19.6006 0.17044zm24.8842 -24.8842l10.5673 0 -5.28364 -17.7257 -5.28364 17.7257z"/>
   <polygon id="_48676304" class="fil1" points="101.432,11.0845 118.817,75.1699 137.526,75.1699 144.132,51.7735 150.348,75.1699 168.244,75.1699 184.606,10.5732 167.733,10.5732 161.683,36.1392 154.649,10.572 139.951,10.5732 133.134,36.0539 125.634,10.7436 "/>
   <path id="_48315704" class="fil1" d="M217.501 27.6172l8.69243 -10.056c-29.5689,-27.313 -68.3464,20.7688 -27.2917,34.0335 25.5127,7.35495 -0.976478,19.5035 -8.84157,2.09972l-11.4195 9.71507c37.0174,37.5938 76.9465,-17.9518 32.3836,-30.8496 -18.5484,-5.11201 2.07013,-15.5183 6.47671,-4.94276z"/>
  </g>
 </g>
</svg>
