<?xml version="1.0" encoding="UTF-8" standalone="no"?>
<!-- Created with Inkscape (http://www.inkscape.org/) -->

<svg
   xmlns:dc="http://purl.org/dc/elements/1.1/"
   xmlns:cc="http://creativecommons.org/ns#"
   xmlns:rdf="http://www.w3.org/1999/02/22-rdf-syntax-ns#"
   xmlns:svg="http://www.w3.org/2000/svg"
   xmlns="http://www.w3.org/2000/svg"
   xmlns:sodipodi="http://sodipodi.sourceforge.net/DTD/sodipodi-0.dtd"
   xmlns:inkscape="http://www.inkscape.org/namespaces/inkscape"
   width="130.10718mm"
   height="55.391224mm"
   viewBox="0 0 461.00968 196.26811"
   id="svg2"
   version="1.1"
   inkscape:version="0.91 r13725"
   sodipodi:docname="KISS logo.svg">
  <title
     id="title4155">KISS logo</title>
  <defs
     id="defs4" />
  <sodipodi:namedview
     id="base"
     pagecolor="#ffffff"
     bordercolor="#666666"
     borderopacity="1.0"
     inkscape:pageopacity="0.0"
     inkscape:pageshadow="2"
     inkscape:zoom="0.98994949"
     inkscape:cx="309.31294"
     inkscape:cy="86.085721"
     inkscape:document-units="px"
     inkscape:current-layer="layer1"
     showgrid="false"
     fit-margin-top="0"
     fit-margin-left="0"
     fit-margin-right="0"
     fit-margin-bottom="0"
     inkscape:window-width="1366"
     inkscape:window-height="705"
     inkscape:window-x="-8"
     inkscape:window-y="-8"
     inkscape:window-maximized="1" />
  <metadata
     id="metadata7">
    <rdf:RDF>
      <cc:Work
         rdf:about="">
        <dc:format>image/svg+xml</dc:format>
        <dc:type
           rdf:resource="http://purl.org/dc/dcmitype/StillImage" />
        <dc:title>KISS logo</dc:title>
        <cc:license
           rdf:resource="http://creativecommons.org/licenses/by-sa/3.0/" />
        <dc:date>20/11/2016</dc:date>
        <dc:creator>
          <cc:Agent>
            <dc:title>KISS</dc:title>
          </cc:Agent>
        </dc:creator>
        <dc:publisher>
          <cc:Agent>
            <dc:title>CMetalCore</dc:title>
          </cc:Agent>
        </dc:publisher>
        <dc:source>http://www.thelogofactory.com/wp-content/uploads/2015/10/the-kiss-logo.png</dc:source>
      </cc:Work>
      <cc:License
         rdf:about="http://creativecommons.org/licenses/by-sa/3.0/">
        <cc:permits
           rdf:resource="http://creativecommons.org/ns#Reproduction" />
        <cc:permits
           rdf:resource="http://creativecommons.org/ns#Distribution" />
        <cc:requires
           rdf:resource="http://creativecommons.org/ns#Notice" />
        <cc:requires
           rdf:resource="http://creativecommons.org/ns#Attribution" />
        <cc:permits
           rdf:resource="http://creativecommons.org/ns#DerivativeWorks" />
        <cc:requires
           rdf:resource="http://creativecommons.org/ns#ShareAlike" />
      </cc:License>
    </rdf:RDF>
  </metadata>
  <g
     inkscape:label="Capa 1"
     inkscape:groupmode="layer"
     id="layer1"
     transform="translate(-59.874231,-51.885063)">
    <path
       style="fill:#000000"
       d="m 59.874231,150.0185 0,-98.133441 34.401543,0.149762 34.401536,0.149756 0.29031,11.823057 0.2903,11.823056 2.48184,-4.660935 c 2.93322,-5.508622 4.5929,-10.034775 5.57772,-15.211169 l 0.71802,-3.774009 71.52111,-0.147439 71.52109,-0.147439 0.1509,26.937387 0.1509,26.937384 12.48326,-21.815527 c 6.86579,-11.998542 13.79719,-24.054017 15.40311,-26.789948 l 2.91986,-4.974418 36.12662,-0.149548 c 19.86964,-0.08225 36.12662,-0.02851 36.12662,0.119459 0,0.147955 -5.48683,11.483911 -12.19296,25.191013 -6.70611,13.707102 -12.19294,25.084239 -12.19294,25.282529 0,0.19829 8.33041,0.36052 18.51201,0.36052 17.12717,0 18.53484,-0.076 18.81716,-1.01609 0.16782,-0.55884 4.8761,-11.989734 10.46282,-25.40198 l 10.15769,-24.385903 36.63485,-0.149482 c 20.14916,-0.08222 36.63484,0.04843 36.63484,0.290308 0,0.241885 -4.42659,11.674725 -9.83687,25.406311 l -9.83688,24.966526 24.64261,0.15139 c 17.43509,0.1071 24.6426,0.33809 24.6426,0.78972 0,0.35109 -3.77089,13.60812 -8.37975,29.46007 -12.76153,43.89261 -27.43217,94.47828 -30.50178,105.17282 l -2.74976,9.58017 -39.34186,0.14924 c -37.32757,0.14159 -39.32134,0.097 -38.94068,-0.87093 0.22067,-0.56108 4.84448,-13.03892 10.27515,-27.72853 5.43066,-14.6896 13.63966,-36.88448 18.24221,-49.32193 4.60255,-12.43748 8.36828,-22.82326 8.36828,-23.07952 0,-0.25627 -9.86323,-0.46066 -21.91828,-0.45422 l -21.91828,0.0118 -20.03254,50.64708 -20.03253,50.64709 -37.83855,0.14934 -37.83855,0.14934 -1.21905,-1.54977 c -1.18133,-1.50182 -1.24504,-1.51543 -2.05913,-0.43965 -0.46204,0.61056 -0.84839,1.30607 -0.85854,1.54558 -0.0102,0.2395 -12.32623,0.43546 -27.36905,0.43546 l -27.35059,0 -2.29783,-1.81992 -2.29783,-1.81991 -1.88304,1.8251 -1.88303,1.82511 -30.73969,-0.15034 -30.73969,-0.15034 -0.3789,-9.87049 c -0.91524,-23.84295 -6.09907,-41.16763 -16.56877,-55.3738 l -3.65507,-4.95949 -0.14972,35.10188 -0.14974,35.10187 -34.401536,0.14976 -34.401543,0.14976 0,-98.13343 z m 65.029069,55.79016 0.29031,-37.97945 4.29354,4.59398 c 15.03844,16.09077 22.43465,35.77266 23.7634,63.23628 l 0.39328,8.12863 27.84387,0.15085 27.84386,0.15087 2.76082,-2.71931 2.76081,-2.7193 2.90106,2.7136 2.90105,2.71359 25.46692,0 25.46691,0 2.07293,-2.97415 2.07294,-2.97415 2.22041,2.97415 2.22042,2.97415 35.27325,0 c 34.49211,0 35.28681,-0.0253 35.885,-1.14304 0.33647,-0.6287 5.55683,-13.62726 11.6008,-28.88569 6.04398,-15.25845 14.8711,-37.54054 19.61583,-49.51576 l 8.62678,-21.77312 26.24219,-0.15107 c 16.55014,-0.0953 26.24219,0.0556 26.24219,0.40838 0,0.30769 -8.23024,22.82964 -18.28943,50.04879 -10.05918,27.21915 -18.28942,49.83185 -18.28942,50.25045 0,0.61915 6.44168,0.76106 34.54669,0.76106 19.00069,0 34.5467,-0.12317 34.5467,-0.27371 0,-0.15055 3.24725,-11.4508 7.2161,-25.11168 3.96886,-13.66087 12.73444,-43.9112 19.47907,-67.22297 6.74463,-23.31176 12.39843,-42.84225 12.564,-43.4011 0.28341,-0.95664 -1.164,-1.01608 -24.74375,-1.01608 l -25.04478,0 0.40944,-1.30638 c 0.22518,-0.71852 3.92745,-10.189833 8.22727,-21.047366 8.35359,-21.093833 11.18251,-28.325693 11.18251,-28.587003 0,-0.0898 -14.55196,-0.09576 -32.33769,-0.01324 l -32.33771,0.150031 -10.49452,25.256827 -10.49451,25.256831 -23.32032,0.1517 -23.32033,0.15171 8.01377,-16.408973 c 4.40758,-9.024939 10.00805,-20.419199 12.44549,-25.32058 2.43745,-4.90138 4.43173,-9.016503 4.43173,-9.144712 0,-0.12821 -14.23634,-0.233111 -31.63633,-0.233111 l -31.63633,0 -1.34743,2.177312 c -0.74109,1.19752 -9.17057,15.848366 -18.73217,32.557427 l -17.38474,30.380117 -0.14999,-32.557429 -0.14998,-32.557427 -32.217,0 -32.21699,0 -0.14755,68.077306 -0.14756,68.07731 -3.02964,-5.9037 c -9.88218,-19.25695 -22.22618,-37.88867 -34.05904,-51.40788 -2.43398,-2.78086 -4.42541,-5.33201 -4.42541,-5.66923 0,-0.33722 1.22264,-2.11178 2.71697,-3.94347 6.60294,-8.09359 16.26563,-24.15875 21.38495,-35.554567 4.64575,-10.341587 9.57385,-27.053134 9.57385,-32.465587 l 0,-1.220183 -31.42619,0.150152 -31.42619,0.150157 -1.12227,4.320945 c -1.30828,5.037101 -4.04132,11.178744 -7.10768,15.97225 -2.05511,3.21265 -7.64703,9.608315 -8.40123,9.608784 -0.19319,1.21e-4 -0.35124,-6.727777 -0.35124,-14.95088 l 0,-14.951099 -30.192066,0 -30.192071,0 -0.149093,93.188978 c -0.08196,51.25394 -0.02394,93.51794 0.128946,93.91998 0.219569,0.5773 6.599431,0.69939 30.341158,0.58063 l 30.063126,-0.15039 0.29031,-37.97944 z m -53.273474,-55.3547 0.147044,-86.657048 22.644054,0 22.644056,0 0.15239,21.047356 c 0.0839,11.576048 0.30681,21.047362 0.49553,21.047362 0.83739,0 9.88044,-8.052835 14.06211,-12.522306 6.8539,-7.325618 11.86105,-15.298038 16.47636,-26.233865 l 1.53153,-3.628855 21.42951,0 c 11.78622,0 21.5726,0.143097 21.7475,0.317996 0.1749,0.174896 -0.13667,2.330438 -0.69236,4.790089 -4.01672,17.778934 -11.07816,32.049141 -26.54525,53.644351 l -6.6496,9.28419 2.51112,2.0722 c 1.3811,1.13971 4.60132,4.18721 7.15604,6.77222 21.91099,22.17084 36.71955,53.72904 40.89157,87.14318 0.35885,2.87405 0.77944,6.20534 0.93466,7.40286 l 0.28221,2.17732 -24.39277,0 -24.39277,0 -0.006,-1.5967 c -0.0175,-4.67693 -1.38179,-16.40201 -2.63297,-22.62923 -2.68811,-13.37893 -7.82314,-26.09352 -14.83771,-36.73882 -4.80584,-7.29334 -14.17073,-16.65043 -21.42466,-21.40679 l -5.51586,-3.61673 -0.14888,42.99413 -0.14887,42.99414 -22.932536,0 -22.932533,0 0.147053,-86.65705 z m 148.057254,0 0.14705,-86.657048 24.96652,0 24.96652,0 0.14705,86.657048 0.14705,86.65705 -25.26062,0 -25.26062,0 0.14705,-86.65705 z m 73.48969,71.99648 c 4.12771,-8.06331 11.42427,-22.36826 16.21455,-31.78877 4.7903,-9.4205 13.20238,-25.9463 18.69352,-36.72401 l 9.98389,-19.59581 -29.3607,0 c -18.28825,0 -29.36069,-0.20935 -29.36069,-0.55513 0,-0.53438 40.16108,-68.073731 41.35926,-69.554345 0.72939,-0.901313 42.24955,-1.072116 42.24955,-0.1738 0,0.30358 -5.36172,11.473195 -11.91493,24.821365 l -11.91494,24.2694 26.72066,0.15096 c 20.7935,0.11746 26.72067,0.31065 26.72069,0.87092 2e-5,0.39598 -4.34813,11.30171 -9.66256,24.23495 -14.66563,35.69047 -26.58887,64.73528 -33.90526,82.59273 l -6.60131,16.11211 -28.36333,0 -28.36332,0 7.50492,-14.66057 z m 127.52253,11.03171 c 1.1756,-3.11099 37.09423,-96.39189 37.89537,-98.41453 0.22776,-0.575 -5.99712,-0.72577 -29.96671,-0.72577 -20.38753,0 -30.25419,-0.19521 -30.25419,-0.59857 0,-0.32922 6.69421,-16.26715 14.87603,-35.41763 l 14.87603,-34.819046 21.99314,0 c 12.67756,0 21.99312,0.221768 21.99312,0.523572 0,0.45656 -7.51111,18.845476 -17.09866,41.861454 l -3.02328,7.25771 26.4634,0.2903 c 17.15588,0.18821 26.43054,0.49452 26.37,0.87093 -0.0514,0.31934 -4.54108,15.60407 -9.97715,33.96608 -5.43607,18.362 -12.92078,43.70592 -16.63269,56.31983 -3.71192,12.61389 -7.40294,25.08989 -8.20227,27.72444 l -1.45332,4.79009 -24.61505,0 -24.61506,0 1.37129,-3.62886 z m -142.51252,-18.1733 c 3.7e-4,-9.88355 0.17365,-30.31545 0.38507,-45.40422 l 0.38438,-27.43414 22.59769,0 c 12.42872,0 22.51059,0.19595 22.40413,0.43545 -1.42636,3.20934 -44.84109,89.42281 -45.23158,89.82142 -0.33364,0.34056 -0.5401,-6.32293 -0.53969,-17.41851 z m 22.06276,-33.93705 17.42041,-34.837 -17.41946,0 -17.41945,0 0,24.29283 c 0,13.36104 -0.17187,29.0377 -0.38193,34.83699 -0.21006,5.7993 -0.2105,10.54419 -9.1e-4,10.54419 0.20954,0 8.22016,-15.67666 17.80139,-34.83701 z m -91.77829,-63.72268 c -0.0404,-57.269681 -0.0526,-57.861403 -1.08629,-52.981283 -3.96818,18.7328 -14.03543,40.356873 -27.13366,58.282083 -2.07202,2.83559 -3.87455,5.44837 -4.00562,5.80616 -0.13106,0.35779 1.22029,2.34883 3.00302,4.42454 8.33771,9.70799 19.08009,25.03094 25.7797,36.77229 1.75637,3.07809 3.25872,5.60018 3.33855,5.60463 0.0799,0.005 0.12678,-26.05434 0.1043,-57.90842 z"
       id="path4168"
       inkscape:connector-curvature="0" />
  </g>
</svg>
